<?xml version="1.0" standalone="no"?>
<!DOCTYPE svg PUBLIC "-//W3C//DTD SVG 1.1//EN" "http://www.w3.org/Graphics/SVG/1.1/DTD/svg11.dtd" >
<svg>
<metadata>
Created by FontForge 20120731 at Sat Nov  1 02:34:10 2014
 By Orthosie Webhosting
Created by gluk ( gluksza@wp.pl | www.glukfonts.pl ) with FontForge.

</metadata>
<defs>
<font id="KleymisskyRegular" horiz-adv-x="220" >
  <font-face 
    font-family="KleymisskyRegular"
    font-weight="500"
    font-style="italic"
    font-stretch="normal"
    units-per-em="1000"
    panose-1="2 0 5 3 0 0 0 0 0 0"
    ascent="600"
    descent="-400"
    x-height="259"
    cap-height="541"
    bbox="-589 -470 2037 720"
    underline-thickness="9"
    underline-position="-135"
    slope="-8"
    unicode-range="U+0020-FB06"
  />
<missing-glyph horiz-adv-x="500" 
d="M294 459q35 0 52 -23t17 -49q0 -28 -19 -58t-42.5 -52.5t-42.5 -54.5t-19 -63v-9h18v14q0 28 23.5 58.5t51.5 52.5t51.5 52t23.5 57q0 31 -31 62t-80 31q-55 0 -89 -34t-34 -72q0 -22 11 -40t22 -26l12 15q-27 17 -27 51q0 31 24 59.5t78 28.5zM250 66q-10 0 -18.5 -7.5
t-8.5 -18.5q0 -19 18 -19q10 0 18.5 7.5t8.5 18.5q0 19 -18 19zM466 495q4 0 7 -3q2 -2 2 -8v-486q0 -7 -8 -7h-365q-3 0 -6 3q-2 2 -2 8v486q2 7 8 7h364z" />
    <glyph glyph-name="R_e_s" unicode="Res" horiz-adv-x="1306" 
d="M263 540l159 1q18 1 32 2q57 2 87 2q59 0 106.5 -45.5t47.5 -108.5q0 -81 -57.5 -138.5t-138.5 -57.5q-32 1 -77 2q37 -13 70.5 -32.5t66.5 -49t53 -50t55 -58.5q42 -46 73 -77t76.5 -70.5t84 -63.5t85.5 -40.5t90 -16.5q42 0 87 12t76 34l4 -5q-38 -31 -96.5 -53
t-106.5 -22q-49 0 -100.5 20t-93 48t-91.5 75.5t-83 83.5t-80 91q-33 39 -51.5 59.5t-46.5 47.5t-53.5 42.5t-51.5 23.5l2 12l100 2q59 0 101.5 53.5t42.5 129.5q0 58 -29.5 96t-76.5 38q-95 0 -122 2l-1 -2l20 -6l-60 -357q-9 -65 -14 -113q-13 -75 -70.5 -123.5
t-133.5 -48.5q-59 0 -101 37.5t-42 91.5q0 59 53 100.5t128 41.5l-6 -26q-67 0 -114.5 -34t-47.5 -82q0 -47 39 -80t94 -33q56 0 98.5 46t52.5 115q6 36 16 107l29 367l-85 1q-39 0 -67.5 -24t-28.5 -58q0 -33 22 -57t53 -24q19 0 37 12q0 -16 -10 -27.5t-24 -11.5
q-36 0 -62 32t-26 77q0 37 31.5 63.5t75.5 26.5zM1029 7l5 -5q-60 -48 -119 -58v-1q0 -54 52.5 -92.5t124.5 -38.5q69 0 115.5 44.5t46.5 107.5q0 89 -97 136q-23 11 -36 18.5t-31 20t-27 27.5t-9 32q0 30 28 45.5t72 15.5q14 0 40 -6q19 -5 27 -5q18 0 27.5 8.5t15.5 23.5
l4 -2l-29 -74l-3 1q-51 40 -83 40q-25 0 -43.5 -10t-18.5 -28q0 -21 63 -50q66 -31 101.5 -73.5t35.5 -109.5q0 -73 -58 -124.5t-143 -51.5q-75 0 -130 42t-55 101v2q-10 -1 -19 -1q-63 0 -108 46.5t-45 112.5q0 65 46 111.5t111 46.5q41 0 71.5 -19t30.5 -45
q0 -42 -60 -70.5t-143 -30.5q3 -55 34 -92.5t73 -37.5h11q7 54 44 90t86 36q41 0 70 -30.5t29 -72.5l-15 -2q0 39 -25 67t-60 28q-44 0 -78 -33t-41 -82q61 5 112 42zM789 100q66 2 106.5 27t40.5 64q0 22 -17 38t-40 16q-42 0 -66 -38t-24 -102v-5z" />
    <glyph glyph-name="zdotaccent_a.lfin" unicode="&#x17c;&#xe012;" horiz-adv-x="1098" 
d="M132 357l3 24q2 18 10 25.5t22 7.5h44l-5 -35q-1 -10 -10 -16t-20 -6h-44zM-1 13q88 66 127 114l70 86l-170 1l18 45q26 0 79 -6q62 -7 96 -7q29 0 66 40l4 -2l-145 -162q-50 -56 -76 -78q42 -11 91.5 -32t84.5 -40t90 -50.5t89 -49.5t82 -39.5t90.5 -31.5t82.5 -10
q171 0 292 116.5t121 279.5q0 164 -111 280t-267 116q-86 0 -146.5 -48.5t-60.5 -117.5l-17 -4q0 75 65.5 127.5t158.5 52.5q160 0 273 -119t113 -287q0 -180 -125 -307t-302 -127q-50 0 -101.5 12.5t-107.5 39t-92.5 47.5t-95.5 56q-55 34 -87 52t-73 34.5t-70 17.5z
M499 122l13 113q-9 0 -29 2q-23 3 -38 3q-38 0 -65 -40.5t-27 -104.5q0 -86 57 -86q30 0 56 34t33 79zM548 109q1 -55 36.5 -94t85.5 -39q70 0 119 47.5t49 113.5q0 48 -29.5 81.5t-70.5 33.5q-16 0 -31 -5l-4 10q17 5 35 5q46 0 78 -36.5t32 -88.5q0 -75 -53.5 -127.5
t-129.5 -52.5q-56 0 -97.5 37t-47.5 93h-1q-16 -39 -49.5 -65t-70.5 -26q-42 0 -70.5 32.5t-28.5 79.5q0 65 42 106t105 41q14 0 46 -6q21 -4 29 -4q33 0 44.5 7.5t18.5 26.5l3 -1z" />
    <glyph glyph-name="z_e.lfin" unicode="&#x7a;&#xe016;" horiz-adv-x="876" 
d="M365 100q66 2 106.5 27.5t40.5 63.5q0 22 -17 38t-40 16q-42 0 -66 -38t-24 -102v-5zM638 286l6 7q59 -35 60 -103q0 -85 -65.5 -145.5t-157.5 -60.5q-71 0 -121.5 34.5t-50.5 82.5q0 65 46 111.5t111 46.5q41 0 71.5 -19t30.5 -45q0 -42 -60 -70.5t-142 -30.5
q5 -38 38 -64t77 -26q88 0 150.5 54.5t62.5 131.5q0 64 -56 96zM-5 3q18 12 62.5 51t71.5 72l70 87q-128 0 -173 1l18 45q29 0 83 -6q61 -7 95 -7q29 0 66 40l4 -2l-145 -162q-61 -69 -86 -90q81 -16 201 -75q53 -26 87 -40.5t86 -27.5t101 -13q140 0 239.5 102.5
t99.5 246.5q0 136 -100 232t-242 96q-86 0 -146.5 -48.5t-60.5 -117.5l-17 -4q0 75 65.5 127.5t158.5 52.5q145 0 247.5 -99t102.5 -239q0 -158 -103.5 -270t-249.5 -112q-56 0 -113 14t-92 29.5t-88 42.5q-60 31 -104.5 48t-91.5 21z" />
    <glyph glyph-name="zdotaccent_e.lfin" unicode="&#x17c;&#xe016;" horiz-adv-x="876" 
d="M-5 3q18 12 62.5 51t71.5 72l70 87q-128 0 -173 1l18 45q29 0 83 -6q61 -7 95 -7q29 0 66 40l4 -2l-145 -162q-61 -69 -86 -90q81 -16 201 -75q53 -26 87 -40.5t86 -27.5t101 -13q140 0 239.5 102.5t99.5 246.5q0 136 -100 232t-242 96q-86 0 -146.5 -48.5t-60.5 -117.5
l-17 -4q0 75 65.5 127.5t158.5 52.5q145 0 247.5 -99t102.5 -239q0 -158 -103.5 -270t-249.5 -112q-56 0 -113 14t-92 29.5t-88 42.5q-60 31 -104.5 48t-91.5 21zM132 357l3 24q2 18 10 25.5t22 7.5h44l-5 -35q-1 -10 -10 -16t-20 -6h-44zM365 100q66 2 106.5 27.5
t40.5 63.5q0 22 -17 38t-40 16q-42 0 -66 -38t-24 -102v-5zM638 286l6 7q59 -35 60 -103q0 -85 -65.5 -145.5t-157.5 -60.5q-71 0 -121.5 34.5t-50.5 82.5q0 65 46 111.5t111 46.5q41 0 71.5 -19t30.5 -45q0 -42 -60 -70.5t-142 -30.5q5 -38 38 -64t77 -26q88 0 150.5 54.5
t62.5 131.5q0 64 -56 96z" />
    <glyph glyph-name="T_h_e.lfin" unicode="Th&#xe016;" horiz-adv-x="1309" 
d="M1068 286l6 7q59 -35 60 -103q0 -85 -65.5 -145.5t-157.5 -60.5q-71 0 -121.5 34.5t-50.5 82.5q0 65 46 111.5t111 46.5q41 0 71.5 -19t30.5 -45q0 -42 -60 -70.5t-142 -30.5q5 -38 38 -64t77 -26q88 0 150.5 54.5t62.5 131.5q0 64 -56 96zM795 100q66 2 106.5 27.5
t40.5 63.5q0 22 -17 38t-40 16q-42 0 -66 -38t-24 -102v-5zM445 0l-54 -1q10 25 27 123l39 356l-62 2v5h59q26 0 71 5l-46 -261l-15 -95q24 61 59 96.5t77 35.5q32 0 54 -19t22 -48q0 -16 -16 -64q-26 -84 -26 -132q0 -93 76 -158.5t183 -65.5q112 0 207 58t150 157t55 216
q0 111 -79 189.5t-191 78.5q-69 0 -125 -30t-88 -86l-13 4q36 63 95.5 97.5t131.5 34.5q115 0 196 -84.5t81 -203.5q0 -120 -57 -222t-154.5 -161t-213.5 -59q-120 0 -205.5 71t-85.5 171q0 44 17 132q8 46 8 60q0 20 -7 32t-18 12q-53 0 -93 -60t-55 -151q-4 -32 -4 -35z
M194 -1q8 37 26 164l39 395l-59 3l-118 -10l-16 -87h-7l13 122l129 -11q386 -17 585 -17q121 0 193 91l6 -4q-104 -137 -251 -137q-150 0 -424 43l-1 -6l19 -10l-66 -371q-11 -79 -11 -132q0 -14 1 -32z" />
    <glyph glyph-name="zdotaccent_y.lfin" unicode="&#x17c;&#xe02a;" horiz-adv-x="877" 
d="M132 357l3 24q2 18 10 25.5t22 7.5h44l-5 -35q-1 -10 -10 -16t-20 -6h-44zM364 259q17 0 29.5 -9.5t12.5 -23.5q0 -18 -11 -69q-14 -66 -14 -94q0 -46 25 -46q45 0 86 47t61 119q6 31 11 59l-34 2v5h54q26 0 52 30l2 -1l-58 -169q-6 -35 -14 -135q-6 -76 -11 -112
q134 8 227 113t93 250q0 136 -103 232t-249 96q-86 0 -146.5 -48.5t-60.5 -117.5l-17 -4q0 75 65.5 127.5t158.5 52.5q149 0 254.5 -99t105.5 -239q0 -104 -44 -193t-120.5 -143t-167.5 -60q-1 -7 -2 -13q-18 -113 -113.5 -184.5t-222.5 -71.5q-107 0 -183 56
q-75 58 -75 138q0 67 61 114q60 48 145 48l-6 -38q-77 0 -132 -36t-55 -88q0 -74 72.5 -126t175.5 -52q107 0 187 67.5t97 172.5q1 6 2 13q-49 3 -100 20t-81.5 33.5t-79.5 45.5q-40 24 -65 37t-61.5 26.5t-69.5 17.5l-46 4q79 55 127 113l70 87q-125 0 -170 1l18 45
q26 0 80 -6q61 -7 95 -7q29 0 66 40l4 -2l-145 -162q-47 -53 -79 -80q35 -7 73.5 -22t64 -28.5t64.5 -36.5q47 -28 76 -43t74.5 -30.5t89.5 -19.5q3 26 8 78q13 125 23 172q-26 -53 -62 -84.5t-73 -31.5q-26 0 -50.5 17.5t-24.5 43.5q0 35 23 94q19 51 19 68q0 9 -5.5 15
t-12.5 6q-12 0 -42 -14l-3 4q42 29 57 29z" />
    <glyph glyph-name="g_y" unicode="gy" horiz-adv-x="697" 
d="M228 122l-1 123h-73q-28 0 -52.5 -44t-24.5 -96q0 -41 17 -68t44 -27q30 0 56.5 33.5t33.5 78.5zM260 124l-25 -114q-2 -4 -2 -11q0 -20 9 -47q80 -2 135.5 -36.5t55.5 -81.5h-44q0 42 -41.5 73t-101.5 35q5 -15 12 -31q28 -65 28 -103q0 -48 -53.5 -82t-128.5 -34
q-42 0 -76.5 13.5t-52.5 36.5q18 -71 95.5 -118.5t179.5 -47.5q107 0 187 67.5t97 172.5q6 34 15 124q13 125 23 172q-26 -53 -62 -84.5t-73 -31.5q-26 0 -50.5 17.5t-24.5 43.5q0 35 23 94q19 51 19 68q0 9 -5.5 15t-12.5 6q-12 0 -42 -14l-3 4q42 29 57 29q17 0 29.5 -9.5
t12.5 -23.5q0 -18 -11 -69q-14 -66 -14 -94q0 -46 25 -46q45 0 86 47t61 119q6 31 11 59l-34 2v5h54q26 0 52 30l2 -1l-58 -169q-6 -35 -14 -135q-9 -113 -17 -158q-18 -113 -113.5 -184.5t-222.5 -71.5q-88 0 -163 29.5t-119 80.5t-44 111q0 69 86.5 118.5t209.5 52.5
q-4 25 -4 43q0 9 1 15l8 58q-33 -72 -95 -72q-45 0 -74.5 31.5t-29.5 79.5q0 62 43.5 107t98.5 45q15 0 49 -2q27 -1 34 -1q44 0 58 23l2 -1zM218 -58q-103 -3 -175.5 -50t-72.5 -113q0 -32 39.5 -54t95.5 -22q55 0 93.5 34t38.5 82q0 25 -11 81q-5 23 -8 42z" />
    <glyph glyph-name="g_g" unicode="gg" horiz-adv-x="635" 
d="M534 122l-1 123h-73q-24 0 -46 -33t-29 -79q-2 -14 -2 -28q0 -41 17 -68t44 -27q30 0 56.5 33.5t33.5 78.5zM260 124l-25 -114q-2 -4 -2 -11q0 -20 9 -47q80 -2 135.5 -36.5t55.5 -81.5h-44q0 42 -41.5 73t-101.5 35q5 -15 12 -31q28 -65 28 -103q0 -46 -56.5 -78.5
t-135.5 -32.5l1 11q59 0 100.5 32.5t41.5 78.5q0 25 -11 81q-5 23 -8 42q-108 -3 -183 -47.5t-75 -105.5q0 -67 82 -113.5t204 -46.5q119 0 203 61.5t84 148.5q0 25 -7 83q-7 52 -7 73q0 9 1 15l8 58q-33 -72 -95 -72q-45 0 -74.5 31.5t-29.5 79.5q0 11 2 21q8 54 49 92.5
t91 38.5q14 0 50 -2q25 -1 33 -1q44 0 58 23l2 -1l-48 -154l-25 -114q-2 -4 -2 -11q0 -20 20 -76q23 -68 23 -95q0 -57 -44.5 -105.5t-121 -76.5t-166.5 -28q-93 0 -172.5 23.5t-125.5 63t-46 86.5q0 65 90.5 111.5t220.5 49.5q-4 25 -4 43q0 9 1 15l8 58q-33 -72 -95 -72
q-45 0 -74.5 31.5t-29.5 79.5q0 62 43.5 107t98.5 45q14 0 48 -2q27 -1 35 -1q44 0 58 23l2 -1zM228 122l-1 123h-73q-28 0 -52.5 -44t-24.5 -96q0 -41 17 -68t44 -27q30 0 56.5 33.5t33.5 78.5z" />
    <glyph glyph-name="E_s" unicode="Es" horiz-adv-x="683" 
d="M20 -3l2 20q15 -3 46 -3q8 35 25 159l31 356l-69 4v7h195l191 9l-20 -120h-7l8 84l-175 13h-67v-2l20 -3l-34 -200h34l100 5l17 75h7q-5 -53 -10 -89q-4 -34 -16 -97h-7l5 84l-78 8h-54l-23 -133q-14 -95 -18 -160h82l55 4q20 41 57.5 65.5t82.5 24.5q60 0 91 -48l-13 -7
q-25 42 -74 45l-19 -157l-10 1l1 49l-114 6q-9 -25 -9 -52q0 -63 55.5 -108t134.5 -45q80 0 136 52t56 125q0 52 -29.5 86.5t-74.5 51.5q-24 9 -38.5 15.5t-33.5 18t-29 26t-10 31.5q0 30 32.5 45.5t77.5 15.5q14 0 41 -6q20 -5 27 -5q18 0 27.5 8.5t15.5 23.5l4 -2l-29 -74
l-3 1q-51 40 -84 40q-25 0 -43.5 -10t-18.5 -28q0 -21 61 -43q144 -52 144 -185q0 -83 -68 -142t-163 -59q-82 0 -140 48.5t-58 116.5q0 28 9 55l-48 2q-129 0 -184 -3zM397 98q-40 0 -73.5 -22t-52.5 -57l113 8z" />
    <glyph glyph-name="k_o.lfin" unicode="k&#xe020;" horiz-adv-x="899" 
d="M503 248q-25 0 -42 -18t-17 -43q0 -47 32 -82t80 -42q22 39 22 87q0 41 -22 69.5t-53 28.5zM594 52q-50 -56 -125 -56q-53 0 -89 29.5t-36 75.5q0 44 36 98q6 0 15.5 -6.5t9.5 -12.5q-10 -24 -10 -75q0 -42 25 -68.5t60 -26.5q41 0 70 44q-50 9 -83 46t-33 86q0 32 23 55
t56 23q52 0 86 -31.5t34 -78.5q0 -50 -31 -91q69 8 115.5 52t46.5 104q0 39 -21 67t-50 28q-18 0 -30.5 -18t-12.5 -43l-17 -4q0 31 17.5 53t42.5 22q33 0 57 -31t24 -74q0 -65 -52 -113.5t-128 -53.5zM139 150h76q0 -131 80.5 -224.5t194.5 -93.5q102 0 188.5 47.5
t137 129.5t50.5 178q0 146 -109 249t-263 103q-61 0 -104.5 -28.5t-43.5 -68.5l-13 -1q0 49 48 83.5t116 34.5q156 0 266.5 -109t110.5 -263q0 -104 -52 -192.5t-141.5 -140t-195.5 -51.5q-86 0 -158.5 44.5t-114.5 121.5t-42 167h-46q-20 -19 -31 -29l-9 -7
q-11 -67 -13 -103l-53 -1q11 27 28 126l44 376l-64 2v5h72q35 0 64 33l2 -1l-76 -413q-1 -5 -1 -8l149 139q10 1 37 2l52 1l-2 -35h-22q-44 0 -72.5 -10t-59.5 -35q-13 -12 -30 -28z" />
    <glyph glyph-name="k_t.lfin" unicode="k&#xe025;" horiz-adv-x="878" 
d="M71 -3l-53 -1q11 27 28 126l44 376l-64 2v5h72q35 0 64 33l2 -1l-76 -413q-1 -5 -1 -8l149 139q10 1 37 2l52 1l-2 -35h-22q-44 0 -72.5 -10t-59.5 -35q-13 -12 -30 -28h76q0 -88 35.5 -162t96.5 -117.5t133 -43.5q99 0 183.5 48.5t133.5 131t49 180.5q0 50 -14 97
q-68 -50 -163 -50h-184q-21 -62 -29 -105q-7 -39 -7 -62q0 -40 29.5 -68t70.5 -28q55 0 93 34t38 82q0 33 -22.5 56.5t-53.5 23.5q-35 0 -59 -24l-12 6q29 28 71 28q36 0 61 -26.5t25 -63.5q0 -56 -42.5 -95.5t-103.5 -39.5q-57 0 -98 32q-40 32 -40 78q0 22 7 66l18 106
h-67l3 14l67 2l23 104q7 32 73 32h14h2q-14 -21 -56 -136l184 4q89 2 153 45q-38 106 -135 173t-218 67q-61 0 -104.5 -28.5t-43.5 -68.5l-13 -1q0 49 48 83.5t116 34.5q123 0 221.5 -71t136.5 -183q61 46 61 109q0 32 -25 48l3 4q31 -22 31 -51q0 -73 -66 -125
q15 -50 15 -103q0 -105 -50.5 -195t-138 -142t-190.5 -52q-83 0 -153 45.5t-111 123t-41 169.5h-46q-20 -19 -31 -29l-9 -7q-11 -67 -13 -103z" />
    <glyph glyph-name="k_i.lfin" unicode="k&#xe01a;" horiz-adv-x="879" 
d="M452 357l3 24q2 18 10 25.5t22 7.5h44l-5 -35q-1 -10 -10 -16t-20 -6h-44zM526 166q29 28 71 28q36 0 60.5 -26.5t24.5 -63.5q0 -56 -42 -95.5t-103 -39.5q-54 0 -90.5 34.5t-36.5 83.5q0 18 2 35l8 102l-53 6v5h67q35 1 68 44l2 -1l-49 -155q-5 -16 -5 -39
q0 -40 26.5 -68t65.5 -28q55 0 92.5 34t37.5 82q0 33 -22 56.5t-53 23.5q-35 0 -59 -24zM71 -3l-53 -1q11 27 28 126l44 376l-64 2v5h72q35 0 64 33l2 -1l-76 -413q-1 -5 -1 -8l149 139q10 1 37 2l52 1l-2 -35h-22q-44 0 -72.5 -10t-59.5 -35q-13 -12 -30 -28h76
q0 -88 35.5 -162t96.5 -117.5t133 -43.5q99 0 183.5 48.5t133.5 131t49 180.5q0 146 -109 249t-263 103q-61 0 -104.5 -28.5t-43.5 -68.5l-13 -1q0 49 48 83.5t116 34.5q156 0 266.5 -109t110.5 -263q0 -105 -50.5 -195t-138 -142t-190.5 -52q-83 0 -153 45.5t-111 123
t-41 169.5h-46q-20 -19 -31 -29l-9 -7q-11 -67 -13 -103z" />
    <glyph glyph-name="l_a.lfin" unicode="l&#xe012;" horiz-adv-x="921" 
d="M42 122l36 301q1 7 0 13q0 28 -14 44.5t-35 19.5v5h59q37 0 113 17q161 37 262 37q118 0 218 -54.5t158 -149t58 -205.5q0 -100 -42.5 -191t-114 -156.5t-170.5 -104.5t-207 -39q-132 0 -238.5 75.5t-149.5 196.5l10 7q43 -115 147.5 -187t234.5 -72q106 0 202.5 37
t166.5 100.5t111.5 150.5t41.5 183q0 105 -57.5 193.5t-157 140t-216.5 51.5q-114 0 -263 -25q-56 -10 -91 -12l-1 -1q30 -13 31 -58q0 -10 -2 -21q-21 -110 -39 -223.5t-18 -143.5q1 -20 4 -28t14 -8q29 0 100 52l3 -3q-88 -68 -116 -68q-19 0 -32.5 12.5t-14.5 35.5
q0 28 9 78zM430 122l13 113q-9 0 -28 2q-25 3 -39 3q-38 0 -65 -40.5t-27 -104.5q0 -86 57 -86q30 0 56 34t33 79zM479 109q1 -53 36.5 -90.5t85.5 -37.5q68 0 115.5 44.5t47.5 106.5q0 48 -29.5 81.5t-70.5 33.5q-16 0 -31 -5l-4 10q17 5 35 5q46 0 78 -36.5t32 -88.5
q0 -70 -52 -120t-126 -50q-56 0 -97.5 35.5t-47.5 89.5h-1q-16 -39 -49.5 -65t-70.5 -26q-42 0 -70.5 32.5t-28.5 79.5q0 65 42 106t105 41q14 0 44 -6q23 -4 31 -4q33 0 44.5 7.5t18.5 26.5l3 -1z" />
    <glyph glyph-name="n_a.lfin" unicode="n&#xe012;" horiz-adv-x="1063" 
d="M87 0l-54 -4q9 23 27 126v109l-49 2v5h50q13 0 22 6.5t12 10.5t10 17l2 -1l-4 -144q23 64 59 101.5t80 37.5q32 0 54 -19t22 -48q0 -16 -15 -63q-27 -84 -27 -133q0 -105 93.5 -179.5t225.5 -74.5q125 0 231.5 56.5t168.5 153.5t62 211q0 162 -125 277t-302 115
q-201 0 -268 -115l-13 3q39 67 113 99.5t169 32.5q118 0 218 -55t158 -150t58 -207q0 -89 -37.5 -170t-101 -139.5t-151.5 -93t-185 -34.5q-95 0 -176 37t-128 101t-47 139q0 45 17 133q8 46 8 59q0 20 -7 32t-18 12q-53 0 -93 -60t-55 -151q-4 -33 -4 -35zM381 108
q0 65 42 106t105 41q14 0 45 -6q22 -4 30 -4q33 0 44.5 7.5t18.5 26.5l3 -1l-40 -169q1 -53 36.5 -90.5t85.5 -37.5q68 0 115.5 44.5t47.5 106.5q0 48 -29.5 81.5t-70.5 33.5q-16 0 -31 -5l-4 10q17 5 35 5q46 0 78 -36.5t32 -88.5q0 -70 -52 -120t-126 -50
q-56 0 -97.5 35.5t-47.5 89.5h-1q-16 -39 -49.5 -65t-70.5 -26q-42 0 -70.5 32.5t-28.5 79.5zM491 9q30 0 56 34t33 79l13 113q-9 0 -27 2q-25 3 -40 3q-38 0 -65 -40.5t-27 -104.5q0 -86 57 -86z" />
    <glyph glyph-name="k_a.lfin" unicode="k&#xe012;" horiz-adv-x="1107" 
d="M71 -3l-53 -1q11 27 28 126l44 376l-64 2v5h72q35 0 64 33l2 -1l-76 -413q-1 -5 -1 -8l149 139q10 1 37 2l52 1l-2 -35h-22q-44 0 -72.5 -10t-59.5 -35l-20 -18h50q34 -93 81.5 -170.5t107 -136t132.5 -91.5t152 -33q117 0 213.5 53.5t151.5 144t55 198.5
q0 101 -50 186.5t-135.5 135.5t-186.5 50q-61 0 -105 -28.5t-44 -68.5l-13 -1q0 49 48 83.5t117 34.5q102 0 189 -52.5t137.5 -143t50.5 -196.5q0 -113 -61.5 -209.5t-165.5 -152t-225 -55.5q-82 0 -158 33t-138 93t-111.5 139t-84.5 173h-21q-35 -34 -42 -39l-9 -7
q-11 -67 -13 -103zM549 122l13 113q-9 0 -28 2q-24 3 -39 3q-38 0 -65 -40.5t-27 -104.5q0 -86 57 -86q30 0 56 34t33 79zM598 109q1 -55 36.5 -94t85.5 -39q70 0 119 47.5t49 113.5q0 48 -29.5 81.5t-70.5 33.5q-16 0 -31 -5l-4 10q17 5 35 5q46 0 78 -36.5t32 -88.5
q0 -75 -53.5 -127.5t-129.5 -52.5q-56 0 -97.5 37t-47.5 93h-1q-16 -39 -49.5 -65t-70.5 -26q-42 0 -70.5 32.5t-28.5 79.5q0 65 42 106t105 41q14 0 45 -6q22 -4 30 -4q33 0 44.5 7.5t18.5 26.5l3 -1z" />
    <glyph glyph-name="z_y.lfin" unicode="&#x7a;&#xe02a;" horiz-adv-x="877" 
d="M580 109q-6 -35 -14 -135q-6 -76 -11 -112q134 8 227 113t93 250q0 136 -103 232t-249 96q-86 0 -146.5 -48.5t-60.5 -117.5l-17 -4q0 75 65.5 127.5t158.5 52.5q149 0 254.5 -99t105.5 -239q0 -104 -44 -193t-120.5 -143t-167.5 -60q-1 -7 -2 -13
q-18 -113 -113.5 -184.5t-222.5 -71.5q-107 0 -183 56q-75 58 -75 138q0 67 61 114q60 48 145 48l-6 -38q-77 0 -132 -36t-55 -88q0 -74 72.5 -126t175.5 -52q107 0 187 67.5t97 172.5q1 6 2 13q-49 3 -100 20t-81.5 33.5t-79.5 45.5q-40 24 -65 37t-61.5 26.5t-69.5 17.5
l-46 4q79 55 127 113l70 87q-125 0 -170 1l18 45q26 0 80 -6q61 -7 95 -7q29 0 66 40l4 -2l-145 -162q-47 -53 -79 -80q35 -7 73.5 -22t64 -28.5t64.5 -36.5q47 -28 76 -43t74.5 -30.5t89.5 -19.5q3 26 8 78q13 125 23 172q-26 -53 -62 -84.5t-73 -31.5q-26 0 -50.5 17.5
t-24.5 43.5q0 35 23 94q19 51 19 68q0 9 -5.5 15t-12.5 6q-12 0 -42 -14l-3 4q42 29 57 29q17 0 29.5 -9.5t12.5 -23.5q0 -18 -11 -69q-14 -66 -14 -94q0 -46 25 -46q45 0 86 47t61 119q6 31 11 59l-34 2v5h54q26 0 52 30l2 -1z" />
    <glyph glyph-name="G_l_u_k.lfin" unicode="Glu&#xe01c;" horiz-adv-x="2025" 
d="M420 272h116q24 0 54.5 12t38.5 28l2 -1l-53 -227l-8 -70v-6q0 -20 17 -81q24 -83 24 -119q0 -84 -79 -143t-191 -59q-128 0 -219 62.5t-91 151.5q0 84 46 125.5t120 41.5q86 0 174 -51l48 -28l-7 -12l-49 29q-77 44 -150 44q-61 0 -99 -36t-38 -113q0 -83 78.5 -141.5
t188.5 -58.5q88 0 150 57t62 138q0 29 -10 97q-10 62 -10 86q0 9 1 16l9 71l-4 1q-19 -37 -53.5 -64t-70.5 -27q-75 0 -129.5 68.5t-54.5 167.5q0 84 33 157t87.5 115t116.5 42q19 0 52 -9q21 -6 28 -6q35 0 51 45l4 -1l-32 -106l-2 1q-23 19 -56.5 38.5t-57.5 19.5
q-44 0 -82.5 -44t-60 -113.5t-21.5 -145.5q0 -90 36.5 -148t97.5 -58q41 0 75 34.5t39 75.5l2 130h-123v14zM1309 -3l-53 -1q11 27 28 126l44 376l-64 2v5h72q35 0 64 33l2 -1l-76 -413q-1 -5 -1 -8l149 139q10 1 37 2l52 1l-2 -35h-22q-44 0 -72.5 -10t-59.5 -35l-17 -16
q-5 -5 -13 -12h76q0 -76 37.5 -139.5t99.5 -97.5q114 127 114 287q0 105 -62 193.5t-168 140t-231 51.5q-51 0 -111.5 -8.5t-99 -17.5t-101.5 -25q-114 -29 -169 -36l-1 -1q30 -14 31 -58q0 -10 -2 -20q-21 -110 -39 -224t-18 -144q0 -36 18 -36q29 0 100 52l3 -3
q-88 -68 -116 -68q-20 0 -33.5 12.5t-13.5 35.5q0 28 9 78l36 310q0 4 1 7q0 23 -14 40.5t-36 20.5v5h59q45 0 181 41q65 20 106 30.5t103 21.5t112 11q126 0 232.5 -54.5t169 -149t62.5 -205.5q0 -162 -111 -293q51 -25 107 -25q87 0 161 41.5t117 113t43 155.5
q0 113 -79.5 192.5t-192.5 79.5q-45 0 -82 -16l-9 15q42 21 94 21q115 0 196 -85.5t81 -206.5q0 -92 -44.5 -170t-121.5 -123.5t-168 -45.5q-67 0 -127 28q-79 -81 -190.5 -126.5t-237.5 -45.5q-149 0 -271.5 61.5t-183.5 162.5l11 8q61 -96 182 -154t266 -58q121 0 228 42
t184 116q-71 36 -113.5 102.5t-42.5 146.5h-46q-19 -19 -31 -29l-9 -7q-11 -67 -13 -103zM861 230q42 29 62 29q19 0 27.5 -11t8.5 -40q0 -27 -8 -75l-9 -53q-4 -20 -4 -33q0 -32 27 -32q47 0 83 55.5t51 140.5l6 37l-35 2v5h55q27 0 44 2l2 -1l-42 -133q-9 -53 -9 -74
q0 -17 5 -25.5t17 -8.5q27 0 98 52l3 -3q-93 -68 -120 -68q-43 0 -43 66q0 24 5 57q-22 -57 -54 -90t-70 -33q-28 0 -51.5 17t-23.5 45q0 12 16 71q21 72 21 91q0 20 -19 20q-14 0 -39 -14z" />
    <glyph glyph-name="z_a.lfin" unicode="&#x7a;&#xe012;" horiz-adv-x="1098" 
d="M-1 13q88 66 127 114l70 86l-170 1l18 45q26 0 79 -6q62 -7 96 -7q29 0 66 40l4 -2l-145 -162q-50 -56 -76 -78q42 -11 91.5 -32t84.5 -40t90 -50.5t89 -49.5t82 -39.5t90.5 -31.5t82.5 -10q171 0 292 116.5t121 279.5q0 164 -111 280t-267 116q-86 0 -146.5 -48.5
t-60.5 -117.5l-17 -4q0 75 65.5 127.5t158.5 52.5q160 0 273 -119t113 -287q0 -180 -125 -307t-302 -127q-50 0 -101.5 12.5t-107.5 39t-92.5 47.5t-95.5 56q-55 34 -87 52t-73 34.5t-70 17.5zM499 122l13 113q-9 0 -29 2q-23 3 -38 3q-38 0 -65 -40.5t-27 -104.5
q0 -86 57 -86q30 0 56 34t33 79zM548 109q1 -55 36.5 -94t85.5 -39q70 0 119 47.5t49 113.5q0 48 -29.5 81.5t-70.5 33.5q-16 0 -31 -5l-4 10q17 5 35 5q46 0 78 -36.5t32 -88.5q0 -75 -53.5 -127.5t-129.5 -52.5q-56 0 -97.5 37t-47.5 93h-1q-16 -39 -49.5 -65t-70.5 -26
q-42 0 -70.5 32.5t-28.5 79.5q0 65 42 106t105 41q14 0 46 -6q21 -4 29 -4q33 0 44.5 7.5t18.5 26.5l3 -1z" />
    <glyph glyph-name="h_e.lfin" unicode="h&#xe016;" horiz-adv-x="933" 
d="M70 0l-54 -1q10 25 27 123l44 376l-62 2v5h59q20 0 44.5 10.5t31.5 22.5l2 -1l-58 -308l-15 -95q24 61 59 96.5t77 35.5q32 0 54 -19t22 -48q0 -16 -15 -63q-27 -85 -27 -133q0 -93 76 -158.5t183 -65.5q112 0 207 58t150 157t55 216q0 137 -110.5 234.5t-266.5 97.5
q-79 0 -141.5 -28.5t-96.5 -86.5l-13 3q37 65 103.5 98.5t148.5 33.5q159 0 271.5 -103t112.5 -249q0 -120 -57 -222t-154.5 -161t-213.5 -59q-120 0 -205.5 71t-85.5 171q0 45 16 132q9 46 9 60q0 20 -7 32t-18 12q-53 0 -93 -60t-55 -151q-4 -32 -4 -35zM420 100
q66 2 106.5 27.5t40.5 63.5q0 22 -17 38t-40 16q-42 0 -66 -38t-24 -102v-5zM693 286l6 7q59 -35 60 -103q0 -85 -65.5 -145.5t-157.5 -60.5q-71 0 -121.5 34.5t-50.5 82.5q0 65 46 111.5t111 46.5q41 0 71.5 -19t30.5 -45q0 -42 -60 -70.5t-142 -30.5q5 -38 38 -64t77 -26
q88 0 150.5 54.5t62.5 131.5q0 64 -56 96z" />
    <glyph glyph-name="k_y.lfin" unicode="k&#xe02a;" horiz-adv-x="1107" 
d="M71 -3l-53 -1q11 27 28 126l44 376l-64 2v5h72q35 0 64 33l2 -1l-76 -413q-1 -5 -1 -8l149 139q10 1 37 2l52 1l-2 -35h-22q-44 0 -72.5 -10t-59.5 -35l-20 -18h50q54 -148 141.5 -255.5t198.5 -150.5q12 30 17 62q6 34 15 124q13 125 23 172q-26 -53 -62 -84.5
t-73 -31.5q-26 0 -50.5 17.5t-24.5 43.5q0 35 23 94q19 51 19 68q0 9 -5.5 15t-12.5 6q-12 0 -42 -14l-3 4q42 29 57 29q17 0 29.5 -9.5t12.5 -23.5q0 -18 -11 -69q-14 -66 -14 -94q0 -46 25 -46q45 0 86 47t61 119q6 31 11 59l-34 2v5h54q26 0 52 30l2 -1l-58 -169
q-6 -35 -14 -135q-9 -113 -17 -158q-6 -40 -24 -76q44 -11 91 -11q117 0 213.5 53.5t151.5 144t55 198.5q0 101 -50 186.5t-135.5 135.5t-186.5 50q-61 0 -105 -28.5t-44 -68.5l-13 -1q0 49 48 83.5t117 34.5q102 0 189 -52.5t137.5 -143t50.5 -196.5q0 -113 -61.5 -209.5
t-165.5 -152t-225 -55.5q-41 0 -80 8q-44 -72 -123.5 -114t-175.5 -42q-109 0 -186 58t-77 140q0 67 60.5 114.5t145.5 47.5l-6 -36q-77 0 -132 -36t-55 -88q0 -76 74 -130t179 -54q82 0 150 41t104 110q-121 40 -217 151.5t-153 267.5h-21q-35 -34 -42 -39l-9 -7
q-11 -67 -13 -103z" />
    <glyph glyph-name="s_s" unicode="ss" horiz-adv-x="552" 
d="M343 -18q0 32 -20.5 55t-51.5 26q5 -16 5 -34q0 -41 -38.5 -71t-95.5 -34q4 -55 53.5 -93.5t117.5 -38.5q78 0 132.5 50.5t54.5 121.5q0 89 -97 136q-23 11 -36 18.5t-31 20t-27 27.5t-9 32q0 30 28 45.5t72 15.5q14 0 40 -6q20 -5 27 -5q18 0 27.5 8.5t15.5 23.5l4 -2
l-29 -74l-3 1q-51 40 -83 40q-25 0 -43.5 -10t-18.5 -28q0 -21 63 -50q66 -31 101.5 -73.5t35.5 -109.5q0 -81 -66.5 -138.5t-159.5 -57.5q-72 0 -124 42t-56 103h-7q-56 0 -95.5 28.5t-39.5 69.5q0 30 22.5 51t53.5 21t53 -22.5t22 -53.5l-15 -2q0 28 -18 48t-43 20
q-27 0 -46 -17.5t-19 -42.5q0 -35 37 -60.5t90 -25.5h5q2 44 27 79t64 49q-22 28 -71 46q-18 7 -29 11.5t-26.5 13t-24 16.5t-15 20t-6.5 26q0 30 28 45.5t72 15.5q14 0 37 -6q18 -5 26 -5q18 0 27.5 8.5t15.5 23.5l4 -2l-29 -74l-3 1q-51 40 -79 40q-25 0 -43.5 -10
t-18.5 -28q0 -12 14.5 -19.5t46.5 -19.5q96 -35 120 -95q40 0 68.5 -27.5t28.5 -65.5q0 -12 -8.5 -20.5t-20.5 -8.5q7 14 7 31zM227 57q-37 -13 -60.5 -45.5t-25.5 -73.5q41 4 68.5 27t27.5 54q0 21 -10 38z" />
    <glyph glyph-name="x_s" unicode="xs" horiz-adv-x="628" 
d="M74 -5l-72 8q88 68 139 123l15 16q-28 48 -50.5 75.5t-42.5 27.5t-44 -12l-2 4q45 29 62 29q21 0 43.5 -26.5t52.5 -76.5l73 79l-45 2l-1 5h79q33 0 72 37l4 -2l-164 -151q31 -51 52 -79q45 44 107 44q29 0 53 -13t38 -35l-13 -7q-12 20 -33 32.5t-46 12.5
q-58 0 -100 -42q81 -106 163 -106q59 0 120 54l4 -5q-82 -81 -151 -81q-80 0 -158 111q-23 -37 -23 -81q0 -60 53.5 -103t128.5 -43q80 0 136 52t56 125q0 52 -29.5 86.5t-74.5 51.5t-73 37.5t-28 53.5q0 30 28 45.5t72 15.5q15 0 41 -6q20 -5 27 -5q18 0 27.5 8.5
t15.5 23.5l4 -2l-29 -74l-3 1q-51 40 -84 40q-25 0 -43.5 -10t-18.5 -28q0 -21 61 -43q144 -52 144 -185q0 -83 -68 -142t-163 -59q-78 0 -134 46.5t-56 111.5q0 50 27 91q-20 29 -51 86q-83 -77 -98 -118z" />
    <glyph glyph-name="k_sacute" unicode="k&#x15b;" horiz-adv-x="628" 
d="M483 338l72 101q5 7 14 7q7 0 12 -4l37 -34l-2 -2q-73 -9 -124 -76zM430 43q-12 20 -33 32.5t-46 12.5q-56 0 -97 -39q59 -86 132 -86q81 0 145 46l2 -4q-82 -66 -171 -66q-75 0 -135 76q-20 -36 -21 -77q0 -60 53.5 -103t128.5 -43q80 0 136 52t56 125q0 52 -26.5 82.5
t-72.5 51.5q-23 10 -36 17.5t-30.5 19.5t-26 26.5t-8.5 31.5q0 30 28 45.5t72 15.5q14 0 38 -7q17 -4 25 -4q18 0 27.5 8.5t15.5 23.5l4 -2l-29 -74l-3 1q-51 40 -79 40q-25 0 -43.5 -10t-18.5 -28q0 -19 63 -47q32 -14 53.5 -27.5t42.5 -34.5t31 -50.5t10 -68.5
q0 -83 -68 -142t-163 -59q-78 0 -134 46.5t-56 111.5q0 47 25 87q-37 50 -65 123h-21q-35 -34 -42 -39l-9 -7q-11 -67 -13 -103l-53 -1q11 27 28 126l44 376l-64 2v5h72q35 0 64 33l2 -1l-76 -413q-1 -5 -1 -8l149 139q10 1 37 2l52 1l-2 -35h-22q-44 0 -72.5 -10t-59.5 -35
l-20 -18h50q22 -60 50 -103q44 41 103 41q29 0 53 -13t38 -35z" />
    <glyph glyph-name="k_s" unicode="ks" horiz-adv-x="628" 
d="M430 43q-12 20 -33 32.5t-46 12.5q-56 0 -97 -39q59 -86 132 -86q81 0 145 46l2 -4q-82 -66 -171 -66q-75 0 -135 76q-20 -36 -21 -77q0 -60 53.5 -103t128.5 -43q80 0 136 52t56 125q0 52 -26.5 82.5t-72.5 51.5q-23 10 -36 17.5t-30.5 19.5t-26 26.5t-8.5 31.5
q0 30 28 45.5t72 15.5q14 0 38 -7q17 -4 25 -4q18 0 27.5 8.5t15.5 23.5l4 -2l-29 -74l-3 1q-51 40 -79 40q-25 0 -43.5 -10t-18.5 -28q0 -19 63 -47q32 -14 53.5 -27.5t42.5 -34.5t31 -50.5t10 -68.5q0 -83 -68 -142t-163 -59q-78 0 -134 46.5t-56 111.5q0 47 25 87
q-37 50 -65 123h-21q-35 -34 -42 -39l-9 -7q-11 -67 -13 -103l-53 -1q11 27 28 126l44 376l-64 2v5h72q35 0 64 33l2 -1l-76 -413q-1 -5 -1 -8l149 139q10 1 37 2l52 1l-2 -35h-22q-44 0 -72.5 -10t-59.5 -35l-20 -18h50q22 -60 50 -103q44 41 103 41q29 0 53 -13t38 -35z
" />
    <glyph glyph-name="k_g" unicode="kg" horiz-adv-x="687" 
d="M71 -3l-53 -1q11 27 28 126l44 376l-64 2v5h72q35 0 64 33l2 -1l-76 -413q-1 -5 -1 -8l149 139q10 1 37 2l53 1v-35h-25q-46 0 -77.5 -11.5t-64.5 -42.5h33q3 -64 25.5 -107t50.5 -43q35 0 84 41l4 -3q-70 -59 -113 -59q-39 0 -69 44t-32 111q-27 -27 -49 -46l-9 -7
q-11 -67 -13 -103zM586 122l-1 123h-73q-28 0 -52.5 -44t-24.5 -96q0 -41 17 -68t44 -27q30 0 56.5 33.5t33.5 78.5zM575 -60q-71 -17 -124 -34t-102 -39.5t-75 -50t-26 -59.5q0 -51 39.5 -87.5t95.5 -36.5q84 0 143 54.5t59 132.5q0 26 -7 92q-1 12 -3 28zM619 124
l-26 -114q-2 -7 -2 -11q0 -14 7 -42l51 13l2 -11l-50 -12q5 -17 10 -35q22 -75 23 -104q0 -77 -74 -131.5t-178 -54.5q-78 0 -133 40.5t-55 97.5q0 22 14 42.5t42.5 38t60 31.5t79.5 29t87.5 25.5t96.5 24.5q-3 28 -3 43q0 10 1 16l8 58q-33 -72 -95 -72q-43 0 -67.5 29.5
t-24.5 76.5q0 65 38 111t92 46q14 0 50 -2q25 -1 33 -1q44 0 58 23l2 -1z" />
    <glyph glyph-name="c_s" unicode="cs" horiz-adv-x="572" 
d="M302 27l5 -5q-71 -62 -135 -69q0 -5 -1 -10q0 -62 50.5 -106.5t121.5 -44.5q74 0 125.5 50.5t51.5 121.5q0 89 -97 136q-23 11 -36 18.5t-31 20t-27 27.5t-9 32q0 30 28 45.5t72 15.5q14 0 41 -7q18 -4 26 -4q18 0 27.5 8.5t15.5 23.5l4 -2l-29 -74l-3 1q-51 40 -83 40
q-25 0 -43.5 -10t-18.5 -28q0 -21 63 -50q66 -31 101.5 -73.5t35.5 -109.5q0 -81 -63.5 -138.5t-152.5 -57.5q-74 0 -127 48t-53 115q0 6 1 11h-10q-53 0 -90.5 43.5t-37.5 105.5q0 71 40 114.5t102 43.5q10 0 28 -6q16 -5 25 -5q31 0 44 32l4 -1l-30 -82l-2 1
q-50 42 -80 42t-53 -39.5t-23 -95.5q0 -54 24.5 -92.5t58.5 -38.5h3q10 50 45.5 83t82.5 33q41 0 70 -30.5t29 -72.5l-15 -2q0 39 -25 67t-60 28q-42 0 -75 -30t-42 -76q68 4 127 53z" />
    <glyph glyph-name="e_s" unicode="es" horiz-adv-x="597" 
d="M320 7l5 -5q-60 -48 -119 -58v-1q0 -63 47.5 -104.5t119.5 -41.5q74 0 123 48t49 119q0 89 -97 136q-23 11 -36 18.5t-31 20t-27 27.5t-9 32q0 30 28 45.5t72 15.5q15 0 41 -6q19 -5 26 -5q18 0 27.5 8.5t15.5 23.5l4 -2l-29 -74l-3 1q-51 40 -83 40q-25 0 -43.5 -10
t-18.5 -28q0 -21 63 -50q66 -31 101.5 -73.5t35.5 -109.5q0 -81 -61 -136t-150 -55q-75 0 -125 45t-50 113v2q-10 -1 -19 -1q-63 0 -108 46.5t-45 112.5q0 65 46 111.5t111 46.5q41 0 71.5 -19t30.5 -45q0 -42 -60 -70.5t-143 -30.5q3 -55 34 -92.5t73 -37.5h11q7 54 44 90
t86 36q41 0 70 -30.5t29 -72.5l-15 -2q0 39 -25 67t-60 28q-44 0 -78 -33t-41 -82q61 5 112 42zM80 100q66 2 106.5 27t40.5 64q0 22 -17 38t-40 16q-42 0 -66 -38t-24 -102v-5z" />
    <glyph glyph-name="A_s" unicode="As" horiz-adv-x="908" 
d="M685 43q-12 20 -33 32.5t-46 12.5q-54 0 -95 -36q10 -60 41.5 -91t74.5 -31q61 0 122 54l4 -5q-75 -75 -148 -75q-42 0 -74.5 27.5t-50.5 82.5q-18 -33 -19 -71q0 -62 57.5 -106.5t139.5 -44.5q84 0 143 52t59 125q0 52 -29.5 86.5t-74.5 51.5q-24 9 -38.5 15.5t-33.5 18
t-29 26t-10 31.5q0 30 32.5 45.5t77.5 15.5q14 0 41 -6q19 -5 27 -5q18 0 27.5 8.5t15.5 23.5l4 -2l-29 -74l-3 1q-51 40 -84 40q-25 0 -43.5 -10t-18.5 -28q0 -21 61 -43q144 -52 144 -185q0 -83 -70.5 -142t-170.5 -59q-85 0 -145 48t-60 115q0 46 25 85q-9 30 -13 67
l-10 94h-219l-14 -30q-43 -97 -45 -164l-50 -4q20 33 78 167l14 31h-68l6 14h68l145 328l16 -4l-144 -324h212l-31 328l-186 4h-58q-35 0 -59.5 -24.5t-24.5 -59.5q0 -28 25.5 -48t61.5 -20q21 0 39 8q0 -20 -13.5 -34t-33.5 -14q-37 0 -63 32t-26 77q0 37 28.5 63.5
t67.5 26.5l318 1l7 -340h68l-4 -14h-64l3 -91q0 -17 2 -33q43 35 98 35q29 0 53 -13t38 -35z" />
    <glyph glyph-name="f_f" unicode="ff" horiz-adv-x="442" 
d="M-13 -285l86 470h-53l2 14h52l2 10q1 5 1 7q0 12 -9 38q-19 56 -19 103q0 101 80.5 172t194.5 71q76 0 129.5 -45t53.5 -108q0 -43 -36 -77l-47 23q52 25 52 53q0 22 -16 37.5t-38 15.5q-45 0 -77.5 -43t-32.5 -103q0 -41 10 -89q5 -27 5 -41q0 -9 -1 -13l-2 -10l104 2
l-3 -17h-103l-59 -388q-13 -85 -70.5 -141.5t-134.5 -56.5q-25 0 -49 16l8 11q21 -16 43 -16q55 0 96 53t56 133l71 389h-171l-48 -319q-13 -83 -73 -152zM479 494q-17 43 -60 69.5t-97 26.5q-91 0 -155.5 -69.5t-64.5 -167.5q0 -41 10 -89q5 -28 5 -41q0 -9 -1 -13l-2 -10
h171l1 7q1 7 1 9q0 12 -9 38q-19 56 -19 103q0 62 48.5 107t116.5 45q32 0 55 -15z" />
    <glyph glyph-name="f_i" unicode="fi" horiz-adv-x="458" 
d="M344 361l4 19q5 31 29 31h19v8q0 47 -42 82t-102 35q-62 0 -106 -53.5t-44 -129.5q0 -41 10 -89q5 -27 5 -41q0 -9 -1 -13l-2 -10l104 2l-3 -17h-103l-74 -488l-55 -2q24 142 90 490h-53l2 14h52l2 10q1 5 1 7q0 12 -9 39q-19 55 -19 102q0 79 60 135.5t145 56.5
q69 0 117.5 -38t48.5 -88q0 -6 -1 -12l-6 -32q-4 -18 -28 -18h-41zM301 122l8 102l-53 6v5h67q35 1 68 44l2 -1l-49 -155q-9 -54 -9 -72t5.5 -23.5t22.5 -5.5q39 0 101 45l3 -3q-93 -68 -133 -68q-42 0 -42 48q0 28 9 78z" />
    <glyph glyph-name="f_l" unicode="fl" horiz-adv-x="458" 
d="M73 185h-43l2 14h42q3 9 3 18q0 15 -16 46q-27 54 -27 99q0 60 44 103.5t106 43.5q32 0 54.5 -17.5t22.5 -41.5q0 -43 -36 -77l-46 23q52 27 52 53q0 20 -14.5 35t-34.5 15q-39 0 -67 -41.5t-28 -99.5q0 -40 17 -90q11 -33 11 -50q0 -6 -1 -18l134 2l-3 -17h-133
l-74 -488l-55 -2q54 284 90 490zM309 122l44 376l-57 2v5h59q20 0 35.5 5.5t22 11t15.5 16.5l2 -1q-25 -112 -56.5 -281t-31.5 -205t18 -36q29 0 100 52l3 -3q-87 -68 -116 -68q-20 0 -33.5 12.5t-13.5 35.5q0 28 9 78z" />
    <glyph glyph-name="f_f_i" unicode="ffi" horiz-adv-x="668" 
d="M554 361l4 19q5 31 29 31h19v8q0 47 -42 82t-102 35q-62 0 -106 -53.5t-44 -129.5q0 -41 10 -89q5 -27 5 -41q0 -8 -1 -13l-2 -10l104 2l-3 -17h-103l-59 -388q-13 -85 -70.5 -141.5t-134.5 -56.5q-25 0 -49 16l8 11q21 -16 43 -16q55 0 96 53t56 133l71 389h-171
l-48 -319q-13 -83 -73 -152l-4 1l86 470h-53l2 14h52l2 10q1 5 1 8q0 12 -9 39q-19 55 -19 101q0 105 92.5 179t222.5 74q110 0 188 -54.5t78 -132.5q0 -6 -1 -12l-6 -32q-4 -18 -28 -18h-41zM511 122l8 102l-53 6v5h67q35 1 68 44l2 -1l-49 -155q-9 -54 -9 -72t5.5 -23.5
t22.5 -5.5q39 0 101 45l3 -3q-93 -68 -133 -68q-42 0 -42 48q0 28 9 78zM589 505q-32 43 -93 69t-134 26q-108 0 -184 -72.5t-76 -174.5q0 -41 10 -89q5 -27 5 -41q0 -9 -1 -13l-2 -10h171l1 7q1 7 1 9q0 12 -9 39q-19 55 -19 102q0 79 60 135.5t145 56.5q75 0 125 -44z" />
    <glyph glyph-name="f_f_l" unicode="ffl" horiz-adv-x="668" 
d="M519 122l44 376l-57 2v5h59q20 0 35.5 5.5t22 11t15.5 16.5l2 -1q-25 -112 -56.5 -281t-31.5 -205t18 -36q29 0 100 52l3 -3q-87 -68 -116 -68q-20 0 -33.5 12.5t-13.5 35.5q0 28 9 78zM73 185h-53l2 14h52l2 11l1 6q0 12 -9 39q-19 55 -19 102q0 101 74.5 172t180.5 71
q69 0 118 -44t49 -106q0 -43 -36 -77l-46 23q52 27 52 53q0 20 -14.5 35t-34.5 15q-39 0 -67 -41.5t-28 -99.5q0 -40 17 -89q11 -33 11 -51v-8l-1 -10l134 2l-3 -17h-133l-59 -388q-13 -86 -70.5 -142t-134.5 -56q-25 0 -49 16l8 11q21 -16 43 -16q55 0 96 53t56 133l71 389
h-171l-48 -319q-13 -83 -73 -152l-4 1zM444 494q-15 42 -54 69t-88 27q-83 0 -141.5 -69.5t-58.5 -167.5q0 -41 9 -88q6 -28 6 -42q0 -9 -1 -13l-2 -10h170l2 10q1 4 1 7q0 15 -16 46q-27 54 -27 99q0 60 44 103.5t106 43.5q28 0 50 -15z" />
    <glyph glyph-name="f_t" unicode="ft" horiz-adv-x="443" 
d="M120 234l-67 -437q-13 -87 -69.5 -145t-132.5 -58q-25 0 -49 16l8 11q21 -16 43 -16q54 0 94 54.5t55 136.5l78 438h-53l2 14h53q3 13 3 17q0 12 -9 38q-19 56 -19 103q0 79 63.5 133.5t158.5 54.5q55 0 94.5 -33t39.5 -80q0 -65 -34 -113q-16 -35 -48 -120h96l-3 -14
h-97q-22 -64 -30 -111q-7 -40 -7 -60q0 -46 32 -46q36 0 104 51l3 -3q-83 -67 -124 -67q-26 0 -42 16t-16 43q0 19 7 65l19 112h-153zM275 248l24 106q83 43 83 126q0 43 -31 73.5t-75 30.5q-72 0 -119 -53t-47 -129q0 -41 9 -88q6 -28 6 -42q0 -9 -1 -13l-2 -10z" />
    <glyph glyph-name=".notdef" horiz-adv-x="500" 
d="M294 459q35 0 52 -23t17 -49q0 -28 -19 -58t-42.5 -52.5t-42.5 -54.5t-19 -63v-9h18v14q0 28 23.5 58.5t51.5 52.5t51.5 52t23.5 57q0 31 -31 62t-80 31q-55 0 -89 -34t-34 -72q0 -22 11 -40t22 -26l12 15q-27 17 -27 51q0 31 24 59.5t78 28.5zM250 66q-10 0 -18.5 -7.5
t-8.5 -18.5q0 -19 18 -19q10 0 18.5 7.5t8.5 18.5q0 19 -18 19zM466 495q4 0 7 -3q2 -2 2 -8v-486q0 -7 -8 -7h-365q-3 0 -6 3q-2 2 -2 8v486q2 7 8 7h364z" />
    <glyph glyph-name=".null" horiz-adv-x="0" 
 />
    <glyph glyph-name="nonmarkingreturn" horiz-adv-x="333" 
 />
    <glyph glyph-name="space" unicode=" " horiz-adv-x="289" 
 />
    <glyph glyph-name="exclam" unicode="!" horiz-adv-x="211" 
d="M61 0l4 19q5 31 29 31h37l-6 -32q-4 -18 -28 -18h-36zM132 155l-49 -1q15 49 26 139q12 127 14 247l70 1q-25 -123 -44 -247q-15 -100 -17 -139z" />
    <glyph glyph-name="quotedbl" unicode="&#x22;" horiz-adv-x="237" 
d="M198 580h38l-20 -130h-34zM114 580h38l-20 -130h-34z" />
    <glyph glyph-name="numbersign" unicode="#" horiz-adv-x="398" 
d="M320 457h22l-26 -134h86l-5 -22h-86l-18 -98h91l-5 -22h-91l-24 -122h-22l23 122h-97l-24 -122h-22l23 122h-79l5 22h79l19 98h-85l5 22h84l27 134h22l-26 -134h97zM191 301l-18 -98h97l19 98h-98z" />
    <glyph glyph-name="dollar" unicode="$" horiz-adv-x="329" 
d="M119 -20h-14l17 120q-20 5 -41 14q-23 10 -34 10l7 52h8v-2q0 -21 17 -37.5t45 -23.5l23 166q-55 42 -55 89q0 24 21.5 42.5t55.5 25.5l18 124h14l-17 -122q9 1 18 1q10 0 27 -4l18 125h14l-18 -128q16 -4 22 -4q30 0 43 32l4 -2l-29 -74l-3 1q-23 18 -40 27l-18 -124
q33 -23 52.5 -47t19.5 -57q0 -29 -28 -52.5t-70 -31.5l-17 -120h-14l17 118q-12 -2 -25 -2q-11 0 -21 2zM202 242q-7 5 -18 12l-24 16l-22 -160q10 -1 20 -1q13 0 26 2zM215 233l-17 -118q25 8 41 24t16 35q0 29 -40 59zM210 296l17 123q-15 6 -26 6q-10 0 -19 -2l-14 -99
q10 -7 30 -20q7 -5 12 -8zM155 334l12 85q-38 -13 -38 -42q0 -21 26 -43z" />
    <glyph glyph-name="percent" unicode="%" horiz-adv-x="606" 
d="M494 245q39 0 66.5 -30.5t27.5 -72.5q0 -61 -38 -104t-91 -43q-39 0 -66.5 30.5t-27.5 72.5q0 61 38 104t91 43zM407 106q0 -39 19 -66.5t45 -27.5q31 0 53 36t22 86q0 39 -19 66.5t-46 27.5q-31 0 -52.5 -35.5t-21.5 -86.5zM203 545q36 -1 58 -19q51 -40 108 -40
q27 0 57 14.5t90 52.5l21 -15l-410 -562l-24 19l372 504l31 35l-38 -25q-60 -34 -100 -34q-47 0 -87 25q16 -29 16 -58q0 -61 -38 -104t-91 -43q-38 0 -66 30t-28 73q0 61 38 104t91 43zM116 406q0 -40 18 -67t46 -27q31 0 53 36t22 86q0 40 -18 67t-47 27
q-31 0 -52.5 -35.5t-21.5 -86.5z" />
    <glyph glyph-name="ampersand" unicode="&#x26;" horiz-adv-x="552" 
d="M190 258q-49 92 -50 120q0 33 30.5 57t74.5 24q33 0 56.5 -20t23.5 -49q0 -25 -18.5 -46.5t-75.5 -70.5l51 -111q10 -20 19 -37l87 87q26 26 70 33h-98q-16 0 -28 -11.5t-15 -29.5l-7 2q3 25 18 41.5t36 16.5h178l-1 -19h-28q-68 0 -112 -44l-92 -91q47 -78 96 -78
q55 0 114 57l4 -4q-25 -29 -39.5 -44t-39.5 -30.5t-48 -15.5q-53 0 -111 91l-26 -26q-65 -65 -136 -65q-41 0 -67.5 22t-26.5 54q0 44 50 89zM197 244l-91 -82q-24 -22 -24 -64q0 -33 20.5 -50.5t51.5 -17.5q51 0 93 41l29 29q-12 21 -35 63zM224 288q56 48 70.5 65t14.5 37
q0 21 -17 35.5t-41 14.5q-23 0 -39 -18t-16 -44q0 -29 28 -90z" />
    <glyph glyph-name="quotesingle" unicode="'" horiz-adv-x="153" 
d="M114 580h38l-20 -130h-34z" />
    <glyph glyph-name="parenleft" unicode="(" horiz-adv-x="251" 
d="M182 -135l-11 -10q-43 51 -78 133t-35 187q0 81 19.5 160t53 143t73 115.5t83.5 91.5l9 -10q-52 -47 -89.5 -115t-56 -142t-26 -137t-7.5 -123q0 -105 17.5 -181t47.5 -112z" />
    <glyph glyph-name="parenright" unicode=")" horiz-adv-x="286" 
d="M31 -135q67 59 123 202.5t56 314.5q0 105 -17.5 181t-47.5 112l11 10q43 -51 78 -133t35 -187q0 -89 -24 -175t-62 -150.5t-73.5 -109t-69.5 -75.5z" />
    <glyph glyph-name="asterisk" unicode="*" horiz-adv-x="325" 
d="M224 392q25 -20 56 -58q14 -18 14 -19q0 -8 -4 -8q-6 0 -10.5 0.5t-8 1t-6.5 1.5t-5 1.5t-4 3t-3 4t-3 5t-2.5 5.5t-3 7.5t-3.5 8.5q-6 13 -11.5 21t-12 14t-7.5 7q-13 -34 -37 -70q-2 -3 -4.5 -7.5t-4 -6t-3 -4t-3.5 -3t-4 -0.5q-3 0 -5 7q-3 7 -3 13v7q0 4 1 7.5t4 7
t4.5 5t8 7t9.5 7.5q11 9 17 18.5t9 16t3 7.5q-29 1 -78 14q-3 1 -8 2l-7.5 1.5t-5.5 1.5t-4 3t-1 5t12 9.5t19 6.5q6 0 32 -16q16 -9 50 -16q-8 30 -10 79q-2 16 -2 17q0 4 2 7t4 4t3 1q23 -14 23 -31q0 -4 -4.5 -23.5t-4.5 -31.5q0 -18 2 -26q21 16 71 36q4 2 9 4l7.5 3
t4.5 1q9 0 9 -7q0 -9 -3.5 -15t-8.5 -9.5t-12 -6t-12 -2.5q-5 -2 -11 -2h-5q-10 -1 -19.5 -3.5t-14.5 -5t-9.5 -5t-5.5 -2.5z" />
    <glyph glyph-name="plus" unicode="+" horiz-adv-x="422" 
d="M71 249l4 22h157l18 153h22l-26 -153h158l-4 -22h-157l-18 -153h-22l26 153h-158z" />
    <glyph glyph-name="comma" unicode="," horiz-adv-x="155" 
d="M73 0h-42l3 19q5 31 29 31h47l-6 -32q-7 -37 -39 -117h-11q19 78 19 99z" />
    <glyph glyph-name="hyphen" unicode="-" horiz-adv-x="378" 
d="M349 226h-255l3 18h255z" />
    <glyph glyph-name="period" unicode="." horiz-adv-x="145" 
d="M30 0l4 19q5 31 29 31h37l-6 -32q-4 -18 -28 -18h-36z" />
    <glyph glyph-name="slash" unicode="/" horiz-adv-x="554" 
d="M58 -120l-32 25q54 72 293 400q181 249 240 327l32 -25q-58 -78 -238 -325q-240 -330 -295 -402z" />
    <glyph glyph-name="zero" unicode="0" horiz-adv-x="466" 
d="M230 260q0 8 6 14t14 6t14 -6t6 -14t-6 -14t-14 -6t-14 6t-6 14zM122 216q0 -84 32.5 -143.5t79.5 -59.5q64 0 109.5 91.5t45.5 220.5q0 84 -33 143t-79 59q-64 0 -109.5 -91t-45.5 -220zM289 545q67 0 115 -68t48 -164q0 -132 -67.5 -225t-162.5 -93q-68 0 -116 68
t-48 164q0 132 67.5 225t163.5 93z" />
    <glyph glyph-name="one" unicode="1" horiz-adv-x="205" 
d="M120 0l-55 -1q13 41 44 264l15 242l-69 -16l-2 7l63 21q63 20 75 42l2 -1l-41 -294q-24 -183 -32 -264z" />
    <glyph glyph-name="two" unicode="2" horiz-adv-x="424" 
d="M157 283q-34 0 -58.5 31.5t-24.5 77.5q0 63 50 108t120 45q63 0 107 -36.5t44 -87.5q0 -33 -8 -64.5t-19.5 -56t-33.5 -51t-39.5 -44.5t-48.5 -42t-49.5 -37t-53.5 -37q-40 -27 -66 -47q14 7 44 14t47 7q34 0 95 -10q57 -9 86 -10q41 0 61 16l2 -5q-81 -59 -112 -59
q-38 0 -102 22q-50 17 -77 17q-41 0 -90 -38l-20 23q35 31 95 78q38 30 59.5 47.5t53 46t49.5 51t36.5 51.5t26.5 58.5t8 61.5q0 47 -31.5 80.5t-76.5 33.5q-52 0 -89 -39t-37 -93q0 -31 23.5 -53t56.5 -22z" />
    <glyph glyph-name="three" unicode="3" horiz-adv-x="422" 
d="M390 175q0 -81 -92.5 -138t-223.5 -57h-59v23l61 -3q103 0 176.5 52.5t73.5 126.5q0 49 -40.5 84t-98.5 35l-64 -4l1 21h76q50 0 85.5 33.5t35.5 80.5q0 40 -25.5 69t-61.5 29q-35 0 -61.5 -25.5t-32.5 -64.5l-1 -7h-60q7 51 55 83t112 32q56 0 96 -32t40 -76.5
t-40.5 -79.5t-102.5 -50q65 -10 108 -46.5t43 -85.5z" />
    <glyph glyph-name="four" unicode="4" horiz-adv-x="429" 
d="M11 106v29q47 43 119 183.5t72 226.5h80q0 -41 -96 -204.5t-135 -206.5h243l8 195v11h77l-3 -19l-33 -187h75l-2 -28h-76q-5 -58 -6 -106l-57 -1q11 59 15 107h-281z" />
    <glyph glyph-name="five" unicode="5" horiz-adv-x="432" 
d="M37 137h51q-1 -8 -2 -15q0 -45 29.5 -76.5t71.5 -31.5q61 0 104.5 53t43.5 128q0 58 -32 95.5t-88 37.5l-125 -4l27 216q51 0 163 -9q61 -5 77 -5q31 0 48 18l15 17l10 -8q-68 -86 -104 -86q-14 0 -69 4q-92 8 -130 8l-19 -134h122q65 0 115.5 -41.5t50.5 -100.5
q0 -86 -65 -147t-156 -61q-58 0 -99 35t-41 84q0 8 2 23z" />
    <glyph glyph-name="six" unicode="6" horiz-adv-x="450" 
d="M382 545l-1 -23l-36 3q-97 0 -166 -89t-69 -215q0 -85 36 -145.5t86 -60.5q55 0 93.5 49t38.5 119q0 53 -26.5 90t-64.5 37q-43 0 -75 -29.5t-38 -74.5h-19q8 53 49 88t97 35q57 0 97.5 -41.5t40.5 -99.5q0 -80 -60 -136.5t-145 -56.5q-71 0 -121 64.5t-50 155.5
q0 90 40 166t108.5 120t149.5 44h35z" />
    <glyph glyph-name="seven" unicode="7" horiz-adv-x="391" 
d="M443 578q-16 -25 -34 -52q-37 -56 -59 -90t-55.5 -94.5t-52.5 -108.5t-35 -111t-18 -122l-69 -1q0 48 14.5 100.5t33.5 94.5t52.5 94.5t55 82t57.5 77.5q30 39 48 63q-61 0 -153 -11q-99 -11 -172 -11l9 56q29 0 144 -2q128 -3 165 -3q19 0 32.5 8.5t32.5 32.5z" />
    <glyph glyph-name="eight" unicode="8" horiz-adv-x="479" 
d="M244 15q64 0 109 42t45 101q0 53 -39.5 90.5t-95.5 37.5q-64 0 -109.5 -44t-45.5 -107q0 -50 40 -85t96 -35zM305 546q55 0 94 -32t39 -76q0 -48 -35 -86t-90 -54q63 -12 104 -48.5t41 -84.5q0 -71 -67 -120.5t-161 -49.5q-75 0 -128.5 38.5t-53.5 92.5q0 61 51.5 107
t130.5 63q-42 12 -68 41.5t-26 66.5q0 59 49.5 100.5t119.5 41.5zM281 307q44 0 75 35.5t31 86.5q0 40 -28 68.5t-67 28.5q-43 0 -74 -33.5t-31 -81.5q0 -43 27.5 -73.5t66.5 -30.5z" />
    <glyph glyph-name="nine" unicode="9" horiz-adv-x="471" 
d="M77 -20v23l41 -3q73 0 134.5 43t97.5 116.5t36 159.5q0 85 -35.5 145.5t-86.5 60.5q-52 0 -89.5 -49t-37.5 -119q0 -53 25.5 -90t61.5 -37q43 0 74.5 29.5t38.5 74.5h19q-8 -53 -49.5 -88t-96.5 -35t-94.5 41.5t-39.5 99.5q0 80 59 136.5t142 56.5q71 0 120.5 -64.5
t49.5 -155.5q0 -94 -44 -173.5t-120.5 -125.5t-166.5 -46h-39z" />
    <glyph glyph-name="colon" unicode=":" horiz-adv-x="126" 
d="M59 206l4 19q5 31 29 31h37l-6 -32q-4 -18 -28 -18h-36zM30 0l4 19q5 31 29 31h37l-6 -32q-4 -18 -28 -18h-36z" />
    <glyph glyph-name="semicolon" unicode=";" horiz-adv-x="126" 
d="M59 206l4 19q5 31 29 31h37l-6 -32q-4 -18 -28 -18h-36zM73 0h-42l3 19q5 31 29 31h47l-6 -32q-7 -37 -39 -117h-11q19 78 19 99z" />
    <glyph glyph-name="less" unicode="&#x3c;" horiz-adv-x="364" 
d="M354 479l-254 -214l172 -214l-25 -21l-185 230l280 235z" />
    <glyph glyph-name="equal" unicode="=" horiz-adv-x="432" 
d="M402 307l-305 -1l5 22h305zM381 199l-305 -1l5 22h305z" />
    <glyph glyph-name="greater" unicode="&#x3e;" horiz-adv-x="364" 
d="M58 46l254 214l-172 214l25 21l185 -230l-280 -235z" />
    <glyph glyph-name="question" unicode="?" horiz-adv-x="340" 
d="M123 0l4 19q5 31 29 31h37l-6 -32q-4 -18 -28 -18h-36zM277 180q-10 0 -31 -9q-40 -16 -73 -16q-42 0 -71.5 18.5t-29.5 45.5q0 26 11 47t34 38.5t41 28t51 26.5q27 13 41 21t32 20.5t25.5 26t7.5 28.5q0 30 -26.5 51t-64.5 21q-46 0 -87.5 -33t-52.5 -96h-7l18 111
q12 0 41 13q52 23 90 23q57 0 97.5 -27t40.5 -66q0 -21 -9.5 -39t-31 -34t-38.5 -26t-47 -26q-28 -14 -44 -23t-35 -23t-28 -29t-9 -32q0 -18 16 -31t39 -13q95 0 109 102h5z" />
    <glyph glyph-name="at" unicode="@" horiz-adv-x="678" 
d="M418 151l13 113q-9 0 -28 2q-24 3 -39 3q-38 0 -65 -40.5t-27 -104.5q0 -86 57 -86q30 0 56 34t33 79zM470 152q-2 -19 -2 -48q0 -23 11.5 -38.5t25.5 -15.5q63 0 107 55t44 133q0 90 -67 154t-161 64q-158 0 -254.5 -94.5t-96.5 -249.5q0 -95 69 -162.5t166 -67.5
q80 0 156 41l7 -10q-79 -43 -163 -43q-103 0 -175.5 71t-72.5 172q0 161 100 259t264 98q99 0 169.5 -68t70.5 -164q0 -85 -49.5 -143.5t-121.5 -58.5q-23 0 -38.5 24t-17.5 63q-14 -42 -49 -70t-74 -28q-42 0 -70.5 32.5t-28.5 79.5q0 65 42 106t105 41q14 0 45 -6
q23 -4 30 -4q33 0 44.5 7.5t18.5 26.5l3 -1z" />
    <glyph glyph-name="A" unicode="A" horiz-adv-x="501" 
d="M58 0l-50 -4q21 36 78 167l162 366l16 -4l-144 -324h192l-31 328l-76 4v7l152 1l7 -340h35q18 0 30 15t26 51l6 -1q-16 -52 -29 -79h-68l1 -23l1.5 -45t2 -35t4 -29t7.5 -18.5t12.5 -13t17.5 -3.5q33 0 111 69l4 -4q-30 -28 -49.5 -44.5t-45 -31t-44.5 -14.5
q-30 0 -46 39.5t-25 128.5l-2 24h-199l-11 -23q-43 -97 -45 -164z" />
    <glyph glyph-name="B" unicode="B" horiz-adv-x="480" 
d="M40 13q56 1 207 1q62 0 108 44.5t46 110.5q0 48 -34.5 83t-82.5 35h-111l3 14q62 4 122 4q40 0 70 36.5t30 86.5q0 40 -29 69.5t-70 29.5q-37 0 -112 2l-1 -3l14 -3l-59 -349q-14 -95 -15 -139l-62 -1q14 40 28 139l31 357l-68 3v7l142 1q87 4 125 4q54 0 92 -34t38 -79
t-33.5 -81t-80.5 -50q54 -11 90 -46t36 -80q0 -77 -65.5 -126t-153.5 -49h-209z" />
    <glyph glyph-name="C" unicode="C" horiz-adv-x="408" 
d="M301 545q15 0 48 -8q23 -5 32 -5q21 0 31 10.5t17 30.5l4 -1l-31 -104l-3 1q-19 17 -54.5 37.5t-55.5 20.5q-52 0 -90.5 -42.5t-56.5 -109.5t-18 -150q0 -95 33.5 -151t91.5 -56q74 0 144 71l4 -4q-29 -29 -47.5 -44.5t-49 -30.5t-61.5 -15q-76 0 -125 69.5t-49 173.5
q0 134 69 220.5t167 86.5z" />
    <glyph glyph-name="D" unicode="D" horiz-adv-x="540" 
d="M88 13q56 1 152 1q55 0 107 40t84.5 109t32.5 147q0 93 -42.5 155t-108.5 62q-35 0 -107 2l-1 -3l14 -3l-58 -349q-9 -74 -9 -111q0 -14 1 -28l-61 -1q14 39 25 139l25 357l-68 3l-1 7l142 1q23 0 58 2q33 2 53 2q86 0 142 -67.5t56 -167.5q0 -63 -24.5 -121.5t-64.5 -99
t-92 -65t-104 -24.5h-155z" />
    <glyph glyph-name="E" unicode="E" horiz-adv-x="435" 
d="M20 -3l2 20q15 -3 46 -3q8 35 25 159l31 356l-69 4v7h195l191 9l-20 -120h-7l8 84l-175 13h-67v-2l20 -3l-34 -200h34l100 5l17 75h7q-5 -53 -10 -89q-4 -34 -16 -97h-7l5 84l-78 8h-54l-23 -133q-14 -95 -18 -160h82l179 13l15 84h7l-15 -125l-13 1l-2 4l-172 9
q-129 0 -184 -3z" />
    <glyph glyph-name="F" unicode="F" horiz-adv-x="440" 
d="M121 0l-57 -1q8 37 27 164l32 366l-68 4v7h225l189 9q-7 -47 -19 -120h-7l8 84l-174 13h-97l-1 -2l20 -3l-43 -260h45l140 9l17 71h7l-10 -89l-16 -97h-7l5 80l-118 12h-66l-14 -83q-14 -99 -18 -164z" />
    <glyph glyph-name="G" unicode="G" horiz-adv-x="473" 
d="M393 84l-8 -70v-6q0 -9 2 -22l43 15l4 -13l-44 -16q4 -18 12 -45q24 -83 24 -119q0 -84 -79 -143t-191 -59q-79 0 -134.5 33.5t-55.5 80.5q0 35 39.5 74t104 73t122.5 59t119 47q-1 15 -1 25q0 9 1 16l9 71q-2 0 -4 1q-19 -37 -53.5 -64t-70.5 -27q-75 0 -129.5 68.5
t-54.5 167.5q0 84 33 157t87.5 115t116.5 42q19 0 51 -9q21 -6 29 -6q35 0 51 45l4 -1l-32 -106l-2 1q-23 19 -56.5 38.5t-57.5 19.5q-44 0 -82.5 -44t-60 -113.5t-21.5 -145.5q0 -90 36.5 -148t97.5 -58q41 0 75 34.5t39 75.5l2 130h-88v14h81q24 0 54.5 12t38.5 28l2 -1z
M353 -42q-53 -20 -105.5 -44.5t-109 -57t-92 -68.5t-35.5 -68q0 -41 43 -70.5t104 -29.5q88 0 150 57t62 138q0 32 -10 97q-4 23 -7 46z" />
    <glyph glyph-name="H" unicode="H" horiz-adv-x="549" 
d="M428 529l-69 4v7l145 1l-63 -300h73l-3 -14h-73l-13 -63q-10 -70 -10 -96q0 -25 7.5 -36.5t24.5 -11.5q33 0 111 69l4 -4q-103 -90 -139 -90q-52 0 -52 97q0 31 5 71l9 64h-234l-11 -63q-14 -99 -19 -164l-60 -1q13 41 30 164l6 64h-58l2 14h57l26 288l-69 4v7l153 1
l-2 -13l-5 -3l-48 -284h234z" />
    <glyph glyph-name="I" unicode="I" horiz-adv-x="206" 
d="M121 0l-60 -1q13 41 30 164l32 366l-68 4v7l153 1l-3 -13l-5 -3l-60 -361q-16 -108 -19 -164z" />
    <glyph glyph-name="J" unicode="J" horiz-adv-x="227" 
d="M112 163l32 366l-68 4v7l152 1l-2 -13l-5 -3l-61 -361q-27 -184 -43 -345q-8 -59 -60 -96t-123 -37q-54 0 -92.5 30.5t-38.5 74.5q0 56 61 95.5t147 39.5l-4 -32q-78 0 -134 -30t-56 -72q0 -38 35 -65t84 -27q46 0 80 34t41 85z" />
    <glyph glyph-name="K" unicode="K" horiz-adv-x="474" 
d="M122 0l-61 -1q13 41 31 164l32 366l-69 4v7l148 2q-1 -7 -3 -17l-40 -239h21q48 53 142 166q67 81 77 89q16 2 39 2l58 1l-1 -28q-12 1 -22 1q-34 0 -72.5 -26.5t-87.5 -76.5q-61 -62 -117 -128q81 -1 115.5 -19t44.5 -77q88 -501 390 -501q84 0 169 61l4 -5
q-92 -75 -198 -75q-88 0 -160.5 37t-125 107t-89 165.5t-58.5 217.5q-8 47 -35.5 60.5t-95.5 14.5l-18 -108q-15 -105 -18 -164z" />
    <glyph glyph-name="L" unicode="L" horiz-adv-x="429" 
d="M68 14q8 35 25 159l31 356l-68 4v7l153 1l-3 -13l-5 -3l-59 -351q-16 -113 -18 -160h82l182 33l13 74h7l-15 -135l-13 1l-3 4l-172 9q-129 0 -184 -3l1 20q15 -3 46 -3z" />
    <glyph glyph-name="M" unicode="M" horiz-adv-x="732" 
d="M103 0l-68 -1q9 30 27.5 109t28.5 155l32 266l-60 4v7h153q0 -32 6 -57l115 -456l202 456q12 25 18 48l-44 2v7l134 1l-38 -372q-9 -90 -9 -103q0 -24 6.5 -35t24.5 -11q33 0 111 69l3 -4q-30 -30 -48 -45.5t-44 -30t-47 -14.5q-27 0 -45 17t-18 49q0 28 14 102l59 366
h-9q-8 -33 -17 -49l-262 -498h-31l-95 498q-3 14 -3 48h-10l-49 -264q-22 -109 -37 -264z" />
    <glyph glyph-name="N" unicode="N" horiz-adv-x="483" 
d="M111 0l-51 -4q10 33 43 267l21 266l-69 4v7h153q0 -37 8 -57l179 -456q11 81 24 236l9 266l-61 4v7l112 1l-41 -277q-19 -128 -33 -264l-58 -8l-181 488q-5 14 -5 48h-12l-22 -264q-15 -138 -16 -264z" />
    <glyph glyph-name="O" unicode="O" horiz-adv-x="473" 
d="M107 216q0 -84 36 -143.5t87 -59.5q74 0 119 86t45 226q0 84 -35.5 143t-85.5 59q-74 0 -120 -85.5t-46 -225.5zM44 227q0 142 67 230t174 88q72 0 122.5 -68t50.5 -164q0 -142 -67 -230t-173 -88q-72 0 -123 68t-51 164z" />
    <glyph glyph-name="P" unicode="P" horiz-adv-x="480" 
d="M180 155l2 15h95q61 0 104.5 61.5t43.5 148.5q0 61 -33.5 104t-80.5 43q-49 0 -131 2l-1 -3l21 -3l-34 -200l-26 -159q-14 -111 -19 -164l-60 -1q11 38 30 164l29 367l-68 3l-1 7l142 1q17 0 61 2q48 2 70 2q67 0 114 -50t47 -121q0 -91 -61.5 -155t-147.5 -64h-96z" />
    <glyph glyph-name="Q" unicode="Q" horiz-adv-x="486" 
d="M496 -154l3 -5q-86 -67 -150 -67q-34 0 -64 9.5t-56.5 29.5t-41.5 35.5t-40 43.5q-70 -28 -128 -28q-34 0 -54 18.5t-20 48.5q0 27 23 47q23 19 56 19q26 0 54 -11.5t47 -24.5t50 -37q102 57 163.5 162.5t61.5 232.5q0 91 -35 149.5t-94 58.5q-68 0 -116 -89.5
t-48 -216.5q0 -76 27 -120.5t73 -44.5q50 0 105 60l6 -9q-61 -68 -122 -68q-60 0 -104.5 54t-44.5 140q0 129 69.5 220.5t166.5 91.5q71 0 124 -68.5t53 -166.5q0 -121 -75 -232t-193 -167q37 -29 63.5 -46t68.5 -32t85 -15q49 0 87 28zM136 -95q-32 37 -58 55t-56 18
q-26 0 -44.5 -14t-18.5 -34q0 -23 16 -37t42 -14q57 0 119 26z" />
    <glyph glyph-name="R" unicode="R" horiz-adv-x="484" 
d="M121 0l-60 -1q13 41 30 164l33 367l-69 3v7l142 1q18 1 32 2q57 2 87 2q59 0 106.5 -45.5t47.5 -108.5q0 -81 -57.5 -138.5t-138.5 -57.5l-72 2q37 -13 70.5 -32.5t66.5 -49t53 -50t55 -58.5q97 -105 190.5 -161.5t203.5 -56.5q42 0 87 12t76 34l4 -5q-38 -31 -96.5 -53
t-106.5 -22q-63 0 -122 20t-113.5 59.5t-100 83.5t-97.5 105q-33 39 -51.5 59.5t-46.5 47.5t-53.5 42.5t-51.5 23.5l2 12l95 2q59 0 101.5 53.5t42.5 129.5q0 58 -29.5 96t-76.5 38q-83 0 -116 2l-2 -3l14 -3l-60 -359q-15 -97 -19 -164z" />
    <glyph glyph-name="S" unicode="S" horiz-adv-x="402" 
d="M380 572l-24 -101l-3 1q-18 18 -50.5 36.5t-56.5 18.5q-56 0 -93 -27t-37 -76q0 -18 8 -32.5t26.5 -28.5t32.5 -23t42 -24q27 -15 42 -24t38 -26t35 -32.5t21.5 -38t9.5 -48.5q0 -63 -57.5 -107.5t-137.5 -44.5q-38 0 -98 24q-33 13 -45 13l12 89h7v-5q0 -40 36 -73.5
t90 -33.5q59 0 100.5 36.5t41.5 87.5q0 18 -8 33t-25.5 29t-32 23.5t-41.5 24.5t-41 23.5t-36 25.5t-33.5 32t-20.5 37.5t-9 47.5q0 64 49.5 100t125.5 36q19 0 52 -8q20 -5 28 -5q21 0 31 10.5t17 30.5z" />
    <glyph glyph-name="T" unicode="T" horiz-adv-x="447" 
d="M232 0l-58 -1q8 37 26 164l32 363h-32l-118 -10l-16 -87h-7l13 122l129 -11h146l132 11l-20 -122h-7l8 86l-114 11h-57q0 -1 -1 -2l20 -3l-66 -357q-11 -79 -11 -132q0 -14 1 -32z" />
    <glyph glyph-name="U" unicode="U" horiz-adv-x="513" 
d="M53 506q48 39 69 39q24 0 36 -17.5t12 -61.5q0 -35 -8 -89l-34 -270q-1 -9 -1 -18q0 -29 11.5 -49t29.5 -20q52 0 111.5 86.5t80.5 195.5l28 228l-38 3v7h61q31 0 49 4l2 -2l-71 -378q-10 -70 -10 -96q0 -25 7.5 -36.5t24.5 -11.5q35 0 113 69l4 -4q-31 -27 -52 -43.5
t-47.5 -31.5t-44.5 -15q-50 0 -50 93q0 32 6 75l7 51q-33 -92 -86 -155.5t-99 -63.5q-42 0 -69.5 24.5t-27.5 63.5q0 8 1 17l42 276q15 101 15 112q0 31 -22 32q-16 0 -47 -19z" />
    <glyph glyph-name="V" unicode="V" horiz-adv-x="466" 
d="M504 578l-140 -285q-41 -83 -77 -176.5t-37 -116.5l-67 -12q-25 49 -53 303q-10 93 -26 158t-29 65q-23 0 -50 -16l-3 5q56 42 79 42q31 0 49.5 -73.5t31.5 -197.5q23 -216 42 -267q29 62 104 291l77 232l-88 3l-1 7h112q23 0 43 10.5t31 28.5z" />
    <glyph glyph-name="W" unicode="W" horiz-adv-x="721" 
d="M759 578l-144 -315q-39 -82 -71.5 -164t-33.5 -99l-65 -5q-26 51 -60 371l-45 -103q-98 -233 -100 -263l-65 -5q-19 38 -50 275q-8 62 -12.5 94t-11.5 73.5t-13.5 59.5t-12.5 18q-16 0 -49 -19l-3 5q58 44 78 44q10 0 19 -7.5t16.5 -24t13 -33t11 -45.5t9.5 -50.5t8 -58
t6.5 -57.5t6.5 -60q17 -165 30 -203q19 43 85 262l79 262l-130 3l1 7h144q23 0 44.5 10.5t32.5 28.5l2 -1l-64 -146q8 -97 33.5 -237t42.5 -189q22 49 90 262l84 262l-50 3l1 7h64q23 0 44.5 10.5t32.5 28.5z" />
    <glyph glyph-name="X" unicode="X" horiz-adv-x="466" 
d="M251 267q25 -71 58 -174q8 -24 13.5 -36.5t16.5 -23t26 -10.5q34 0 111 66l3 -4q-32 -29 -50.5 -45t-42.5 -31t-38 -15q-28 0 -36 22q-17 34 -85 221q-50 -63 -96.5 -136.5t-63.5 -107.5l-69 11q15 14 95 114.5t112 149.5l7 10q-91 242 -109 242q-16 0 -49 -19l-3 5
q51 39 69 39q31 0 115 -233l150 218l-69 3l1 7h107q20 0 35.5 9t35.5 32l4 -3z" />
    <glyph glyph-name="Y" unicode="Y" horiz-adv-x="468" 
d="M266 0l-65 -1q13 40 34 189q-21 36 -71 163q-16 40 -24 61t-20 48.5t-20.5 39.5t-14.5 12q-16 0 -46 -19l-4 5q20 16 48.5 31.5t40.5 15.5q10 0 20.5 -14t23 -46t21 -56.5t23.5 -70.5q37 -116 56 -154h2q51 74 89 164l70 162l-70 3l1 7h66q22 0 45.5 11t34.5 28l3 -1
l-127 -215q-51 -88 -71 -124.5t-23 -54.5q-19 -132 -22 -184z" />
    <glyph glyph-name="Z" unicode="Z" horiz-adv-x="397" 
d="M393 89l3 -4q-27 -28 -44 -44t-39 -31t-36 -15t-51 6q-66 11 -109 11q-50 0 -80 -17l-23 9q12 12 80 112.5t97 151.5l132 228q-75 0 -184 -7q-57 -4 -78 -4l19 60q142 -5 269 -5q19 0 32.5 8.5t32.5 32.5l4 -3l-205 -315q-62 -96 -129 -212q23 7 65 7q34 0 94 -5
q35 -3 46 -3q64 0 104 39z" />
    <glyph glyph-name="bracketleft" unicode="[" horiz-adv-x="300" 
d="M40 -147q13 73 38 218.5t28 164.5l10 68q8 56 14.5 118.5t14 147t11.5 117.5h190l-2 -14l-114 -2l-66 -368l-10 -66l-34 -368l110 -2l-2 -14h-188z" />
    <glyph glyph-name="backslash" unicode="\" horiz-adv-x="303" 
d="M66 675q29 -122 135 -566q43 -177 75 -311l-42 -7q-27 116 -150 625q-34 141 -60 252z" />
    <glyph glyph-name="bracketright" unicode="]" horiz-adv-x="300" 
d="M217 -147h-188l2 14l112 2l68 368l10 66l36 368l-112 2l2 14h190q-6 -35 -22 -118t-27.5 -146t-18.5 -119l-10 -68q-2 -19 -18.5 -164.5t-23.5 -218.5z" />
    <glyph glyph-name="asciicircum" unicode="^" horiz-adv-x="254" 
d="M177 507h20l97 -78l-14 -14l-93 82l-93 -82l-14 14z" />
    <glyph glyph-name="underscore" unicode="_" horiz-adv-x="474" 
d="M386 -309l-353 -1l3 23h353z" />
    <glyph glyph-name="grave" unicode="`" horiz-adv-x="176" 
d="M215 405l-11 -7q-29 37 -56.5 56.5t-60.5 24.5l-2 3l40 29q6 4 12 4q9 0 14 -7z" />
    <glyph glyph-name="a" unicode="a" horiz-adv-x="377" 
d="M224 122l13 113q-9 0 -28 2q-25 3 -39 3q-38 0 -65 -40.5t-27 -104.5q0 -86 57 -86q30 0 56 34t33 79zM276 123q-2 -19 -2 -48q0 -56 25 -56q33 0 90 48l4 -3q-74 -64 -103 -64q-39 0 -43 94q-14 -42 -49 -70t-74 -28q-42 0 -70.5 32.5t-28.5 79.5q0 65 42 106t105 41
q14 0 44 -6q23 -4 31 -4q33 0 44.5 7.5t18.5 26.5l3 -1z" />
    <glyph glyph-name="b" unicode="b" horiz-adv-x="342" 
d="M23 0l-9 -1q10 25 27 123l43 376l-62 2v5h71q44 0 65 33l2 -1l-55 -309q53 31 96 31q49 0 78.5 -29t29.5 -76q0 -65 -42.5 -111.5t-103.5 -46.5q-34 0 -58 19.5t-31 50.5q-26 0 -51 -66zM102 213l-18 -90q-4 -20 -4 -32q0 -35 24 -59t61 -24t63 41.5t26 100.5
q0 43 -16.5 69t-43.5 26q-39 0 -92 -32z" />
    <glyph glyph-name="c" unicode="c" horiz-adv-x="295" 
d="M277 67l3 -3q-25 -22 -41 -34t-42.5 -23t-54.5 -11q-52 0 -85 29t-33 76q0 71 40 114.5t102 43.5q10 0 28 -6q16 -5 25 -5q31 0 44 32l4 -1l-30 -82l-2 1q-50 42 -80 42t-53 -39.5t-23 -95.5q0 -41 21 -66t52 -25q61 0 125 53z" />
    <glyph glyph-name="d" unicode="d" horiz-adv-x="373" 
d="M237 122l10 92q-45 31 -89 31q-32 0 -54 -42.5t-22 -103.5q0 -40 15 -64.5t45 -24.5q33 0 58.5 26t33.5 65zM279 123q-9 -52 -9 -78q0 -30 18 -30q31 0 91 45l3 -3q-77 -61 -106 -61q-43 0 -45 66q-16 -30 -42.5 -48t-57.5 -18q-43 0 -74.5 33.5t-31.5 79.5q0 62 40 106
t96 44q42 0 87 -32l28 271l-62 2v5h72q36 0 63 33l2 -1z" />
    <glyph glyph-name="e" unicode="e" horiz-adv-x="311" 
d="M80 100q66 1 106.5 26.5t40.5 64.5q0 22 -17 38t-40 16q-42 0 -66 -38t-24 -102v-5zM81 94q2 -34 26.5 -57t58.5 -23q61 0 125 53l3 -3q-78 -68 -137 -68q-54 0 -93.5 31t-39.5 74q0 65 46 111.5t111 46.5q41 0 71.5 -19t30.5 -45q0 -42 -59.5 -70.5t-142.5 -30.5z" />
    <glyph glyph-name="f" unicode="f" horiz-adv-x="232" 
d="M73 185h-53l2 14h52l1 4q2 7 2 13q0 14 -9 39q-19 51 -19 102q0 62 48.5 107t116.5 45q34 0 58.5 -18t24.5 -44q0 -43 -36 -77l-47 23q52 25 52 53q0 22 -16 37.5t-38 15.5q-45 0 -77.5 -43t-32.5 -103q0 -41 9 -88q6 -28 6 -42q0 -9 -1 -13l-2 -10l104 2l-3 -17h-103
l-74 -488l-55 -2q68 358 90 490z" />
    <glyph glyph-name="g" unicode="g" horiz-adv-x="329" 
d="M228 122l-1 123h-73q-28 0 -52.5 -44t-24.5 -96q0 -41 17 -68t44 -27q30 0 56.5 33.5t33.5 78.5zM218 -60q-39 -9 -61.5 -15t-57.5 -17t-55.5 -21.5t-42 -25t-31.5 -33t-10 -39.5q0 -35 36.5 -63t88.5 -28q58 0 100 40t42 101q0 25 -7 82q-1 7 -2 19zM260 124l-25 -114
q-2 -4 -2 -11q0 -14 9 -41l49 12l2 -11l-48 -12q5 -15 8 -25q23 -67 23 -94q0 -60 -58.5 -100.5t-133.5 -40.5q-74 0 -126 32.5t-52 71.5q0 15 7 29.5t22.5 26.5t31.5 22.5t42.5 21t46.5 17.5t53.5 16t52.5 14t54 14q-3 28 -3 43q0 9 1 15l8 58q-33 -72 -95 -72
q-45 0 -74.5 31.5t-29.5 79.5q0 62 43.5 107t98.5 45q14 0 48 -2q27 -1 35 -1q44 0 58 23l2 -1z" />
    <glyph glyph-name="h" unicode="h" horiz-adv-x="365" 
d="M70 0l-54 -1q10 25 27 123l44 376l-62 2v5h59q20 0 44.5 10.5t31.5 22.5l2 -1l-58 -308l-15 -95q24 61 59 96.5t77 35.5q32 0 54 -19t22 -48q0 -17 -21 -87q-18 -63 -18 -78t14 -15q30 0 101 52l2 -3q-87 -68 -116 -68q-20 0 -28.5 10.5t-8.5 34.5t9 77l9 53q3 15 3 27
q0 20 -7 32t-18 12q-53 0 -93 -60t-55 -151q-4 -32 -4 -35z" />
    <glyph glyph-name="i" unicode="i" horiz-adv-x="219" 
d="M102 357l3 24q2 18 10 25.5t22 7.5h44l-5 -35q-1 -10 -10 -16t-20 -6h-44zM62 122l8 102l-53 6v5h67q35 1 68 44l2 -1l-49 -155q-9 -54 -9 -72t5.5 -23.5t22.5 -5.5q39 0 101 45l3 -3q-93 -68 -133 -68q-42 0 -42 48q0 28 9 78z" />
    <glyph glyph-name="j" unicode="j" horiz-adv-x="190" 
d="M107 357l3 24q2 18 10 25.5t22 7.5h44l-5 -35q-1 -10 -10 -16t-20 -6h-44zM-246 -384q-97 0 -156 55.5t-59 126.5q0 48 30 84t89 48l2 -7q-54 -12 -82 -44.5t-28 -74.5q0 -64 56.5 -114.5t149.5 -50.5q108 0 189 72.5t99 183.5l19 115l23 231l-64 3v5h82q27 0 53 30l2 -1
l-70 -379q-23 -124 -117 -203.5t-218 -79.5z" />
    <glyph glyph-name="k" unicode="k" horiz-adv-x="327" 
d="M71 -3l-53 -1q11 27 28 126l44 376l-64 2v5h72q35 0 64 33l2 -1l-76 -413q-1 -5 -1 -8l149 139q10 1 37 2l52 1l-2 -35h-22q-44 0 -72.5 -10t-59.5 -35l-20 -18h50q34 -93 81.5 -170.5t107 -136t132.5 -91.5t152 -33q77 0 148 50l3 -3q-82 -66 -175 -66q-82 0 -158 33
t-138 92t-111.5 138t-84.5 173h-21q-35 -34 -42 -39l-9 -7q-11 -67 -13 -103z" />
    <glyph glyph-name="l" unicode="l" horiz-adv-x="191" 
d="M42 122l44 376l-57 2v5h59q20 0 35.5 5.5t22 11t15.5 16.5l2 -1q-25 -112 -56.5 -281t-31.5 -205t18 -36q29 0 100 52l3 -3q-87 -68 -116 -68q-20 0 -33.5 12.5t-13.5 35.5q0 28 9 78z" />
    <glyph glyph-name="m" unicode="m" horiz-adv-x="564" 
d="M87 1l-53 -2q9 21 26 123v101l-54 2v5h53q18 0 27.5 8.5t18.5 24.5l2 -1l-3 -133q23 62 57.5 99.5t73.5 37.5q33 0 52 -19t19 -50q0 -11 -2 -17l-6 -31q23 54 55 85.5t68 31.5q34 0 55 -19t21 -50q0 -14 -17 -75q-19 -66 -19 -82q0 -6 4 -10t10 -4q37 0 97 44l3 -2
q-87 -68 -116 -68q-20 0 -28 10.5t-8 33.5t9 78l8 53q3 15 3 27q0 20 -7 32t-18 12q-42 0 -77.5 -47t-54.5 -121q-8 -61 -8 -78l-59 -1q14 33 27 123l8 53q3 15 3 27q0 20 -7 32t-18 12q-47 0 -85.5 -58.5t-54.5 -144.5q-3 -24 -5 -42z" />
    <glyph glyph-name="n" unicode="n" horiz-adv-x="375" 
d="M87 0l-54 -4q9 23 27 126v109l-49 2v5h50q27 0 44 34l2 -1l-4 -145q23 63 58 100.5t75 37.5q34 0 54.5 -19t20.5 -50q0 -21 -17 -72q-23 -70 -23 -92q0 -16 14 -16q30 0 101 52l2 -3q-88 -68 -116 -68q-20 0 -28.5 11.5t-8.5 36.5q0 26 10 78l10 50q2 11 2 23
q0 20 -6.5 34.5t-18.5 14.5q-46 0 -84 -55.5t-55 -137.5q-6 -44 -6 -51z" />
    <glyph glyph-name="o" unicode="o" horiz-adv-x="346" 
d="M85 180q-10 -24 -10 -75q0 -42 25 -68.5t60 -26.5q39 0 68.5 41.5t29.5 98.5q0 43 -22 71.5t-54 28.5q-46 0 -46 -63q0 -8 -17 -8v14q0 33 20.5 52t53.5 19q52 0 86 -31.5t34 -78.5q0 -65 -49 -111.5t-115 -46.5q-53 0 -89 29.5t-36 75.5q0 44 36 98q6 0 15.5 -6.5
t9.5 -12.5z" />
    <glyph glyph-name="p" unicode="p" horiz-adv-x="357" 
d="M36 -2l23 226l-56 5v5h68q48 0 56 3q59 22 93 22q48 0 78 -29t30 -76q0 -64 -42.5 -109t-103.5 -45q-58 0 -82 47l14 14q5 -22 24 -36t46 -14q37 0 63 40.5t26 98.5q0 43 -17 69t-44 26q-31 0 -88 -22q-12 -57 -31 -154l-14 -71q-25 -139 -40 -288l-54 -3q8 19 51 291z
" />
    <glyph glyph-name="q" unicode="q" horiz-adv-x="359" 
d="M251 122v116h-10q-11 0 -27 3q-24 4 -46 4q-41 0 -62.5 -37t-21.5 -102q0 -43 15.5 -69.5t46.5 -26.5t64.5 34t40.5 78zM294 123l-22 -133q-7 -42 -19 -151.5t-14 -140.5l75 -2v-5h-59q-20 0 -35.5 -5.5t-22 -11t-15.5 -16.5l-2 1q18 156 48 330l13 76q-43 -69 -106 -69
q-42 0 -74 31t-32 74q0 69 44.5 113.5t105.5 44.5q14 0 39 -6q19 -4 27 -4q21 0 47.5 9t34.5 21l3 -1z" />
    <glyph glyph-name="r" unicode="r" horiz-adv-x="288" 
d="M96 0l-54 -1q10 25 27 123l-1 101l-53 2v5h50q31 0 53 49l2 -1l-12 -160v-2q0 -3 1 -6q20 65 53 103.5t66 38.5q23 0 42.5 5t20.5 13h2l-7 -56q-1 -8 -22 -8h-47q-34 0 -69 -47.5t-48 -121.5q-4 -34 -4 -37z" />
    <glyph glyph-name="s" unicode="s" horiz-adv-x="297" 
d="M64 83q-27 0 -46 -17.5t-19 -42.5q0 -35 37 -60.5t90 -25.5q46 0 78.5 24t32.5 58q0 60 -86 92q-18 7 -29 11.5t-26.5 13t-24 16.5t-15 20t-6.5 26q0 30 28 45.5t72 15.5q12 0 38 -6q19 -5 25 -5q18 0 27.5 8.5t15.5 23.5l4 -2l-29 -74l-3 1q-51 40 -79 40
q-25 0 -43.5 -10t-18.5 -28q0 -12 14.5 -19.5t46.5 -19.5q128 -46 128 -139q0 -44 -44.5 -75t-107.5 -31q-56 0 -95.5 28.5t-39.5 69.5q0 30 22 51t54 21t55 -21t23 -50q0 -12 -8.5 -20.5t-20.5 -8.5q7 14 7 31q0 24 -16.5 41.5t-40.5 17.5z" />
    <glyph glyph-name="t" unicode="t" horiz-adv-x="251" 
d="M81 234h-67l2 14h67l24 106q6 32 73 32h14h2q-14 -22 -57 -138h96l-3 -14h-97q-22 -64 -30 -111q-7 -40 -7 -60q0 -46 32 -46q36 0 104 51l3 -3q-83 -67 -124 -67q-26 0 -42 16t-16 43q0 19 7 65z" />
    <glyph glyph-name="u" unicode="u" horiz-adv-x="389" 
d="M280 123q-9 -52 -9 -74q0 -34 22 -34q27 0 98 52l3 -3q-93 -68 -120 -68q-43 0 -43 66q0 24 5 57q-22 -57 -54 -90t-70 -33q-28 0 -51.5 17t-23.5 45q0 12 16 71q21 72 21 91q0 20 -19 20q-14 0 -39 -14l-4 4q42 29 62 29q19 0 27.5 -11t8.5 -40q0 -27 -8 -75l-9 -53
q-4 -20 -4 -33q0 -32 27 -32q47 0 83 55.5t51 140.5l6 37l-35 2v5h55q27 0 44 2l2 -1z" />
    <glyph glyph-name="v" unicode="v" horiz-adv-x="347" 
d="M349 284l-111 -162q-63 -93 -65 -122q-24 0 -69 -9q-18 30 -36 148q-4 27 -6.5 40.5t-6.5 31t-8 25t-9 7.5q-17 0 -43 -14l-3 4q45 29 66 29q11 0 20 -11.5t16 -37t11 -44.5t11 -55q15 -83 25 -109q11 9 32 45.5t35 75.5l39 108l-41 2l-1 6h47q62 0 93 43z" />
    <glyph glyph-name="w" unicode="w" horiz-adv-x="550" 
d="M553 284l-107 -162q-70 -104 -71 -122q-40 0 -60 -4q-23 37 -48 164l-28 -38q-69 -95 -71 -122q-24 0 -60 -4q-18 30 -38 142q-5 26 -7.5 40t-6.5 31t-8.5 24.5t-9.5 7.5q-16 0 -44 -15l-2 4q47 30 61 30q10 0 18 -6t14 -19t11 -25t9.5 -34.5t7 -35.5t6.5 -39
q13 -74 22 -98q52 72 69 123l39 116l-83 2l-1 5h106q19 0 40 11t31 25l4 -1l-55 -84q6 -42 24.5 -105t32.5 -92q52 72 69 123l39 116l-43 2l-1 5h66q20 0 40.5 11t30.5 25z" />
    <glyph glyph-name="x" unicode="x" horiz-adv-x="354" 
d="M74 -5l-72 8q88 68 139 123l6 6q-65 113 -84 113q-20 0 -44 -12l-2 4q44 29 62 29q15 0 39 -31.5t49 -80.5l81 88l-45 2l-1 5h79q33 0 72 37l4 -2l-175 -161q13 -29 24 -55q10 -24 21.5 -36t31.5 -12q32 0 96 47l3 -3q-85 -68 -112 -68q-25 0 -33 16q-21 40 -50 93
q-75 -72 -89 -110z" />
    <glyph glyph-name="y" unicode="y" horiz-adv-x="369" 
d="M286 109q-6 -35 -14 -135q-9 -113 -17 -158q-18 -113 -113.5 -184.5t-222.5 -71.5q-109 0 -186 58t-77 140q0 67 60.5 114.5t145.5 47.5l-6 -36q-77 0 -132 -36t-55 -88q0 -76 74 -130t179 -54q107 0 187 67.5t97 172.5q6 34 15 124q13 125 23 172q-26 -53 -62 -84.5
t-73 -31.5q-26 0 -50.5 17.5t-24.5 43.5q0 35 23 94q19 51 19 68q0 9 -5.5 15t-12.5 6q-12 0 -42 -14l-3 4q42 29 57 29q17 0 29.5 -9.5t12.5 -23.5q0 -18 -11 -69q-14 -66 -14 -94q0 -46 25 -46q45 0 86 47t61 119q6 31 11 59l-34 2v5h54q26 0 52 30l2 -1z" />
    <glyph glyph-name="z" unicode="z" horiz-adv-x="297" 
d="M-1 3q82 68 127 123l70 87q-125 0 -170 1l18 45q25 0 81 -6q63 -7 94 -7q29 0 66 40l4 -2l-145 -162q-49 -56 -75 -84q28 4 48 4q9 0 30 -2q29 -3 44 -3q56 0 93 30l3 -3q-78 -68 -107 -68q-14 0 -42 5q-31 6 -51 6q-45 0 -67 -11z" />
    <glyph glyph-name="braceleft" unicode="{" horiz-adv-x="277" 
d="M208 -133l-4 -14q-17 2 -34 6.5t-43.5 14.5t-43 29.5t-16.5 45.5q0 8 1 16q4 30 29 126t31 135v2q0 14 -37 36l-8 6l10 6q45 24 47 37q6 39 8 135.5t6 126.5t25.5 53t52.5 34.5t51 16.5t39 8v-14q-14 -2 -28 -7t-30.5 -15t-28 -29.5t-15.5 -46.5q-4 -29 -15 -125.5
t-17 -136.5q-2 -16 -57 -34q-15 -5 -22 -9q5 -3 18 -8q49 -17 49 -32v-3q-6 -40 -22 -136.5t-20 -125.5q-1 -9 -1 -17q0 -22 7.5 -38t20 -24.5t24 -12.5t23.5 -6z" />
    <glyph glyph-name="bar" unicode="|" horiz-adv-x="172" 
d="M147 696l38 -4l-123 -869l-38 4z" />
    <glyph glyph-name="braceright" unicode="}" horiz-adv-x="272" 
d="M26 -133q14 2 28 7t30.5 15t28 29.5t15.5 46.5q4 29 15 125.5t17 136.5q2 17 59 35q14 4 20 8q-5 4 -20 9q-47 17 -47 31v3q6 40 22 136.5t20 125.5q1 9 1 17q0 22 -7.5 38t-20 24.5t-24 12.5t-23.5 6l4 14q17 -2 34 -6.5t43.5 -14.5t43 -29.5t16.5 -45.5q0 -8 -1 -16
q-4 -30 -29 -126.5t-31 -135.5v-1q0 -12 37 -36l8 -6l-10 -6q-45 -24 -47 -37q-6 -39 -8 -135.5t-6 -126.5t-25.5 -53t-52.5 -34.5t-51 -16.5t-39 -8v14z" />
    <glyph glyph-name="asciitilde" unicode="~" horiz-adv-x="382" 
d="M360 266q-40 -78 -83 -78q-21 0 -80 18q-58 17 -79 17q-37 0 -59 -41l-13 7q40 78 83 78q17 0 79 -17q63 -18 80 -18q37 0 59 41z" />
    <glyph glyph-name="uni00A0" unicode="&#xa0;" horiz-adv-x="200" 
 />
    <glyph glyph-name="exclamdown" unicode="&#xa1;" horiz-adv-x="260" 
d="M227 340l-4 -19q-5 -31 -29 -31h-37l6 32q4 18 28 18h36zM156 185l49 1q-15 -49 -26 -139q-12 -127 -14 -247l-70 -1q25 123 44 247q15 100 17 139z" />
    <glyph glyph-name="cent" unicode="&#xa2;" horiz-adv-x="330" 
d="M230 560l14 -1l-23 -161q9 -2 18 -5q16 -5 25 -5q31 0 44 32l4 -1l-30 -82l-2 1q-38 32 -62 39l-34 -242q6 -1 13 -1q61 0 125 53l3 -3q-25 -22 -41 -34t-42.5 -23t-54.5 -11h-6l-19 -136h-14l20 137q-47 6 -80.5 38.5t-33.5 75.5q0 68 45.5 117t107.5 51zM171 139
l33 241h-4q-36 0 -63.5 -43t-27.5 -102q0 -33 18 -59.5t44 -36.5z" />
    <glyph glyph-name="sterling" unicode="&#xa3;" horiz-adv-x="432" 
d="M205 248q-4 -50 -41.5 -109.5t-79.5 -104.5q38 26 82 27q36 0 107 -9q68 -8 101 -9q40 0 61 19l2 -5q-68 -62 -115 -62q-37 0 -100 20q-55 17 -82 17q-51 0 -92 -36l-12 13q30 30 68 103.5t42 135.5h-67l4 18h63q-1 19 -6 56q-9 61 -9 100q0 51 48 87t116 36
q46 0 78.5 -27.5t32.5 -66.5q0 -51 -27 -89l-34 26q38 34 38 63q0 33 -26 56.5t-62 23.5q-43 0 -73.5 -32t-30.5 -77q0 -34 8 -86q7 -45 7 -70h142l-4 -18h-139z" />
    <glyph glyph-name="currency" unicode="&#xa4;" horiz-adv-x="334" 
d="M126 241q0 -28 19 -47t48 -19q34 0 59 25.5t25 58.5q0 28 -18.5 47t-47.5 19q-34 0 -59.5 -25.5t-25.5 -58.5zM99 353l14 13l30 -35q32 24 70 24t65 -25l38 36l11 -13l-39 -34q19 -25 19 -58q0 -44 -32 -78l31 -32l-14 -13l-29 34q-33 -27 -72 -27q-40 0 -67 26l-35 -33
l-11 13l36 31q-18 25 -18 57q0 46 35 81z" />
    <glyph glyph-name="yen" unicode="&#xa5;" horiz-adv-x="508" 
d="M509 578l-127 -215q-82 -140 -91 -169h121l-3 -18h-123q-3 -21 -5 -42h119l-3 -18h-118q-7 -59 -13 -116l-65 -1q9 28 23 117h-122l3 18h122q3 20 6 42h-119l3 18h115q-22 39 -68 157q-30 80 -49 120.5t-30 40.5q-16 0 -46 -19l-4 5q20 16 48.5 31.5t40.5 15.5
q18 0 38 -47t50 -140q37 -115 56 -154h2q53 80 89 164l70 162l-70 3l1 7h66q22 0 45.5 11t34.5 28z" />
    <glyph glyph-name="brokenbar" unicode="&#xa6;" horiz-adv-x="172" 
d="M70 151l38 -4l-46 -324l-38 4zM147 696l38 -4l-44 -309l-38 4z" />
    <glyph glyph-name="section" unicode="&#xa7;" horiz-adv-x="442" 
d="M185 357q-37 50 -37 107q0 50 44 85.5t107 35.5q18 0 45.5 -5t32.5 -5q19 0 24.5 6.5t7.5 24.5h4v-125h-5v15q-2 27 -36 51t-73 24q-38 0 -64.5 -31.5t-26.5 -75.5q0 -23 7.5 -43.5t25 -41.5t30.5 -33.5t39 -35.5q29 -25 44 -40t35 -40t29 -51t9 -56q0 -43 -37 -77
t-95 -48q37 -50 37 -107q0 -50 -44 -85.5t-107 -35.5q-18 0 -45.5 5t-32.5 5q-19 0 -24.5 -6t-7.5 -25h-4v125h5v-15q2 -27 36 -51t73 -24q38 0 64.5 31.5t26.5 75.5q0 23 -7.5 44t-25 41.5t-30.5 33.5t-39 36q-29 25 -44 39.5t-35 39.5t-29 51.5t-9 55.5q0 43 37 77t95 48z
M284 12q37 13 60 43t23 68q0 22 -7.5 42.5t-24.5 41t-30.5 33t-38.5 35.5q-49 43 -70 68q-37 -13 -60 -43t-23 -68q0 -22 7.5 -42.5t24.5 -41t30.5 -33t38.5 -35.5q49 -43 70 -68z" />
    <glyph glyph-name="dieresis" unicode="&#xa8;" horiz-adv-x="199" 
d="M201 426l3 22q5 35 28 35h40l-6 -37q-1 -9 -8.5 -14.5t-18.5 -5.5h-38zM54 426l3 22q5 35 28 35h40l-6 -37q-1 -9 -8.5 -14.5t-18.5 -5.5h-38z" />
    <glyph glyph-name="copyright" unicode="&#xa9;" horiz-adv-x="687" 
d="M474 115l3 -5q-34 -29 -62.5 -44.5t-61.5 -15.5q-46 0 -76 26.5t-30 68.5q0 64 36 103t92 39q10 0 25 -5q14 -5 22 -5q28 0 40 29l4 -2l-26 -73l-3 1q-45 38 -72 38t-48 -35.5t-21 -86.5q0 -37 19 -59.5t47 -22.5q54 0 112 49zM397 459q-85 0 -159 -44.5t-118 -118.5
t-44 -156q0 -109 74.5 -184t186.5 -75q85 0 159 44.5t118 118.5t44 156q0 109 -75 184t-186 75zM399 473q117 0 195 -78.5t78 -192.5q0 -87 -46.5 -164.5t-124.5 -124t-166 -46.5q-117 0 -195 78.5t-78 192.5q0 87 46.5 164.5t124.5 124t166 46.5z" />
    <glyph glyph-name="ordfeminine" unicode="&#xaa;" horiz-adv-x="355" 
d="M211 377.5l9.75 84.75q-6.75 0 -21 1.5q-18.75 2.25 -29.25 2.25q-28.5 0 -48.75 -30.375t-20.25 -78.375q0 -64.5 42.75 -64.5q22.5 0 42 25.5t24.75 59.25zM250 378.25q-1.5 -14.25 -1.5 -36q0 -42 18.75 -42q24.75 0 67.5 36l3 -2.25q-55.5 -48 -77.25 -48
q-29.25 0 -32.25 70.5q-10.5 -31.5 -36.75 -52.5t-55.5 -21q-31.5 0 -52.875 24.375t-21.375 59.625q0 48.75 31.5 79.5t78.75 30.75q10.5 0 33 -4.5q17.25 -3 23.25 -3q24.75 0 33.375 5.625t13.875 19.875l2.25 -0.75z" />
    <glyph glyph-name="guillemotleft" unicode="&#xab;" horiz-adv-x="260" 
d="M230 266l9 -12q-20 -16 -41.5 -43.5t-26.5 -38.5q2 -12 16 -39t29 -43l-13 -12l-22 25q-42 52 -42 68q0 14 63 71zM149 266l9 -12q-20 -16 -41.5 -43.5t-26.5 -38.5q2 -12 16 -39t29 -43l-13 -12l-22 25q-42 52 -42 68q0 14 63 71z" />
    <glyph glyph-name="logicalnot" unicode="&#xac;" horiz-adv-x="492" 
d="M439 244l-3 -18l-17 -154h-18l25 154h-314l2 18h325z" />
    <glyph glyph-name="uni00AD" unicode="&#xad;" horiz-adv-x="378" 
d="M349 226h-255l3 18h255z" />
    <glyph glyph-name="registered" unicode="&#xae;" horiz-adv-x="687" 
d="M397 459q-85 0 -159 -44.5t-118 -118.5t-44 -156q0 -109 74.5 -184t186.5 -75q85 0 159 44.5t118 118.5t44 156q0 109 -75 184t-186 75zM399 473q117 0 195 -78.5t78 -192.5q0 -87 -46.5 -164.5t-124.5 -124t-166 -46.5q-117 0 -195 78.5t-78 192.5q0 87 46.5 164.5
t124.5 124t166 46.5zM276 16l-36 -1q8 25 18 100l20 223l-32 2v8h76q17 0 41 2q24 1 38 1q39 0 66 -28.5t27 -69.5q0 -46 -31.5 -80.5t-76.5 -38.5q7 -45 28 -75.5t50 -30.5q33 0 70 37l3 -5q-48 -48 -89 -48q-36 0 -62.5 35t-33.5 87l-38 2l1 9l55 1q36 0 62 31.5t26 77.5
q0 34 -19 57.5t-46 23.5q-39 0 -77 1l-1 -2l9 -1l-37 -219q-9 -66 -11 -99z" />
    <glyph glyph-name="macron" unicode="&#xaf;" horiz-adv-x="250" 
d="M85 462h209l-2 -18h-209z" />
    <glyph glyph-name="degree" unicode="&#xb0;" horiz-adv-x="261" 
d="M176 537q-20 0 -34 -19.5t-14 -46.5q0 -24 15 -41t36 -17q20 0 34 19.5t14 46.5q0 24 -15 41t-36 17zM189 555q30 0 51 -20t21 -49q0 -37 -28 -64t-67 -27q-30 0 -51 20t-21 49q0 37 28 64t67 27z" />
    <glyph glyph-name="plusminus" unicode="&#xb1;" horiz-adv-x="492" 
d="M392 6h-291l3 18h291zM121 266l2 18h158l17 154h18l-25 -154h157l-2 -18h-158l-17 -154h-18l25 154h-157z" />
    <glyph glyph-name="uni00B2" unicode="&#xb2;" horiz-adv-x="351" 
d="M156 403q-26 0 -45 24.5t-19 57.5q0 47 38 81t91 34q48 0 82 -27.5t34 -66.5q0 -34 -12 -66t-28 -55t-45 -49t-50 -41t-57 -39l-50 -33q10 5 33 10.5t36 5.5q32 0 71 -7q42 -7 64 -7q29 0 46 12l3 -6q-59 -43 -85 -43q-28 0 -76 16q-36 12 -59 12q-31 0 -67 -29l-16 19
q25 23 71 58q34 27 53.5 43t46 42t40 47t24 49t10.5 57q0 35 -23 59.5t-56 24.5q-39 0 -66.5 -29t-27.5 -69q0 -23 17.5 -40t42.5 -17z" />
    <glyph glyph-name="uni00B3" unicode="&#xb3;" horiz-adv-x="318" 
d="M323 323q0 -60 -69.5 -103t-167.5 -43h-44v19l44 -2q78 0 132 38.5t54 93.5q0 37 -30 62.5t-73 25.5l-48 -3l1 18h57q38 0 64 24.5t26 60.5q0 30 -18 50.5t-45 20.5t-46.5 -18.5t-23.5 -47.5l-1 -5h-46q5 38 41.5 62t84.5 24q43 0 73 -23.5t30 -57.5t-30.5 -59.5
t-77.5 -37.5q49 -8 81 -35t32 -64z" />
    <glyph glyph-name="acute" unicode="&#xb4;" horiz-adv-x="152" 
d="M79 408l72 101q5 7 14 7q7 0 12 -4l37 -34l-2 -2q-73 -9 -124 -76z" />
    <glyph glyph-name="uni00B5" unicode="&#xb5;" horiz-adv-x="389" 
d="M12 230q42 29 62 29q19 0 27.5 -11t8.5 -40q0 -27 -8 -75l-9 -53q-4 -20 -4 -33q0 -32 27 -32q47 0 83 55.5t51 140.5l6 37l-35 2v5h55q27 0 44 2l2 -1l-42 -133q-9 -52 -9 -74q0 -34 22 -34q27 0 98 52l3 -3q-93 -68 -120 -68q-43 0 -43 66q0 24 5 57q-22 -57 -54 -90
t-70 -33q-18 0 -36.5 8t-28.5 23q-13 -65 -14 -95q0 -32 4 -44q13 0 25.5 -11.5t12.5 -27.5q0 -21 -9 -42t-18 -21q-12 0 -22 33t-10 76q0 75 21 171q2 15 16 63q21 72 21 91q0 20 -19 20q-14 0 -39 -14z" />
    <glyph glyph-name="paragraph" unicode="&#xb6;" horiz-adv-x="527" 
d="M320 566q-70 0 -115.5 -64.5t-45.5 -157.5q0 -79 36.5 -130.5t99.5 -51.5l39 280q3 22 4 54q0 34 -18 70zM698 682l-2 -14q-38 0 -67.5 -9.5t-49.5 -23t-34.5 -41.5t-22 -49.5t-13.5 -64t-8 -68.5t-5 -79q-6 -110 -15 -169l-55 -394h-60l55 393q6 45 12 132q4 66 7.5 101
t14 84t27.5 84q-29 2 -83 2h-63q19 -19 36 -57t17 -69q0 -33 -5 -71l-85 -599h-60l53 378q-77 0 -132.5 57.5t-55.5 140.5q0 95 67 164.5t153 69.5h166q60 102 208 102z" />
    <glyph glyph-name="periodcentered" unicode="&#xb7;" horiz-adv-x="126" 
d="M78 270q0 9 7 16t16 7t16 -7t7 -16t-7 -16t-16 -7t-16 7t-7 16z" />
    <glyph glyph-name="cedilla" unicode="&#xb8;" horiz-adv-x="306" 
d="M112 0l-16 -58q22 9 42 9q32 0 54.5 -19.5t22.5 -46.5q0 -48 -48.5 -83t-120.5 -44l-2 14q56 8 93.5 38t37.5 70q0 24 -11.5 40.5t-27.5 16.5q-26 0 -45 -13q-8 2 -13 6l21 74z" />
    <glyph glyph-name="uni00B9" unicode="&#xb9;" horiz-adv-x="168" 
d="M123 185l-45 -1q10 31 33 198l11 180l-51 -12l-2 7l47 15q52 16 60 32l2 -1l-30 -220q-19 -137 -25 -198z" />
    <glyph glyph-name="ordmasculine" unicode="&#xba;" horiz-adv-x="267" 
d="M104.75 421q-7.5 -18 -7.5 -56.25q0 -31.5 18.75 -51.375t45 -19.875q29.25 0 51.375 31.125t22.125 73.875q0 32.25 -16.5 53.625t-40.5 21.375q-34.5 0 -34.5 -47.25q0 -6 -12.75 -6v10.5q0 24.75 15.375 39t40.125 14.25q39 0 64.5 -23.625t25.5 -58.875
q0 -48.75 -36.75 -83.625t-86.25 -34.875q-39.75 0 -66.75 22.125t-27 56.625q0 33 27 73.5q4.5 0 11.625 -4.875t7.125 -9.375z" />
    <glyph glyph-name="guillemotright" unicode="&#xbb;" horiz-adv-x="260" 
d="M185 266l20 -24q44 -54 44 -69v-1q-2 -14 -63 -69l-28 -25l-9 12q19 15 39 41t29 41q-5 15 -17.5 41t-27.5 41zM105 266l20 -24q44 -54 44 -69v-1q-2 -14 -63 -69l-28 -25l-9 12q19 15 39 41t29 41q-5 15 -17.5 41t-27.5 41z" />
    <glyph glyph-name="questiondown" unicode="&#xbf;" horiz-adv-x="382" 
d="M247 340l-4 -19q-5 -31 -29 -31h-37l6 32q4 18 28 18h36zM93 160q10 0 31 9q40 16 73 16q42 0 71.5 -18.5t29.5 -45.5q0 -26 -11 -47t-34 -38.5t-41 -28t-51 -26.5q-27 -13 -41 -21t-32 -20.5t-25.5 -26t-7.5 -28.5q0 -30 26.5 -51t64.5 -21q46 0 87.5 33t52.5 96h7
l-18 -111q-12 0 -41 -13q-52 -23 -90 -23q-57 0 -97.5 27t-40.5 66q0 21 9.5 39t31 34t38.5 26t47 26q28 14 44 23t35 23t28 29t9 32q0 18 -16 31t-39 13q-95 0 -109 -102h-5z" />
    <glyph glyph-name="Agrave" unicode="&#xc0;" horiz-adv-x="501" 
d="M323 590l-11 -7q-29 37 -56.5 56.5t-60.5 24.5l-2 3l40 29q6 4 12 4q9 0 14 -7zM58 0l-50 -4q21 36 78 167l162 366l16 -4l-144 -324h192l-31 328l-76 4v7l152 1l7 -340h35q18 0 30 15t26 51l6 -1q-16 -52 -29 -79h-68l1 -23l1.5 -45t2 -35t4 -29t7.5 -18.5t12.5 -13
t17.5 -3.5q33 0 111 69l4 -4q-30 -28 -49.5 -44.5t-45 -31t-44.5 -14.5q-30 0 -46 39.5t-25 128.5l-2 24h-199l-11 -23q-43 -97 -45 -164z" />
    <glyph glyph-name="Aacute" unicode="&#xc1;" horiz-adv-x="501" 
d="M258 593l72 101q5 7 14 7q7 0 12 -4l37 -34l-2 -2q-73 -9 -124 -76zM58 0l-50 -4q21 36 78 167l162 366l16 -4l-144 -324h192l-31 328l-76 4v7l152 1l7 -340h35q18 0 30 15t26 51l6 -1q-16 -52 -29 -79h-68l1 -23l1.5 -45t2 -35t4 -29t7.5 -18.5t12.5 -13t17.5 -3.5
q33 0 111 69l4 -4q-30 -28 -49.5 -44.5t-45 -31t-44.5 -14.5q-30 0 -46 39.5t-25 128.5l-2 24h-199l-11 -23q-43 -97 -45 -164z" />
    <glyph glyph-name="Acircumflex" unicode="&#xc2;" horiz-adv-x="501" 
d="M289 692h20l97 -78l-14 -14l-93 82l-93 -82l-14 14zM58 0l-50 -4q21 36 78 167l162 366l16 -4l-144 -324h192l-31 328l-76 4v7l152 1l7 -340h35q18 0 30 15t26 51l6 -1q-16 -52 -29 -79h-68l1 -23l1.5 -45t2 -35t4 -29t7.5 -18.5t12.5 -13t17.5 -3.5q33 0 111 69l4 -4
q-30 -28 -49.5 -44.5t-45 -31t-44.5 -14.5q-30 0 -46 39.5t-25 128.5l-2 24h-199l-11 -23q-43 -97 -45 -164z" />
    <glyph glyph-name="Atilde" unicode="&#xc3;" horiz-adv-x="501" 
d="M395 674l12 -6q-34 -66 -73 -66q-19 0 -52 20.5t-47 20.5q-25 0 -60 -49l-12 8q13 18 22 28.5t23 20.5t27 10q20 0 53 -21t48 -21q31 0 59 55zM58 0l-50 -4q21 36 78 167l162 366l16 -4l-144 -324h192l-31 328l-76 4v7l152 1l7 -340h35q18 0 30 15t26 51l6 -1
q-16 -52 -29 -79h-68l1 -23l1.5 -45t2 -35t4 -29t7.5 -18.5t12.5 -13t17.5 -3.5q33 0 111 69l4 -4q-30 -28 -49.5 -44.5t-45 -31t-44.5 -14.5q-30 0 -46 39.5t-25 128.5l-2 24h-199l-11 -23q-43 -97 -45 -164z" />
    <glyph glyph-name="Adieresis" unicode="&#xc4;" horiz-adv-x="501" 
d="M324 611l3 22q5 35 28 35h40l-6 -37q-1 -9 -8.5 -14.5t-18.5 -5.5h-38zM177 611l3 22q5 35 28 35h40l-6 -37q-1 -9 -8.5 -14.5t-18.5 -5.5h-38zM58 0l-50 -4q21 36 78 167l162 366l16 -4l-144 -324h192l-31 328l-76 4v7l152 1l7 -340h35q18 0 30 15t26 51l6 -1
q-16 -52 -29 -79h-68l1 -23l1.5 -45t2 -35t4 -29t7.5 -18.5t12.5 -13t17.5 -3.5q33 0 111 69l4 -4q-30 -28 -49.5 -44.5t-45 -31t-44.5 -14.5q-30 0 -46 39.5t-25 128.5l-2 24h-199l-11 -23q-43 -97 -45 -164z" />
    <glyph glyph-name="Aring" unicode="&#xc5;" horiz-adv-x="501" 
d="M245 633q0 -18 12 -30t30 -12q23 0 39.5 17t16.5 39q0 18 -12 30t-30 12q-23 0 -39.5 -17.5t-16.5 -38.5zM303 703q24 0 39.5 -15.5t15.5 -38.5q0 -28 -22 -50t-51 -22q-24 0 -39.5 15.5t-15.5 38.5q0 28 22 50t51 22zM58 0l-50 -4q21 36 78 167l162 366l16 -4l-144 -324
h192l-31 328l-76 4v7l152 1l7 -340h35q18 0 30 15t26 51l6 -1q-16 -52 -29 -79h-68l1 -23l1.5 -45t2 -35t4 -29t7.5 -18.5t12.5 -13t17.5 -3.5q33 0 111 69l4 -4q-30 -28 -49.5 -44.5t-45 -31t-44.5 -14.5q-30 0 -46 39.5t-25 128.5l-2 24h-199l-11 -23q-43 -97 -45 -164z
" />
    <glyph glyph-name="AE" unicode="&#xc6;" horiz-adv-x="695" 
d="M280 -3l2 20q15 -3 46 -3q8 35 25 159q1 9 2.5 27t2.5 27h-226l-29 -63q-43 -97 -45 -164l-50 -4q21 36 78 167l162 366l16 -4l-126 -284h221l24 284l-185 8l1 7h291l191 9l-20 -120h-7l8 84l-175 13h-47v-2l20 -3l-34 -200h14l100 5l17 75h7q-5 -53 -10 -89
q-4 -34 -16 -97h-7l5 84l-78 8h-34l-23 -133q-14 -95 -18 -160h62l179 13l15 84h7l-15 -125l-13 1l-2 4l-172 9q-109 0 -164 -3z" />
    <glyph glyph-name="Ccedilla" unicode="&#xc7;" horiz-adv-x="408" 
d="M301 545q15 0 48 -7q24 -6 32 -6q21 0 31 10.5t17 30.5l4 -1l-31 -104l-3 1q-19 17 -54.5 37.5t-55.5 20.5q-52 0 -90.5 -42.5t-56.5 -109.5t-18 -150q0 -95 33.5 -151t91.5 -56q74 0 144 71l4 -4q-29 -29 -47.5 -44.5t-49 -30.5t-61.5 -15h-8l-14 -53q22 9 42 9
q32 0 54.5 -19t22.5 -47q0 -48 -48.5 -82.5t-120.5 -44.5l-2 14q56 8 93.5 38t37.5 70q0 24 -11.5 40.5t-27.5 16.5q-26 0 -45 -13q-8 2 -13 6l19 67q-68 10 -110.5 77.5t-42.5 163.5q0 134 69 220.5t167 86.5z" />
    <glyph glyph-name="Egrave" unicode="&#xc8;" horiz-adv-x="435" 
d="M293 590l-11 -7q-29 37 -56.5 56.5t-60.5 24.5l-2 3l40 29q6 4 12 4q9 0 14 -7zM20 -3l2 20q15 -3 46 -3q8 35 25 159l31 356l-69 4v7h195l191 9l-20 -120h-7l8 84l-175 13h-67v-2l20 -3l-34 -200h34l100 5l17 75h7q-5 -53 -10 -89q-4 -34 -16 -97h-7l5 84l-78 8h-54
l-23 -133q-14 -95 -18 -160h82l179 13l15 84h7l-15 -125l-13 1l-2 4l-172 9q-129 0 -184 -3z" />
    <glyph glyph-name="Eacute" unicode="&#xc9;" horiz-adv-x="435" 
d="M228 593l72 101q5 7 14 7q7 0 12 -4l37 -34l-2 -2q-73 -9 -124 -76zM20 -3l2 20q15 -3 46 -3q8 35 25 159l31 356l-69 4v7h195l191 9l-20 -120h-7l8 84l-175 13h-67v-2l20 -3l-34 -200h34l100 5l17 75h7q-5 -53 -10 -89q-4 -34 -16 -97h-7l5 84l-78 8h-54l-23 -133
q-14 -95 -18 -160h82l179 13l15 84h7l-15 -125l-13 1l-2 4l-172 9q-129 0 -184 -3z" />
    <glyph glyph-name="Ecircumflex" unicode="&#xca;" horiz-adv-x="435" 
d="M259 692h20l97 -78l-14 -14l-93 82l-93 -82l-14 14zM20 -3l2 20q15 -3 46 -3q8 35 25 159l31 356l-69 4v7h195l191 9l-20 -120h-7l8 84l-175 13h-67v-2l20 -3l-34 -200h34l100 5l17 75h7q-5 -53 -10 -89q-4 -34 -16 -97h-7l5 84l-78 8h-54l-23 -133q-14 -95 -18 -160h82
l179 13l15 84h7l-15 -125l-13 1l-2 4l-172 9q-129 0 -184 -3z" />
    <glyph glyph-name="Edieresis" unicode="&#xcb;" horiz-adv-x="435" 
d="M301 611l3 22q5 35 28 35h40l-6 -37q-1 -9 -8.5 -14.5t-18.5 -5.5h-38zM154 611l3 22q5 35 28 35h40l-6 -37q-1 -9 -8.5 -14.5t-18.5 -5.5h-38zM20 -3l2 20q15 -3 46 -3q8 35 25 159l31 356l-69 4v7h195l191 9l-20 -120h-7l8 84l-175 13h-67v-2l20 -3l-34 -200h34l100 5
l17 75h7q-5 -53 -10 -89q-4 -34 -16 -97h-7l5 84l-78 8h-54l-23 -133q-14 -95 -18 -160h82l179 13l15 84h7l-15 -125l-13 1l-2 4l-172 9q-129 0 -184 -3z" />
    <glyph glyph-name="Igrave" unicode="&#xcc;" horiz-adv-x="206" 
d="M193 590l-11 -7q-29 37 -56.5 56.5t-60.5 24.5l-2 3l40 29q6 4 12 4q9 0 14 -7zM121 0l-60 -1q13 41 30 164l32 366l-68 4v7l153 1l-3 -13l-5 -3l-60 -361q-16 -108 -19 -164z" />
    <glyph glyph-name="Iacute" unicode="&#xcd;" horiz-adv-x="206" 
d="M128 593l72 101q5 7 14 7q7 0 12 -4l37 -34l-2 -2q-73 -9 -124 -76zM121 0l-60 -1q13 41 30 164l32 366l-68 4v7l153 1l-3 -13l-5 -3l-60 -361q-16 -108 -19 -164z" />
    <glyph glyph-name="Icircumflex" unicode="&#xce;" horiz-adv-x="206" 
d="M139 692h20l97 -78l-14 -14l-93 82l-93 -82l-14 14zM121 0l-60 -1q13 41 30 164l32 366l-68 4v7l153 1l-3 -13l-5 -3l-60 -361q-16 -108 -19 -164z" />
    <glyph glyph-name="Idieresis" unicode="&#xcf;" horiz-adv-x="206" 
d="M201 611l3 22q5 35 28 35h40l-6 -37q-1 -9 -8.5 -14.5t-18.5 -5.5h-38zM54 611l3 22q5 35 28 35h40l-6 -37q-1 -9 -8.5 -14.5t-18.5 -5.5h-38zM121 0l-60 -1q13 41 30 164l32 366l-68 4v7l153 1l-3 -13l-5 -3l-60 -361q-16 -108 -19 -164z" />
    <glyph glyph-name="Eth" unicode="&#xd0;" horiz-adv-x="550" 
d="M98 13q56 1 152 1q55 0 107 40t84.5 109t32.5 147q0 93 -42.5 155t-108.5 62q-35 0 -107 2l-1 -3l14 -3l-41 -244h114l-3 -18h-114l-14 -87q-9 -74 -9 -111q0 -14 1 -28l-61 -1q14 39 25 139l7 88h-90l3 18h88l17 251l-68 3l-1 7l142 1q21 0 57 2t54 2q86 0 142 -67.5
t56 -167.5q0 -63 -24.5 -121.5t-64.5 -99t-92 -65t-104 -24.5h-155z" />
    <glyph glyph-name="Ntilde" unicode="&#xd1;" horiz-adv-x="483" 
d="M427 674l12 -6q-34 -66 -73 -66q-19 0 -52 20.5t-47 20.5q-25 0 -60 -49l-12 8q13 18 22 28.5t23 20.5t27 10q20 0 53 -21t48 -21q31 0 59 55zM111 0l-51 -4q10 33 43 267l21 266l-69 4v7h153q0 -37 8 -57l179 -456q11 81 24 236l9 266l-61 4v7l112 1l-41 -277
q-19 -128 -33 -264l-58 -8l-181 488q-5 14 -5 48h-12l-22 -264q-15 -138 -16 -264z" />
    <glyph glyph-name="Ograve" unicode="&#xd2;" horiz-adv-x="473" 
d="M323 590l-11 -7q-29 37 -56.5 56.5t-60.5 24.5l-2 3l40 29q6 4 12 4q9 0 14 -7zM107 216q0 -84 36 -143.5t87 -59.5q74 0 119 86t45 226q0 84 -35.5 143t-85.5 59q-74 0 -120 -85.5t-46 -225.5zM44 227q0 142 67 230t174 88q72 0 122.5 -68t50.5 -164q0 -142 -67 -230
t-173 -88q-72 0 -123 68t-51 164z" />
    <glyph glyph-name="Oacute" unicode="&#xd3;" horiz-adv-x="473" 
d="M256 593l72 101q5 7 14 7q7 0 12 -4l37 -34l-2 -2q-73 -9 -124 -76zM107 216q0 -84 36 -143.5t87 -59.5q74 0 119 86t45 226q0 84 -35.5 143t-85.5 59q-74 0 -120 -85.5t-46 -225.5zM44 227q0 142 67 230t174 88q72 0 122.5 -68t50.5 -164q0 -142 -67 -230t-173 -88
q-72 0 -123 68t-51 164z" />
    <glyph glyph-name="Ocircumflex" unicode="&#xd4;" horiz-adv-x="473" 
d="M295 692h20l97 -78l-14 -14l-93 82l-93 -82l-14 14zM107 216q0 -84 36 -143.5t87 -59.5q74 0 119 86t45 226q0 84 -35.5 143t-85.5 59q-74 0 -120 -85.5t-46 -225.5zM44 227q0 142 67 230t174 88q72 0 122.5 -68t50.5 -164q0 -142 -67 -230t-173 -88q-72 0 -123 68
t-51 164z" />
    <glyph glyph-name="Otilde" unicode="&#xd5;" horiz-adv-x="473" 
d="M408 674l12 -6q-34 -66 -73 -66q-19 0 -52 20.5t-47 20.5q-25 0 -60 -49l-12 8q13 18 22 28.5t23 20.5t27 10q20 0 53 -21t48 -21q31 0 59 55zM107 216q0 -84 36 -143.5t87 -59.5q74 0 119 86t45 226q0 84 -35.5 143t-85.5 59q-74 0 -120 -85.5t-46 -225.5zM44 227
q0 142 67 230t174 88q72 0 122.5 -68t50.5 -164q0 -142 -67 -230t-173 -88q-72 0 -123 68t-51 164z" />
    <glyph glyph-name="Odieresis" unicode="&#xd6;" horiz-adv-x="473" 
d="M337 611l3 22q5 35 28 35h40l-6 -37q-1 -9 -8.5 -14.5t-18.5 -5.5h-38zM190 611l3 22q5 35 28 35h40l-6 -37q-1 -9 -8.5 -14.5t-18.5 -5.5h-38zM107 216q0 -84 36 -143.5t87 -59.5q74 0 119 86t45 226q0 84 -35.5 143t-85.5 59q-74 0 -120 -85.5t-46 -225.5zM44 227
q0 142 67 230t174 88q72 0 122.5 -68t50.5 -164q0 -142 -67 -230t-173 -88q-72 0 -123 68t-51 164z" />
    <glyph glyph-name="multiply" unicode="&#xd7;" horiz-adv-x="365" 
d="M325 381l11 -12l-125 -109l102 -109l-14 -12l-96 114l-121 -114l-11 12l125 109l-102 109l14 12l96 -114z" />
    <glyph glyph-name="Oslash" unicode="&#xd8;" horiz-adv-x="473" 
d="M57 -34l-12 8l55 83q-56 69 -56 170q0 142 67 230t174 88q60 0 107 -49l52 78l12 -8l-54 -82q56 -69 56 -171q0 -142 -67 -230t-173 -88q-60 0 -108 50zM136 85q17 -34 41.5 -53t52.5 -19q74 0 119 86t45 226q0 63 -21 115zM129 101l236 355q-36 71 -92 71
q-74 0 -120 -85.5t-46 -225.5q0 -63 22 -115z" />
    <glyph glyph-name="Ugrave" unicode="&#xd9;" horiz-adv-x="513" 
d="M313 590l-11 -7q-29 37 -56.5 56.5t-60.5 24.5l-2 3l40 29q6 4 12 4q9 0 14 -7zM53 506q48 39 69 39q24 0 36 -17.5t12 -61.5q0 -35 -8 -89l-34 -270q-1 -9 -1 -18q0 -29 11.5 -49t29.5 -20q52 0 111.5 86.5t80.5 195.5l28 228l-38 3v7h61q31 0 49 4l2 -2l-71 -378
q-10 -70 -10 -96q0 -25 7.5 -36.5t24.5 -11.5q35 0 113 69l4 -4q-31 -27 -52 -43.5t-47.5 -31.5t-44.5 -15q-50 0 -50 93q0 32 6 75l7 51q-33 -92 -86 -155.5t-99 -63.5q-42 0 -69.5 24.5t-27.5 63.5q0 8 1 17l42 276q15 101 15 112q0 31 -22 32q-16 0 -47 -19z" />
    <glyph glyph-name="Uacute" unicode="&#xda;" horiz-adv-x="513" 
d="M248 593l72 101q5 7 14 7q7 0 12 -4l37 -34l-2 -2q-73 -9 -124 -76zM53 506q48 39 69 39q24 0 36 -17.5t12 -61.5q0 -35 -8 -89l-34 -270q-1 -9 -1 -18q0 -29 11.5 -49t29.5 -20q52 0 111.5 86.5t80.5 195.5l28 228l-38 3v7h61q31 0 49 4l2 -2l-71 -378q-10 -70 -10 -96
q0 -25 7.5 -36.5t24.5 -11.5q35 0 113 69l4 -4q-31 -27 -52 -43.5t-47.5 -31.5t-44.5 -15q-50 0 -50 93q0 32 6 75l7 51q-33 -92 -86 -155.5t-99 -63.5q-42 0 -69.5 24.5t-27.5 63.5q0 8 1 17l42 276q15 101 15 112q0 31 -22 32q-16 0 -47 -19z" />
    <glyph glyph-name="Ucircumflex" unicode="&#xdb;" horiz-adv-x="513" 
d="M284 692h20l97 -78l-14 -14l-93 82l-93 -82l-14 14zM53 506q48 39 69 39q24 0 36 -17.5t12 -61.5q0 -35 -8 -89l-34 -270q-1 -9 -1 -18q0 -29 11.5 -49t29.5 -20q52 0 111.5 86.5t80.5 195.5l28 228l-38 3v7h61q31 0 49 4l2 -2l-71 -378q-10 -70 -10 -96q0 -25 7.5 -36.5
t24.5 -11.5q35 0 113 69l4 -4q-31 -27 -52 -43.5t-47.5 -31.5t-44.5 -15q-50 0 -50 93q0 32 6 75l7 51q-33 -92 -86 -155.5t-99 -63.5q-42 0 -69.5 24.5t-27.5 63.5q0 8 1 17l42 276q15 101 15 112q0 31 -22 32q-16 0 -47 -19z" />
    <glyph glyph-name="Udieresis" unicode="&#xdc;" horiz-adv-x="513" 
d="M326 611l3 22q5 35 28 35h40l-6 -37q-1 -9 -8.5 -14.5t-18.5 -5.5h-38zM179 611l3 22q5 35 28 35h40l-6 -37q-1 -9 -8.5 -14.5t-18.5 -5.5h-38zM53 506q48 39 69 39q24 0 36 -17.5t12 -61.5q0 -35 -8 -89l-34 -270q-1 -9 -1 -18q0 -29 11.5 -49t29.5 -20q52 0 111.5 86.5
t80.5 195.5l28 228l-38 3v7h61q31 0 49 4l2 -2l-71 -378q-10 -70 -10 -96q0 -25 7.5 -36.5t24.5 -11.5q35 0 113 69l4 -4q-31 -27 -52 -43.5t-47.5 -31.5t-44.5 -15q-50 0 -50 93q0 32 6 75l7 51q-33 -92 -86 -155.5t-99 -63.5q-42 0 -69.5 24.5t-27.5 63.5q0 8 1 17l42 276
q15 101 15 112q0 31 -22 32q-16 0 -47 -19z" />
    <glyph glyph-name="Yacute" unicode="&#xdd;" horiz-adv-x="468" 
d="M238 593l72 101q5 7 14 7q7 0 12 -4l37 -34l-2 -2q-73 -9 -124 -76zM266 0l-65 -1q13 40 34 189q-21 36 -71 163q-16 40 -24 61t-20 48.5t-20.5 39.5t-14.5 12q-16 0 -46 -19l-4 5q20 16 48.5 31.5t40.5 15.5q10 0 20.5 -14t23 -46t21 -56.5t23.5 -70.5q37 -116 56 -154
h2q51 74 89 164l70 162l-70 3l1 7h66q22 0 45.5 11t34.5 28l3 -1l-127 -215q-51 -88 -71 -124.5t-23 -54.5q-19 -132 -22 -184z" />
    <glyph glyph-name="Thorn" unicode="&#xde;" horiz-adv-x="450" 
d="M121 0l-60 -1q11 38 30 164l29 367l-68 3l-1 7l149 1v-18l-9 -52q35 4 103 4q67 0 114 -47t47 -114q0 -78 -61.5 -133.5t-147.5 -55.5h-66l2 15h65q61 0 104.5 52.5t43.5 127.5q0 57 -33.5 97t-80.5 40q-25 0 -92 1l-23 -135l-26 -159q-15 -111 -19 -164z" />
    <glyph glyph-name="germandbls" unicode="&#xdf;" horiz-adv-x="422" 
d="M215 307q50 0 86 30.5t36 72.5q0 34 -27 57.5t-65 23.5q-48 0 -82 -45.5t-34 -110.5q0 -70 -6 -113q-28 -202 -49 -383q-6 -52 -54.5 -87.5t-116.5 -35.5l2 14q51 0 76 29t32 80l51 346h-38l1 15h39l3 22q2 12 2 34v36q-1 26 -1 44q0 72 52 122.5t125 50.5q48 0 81.5 -29
t33.5 -70q0 -50 -36.5 -87t-92.5 -45q0 -18 6.5 -33t20 -27.5t24.5 -20t32 -19.5q20 -11 30.5 -18.5t24.5 -19.5t20 -26.5t6 -32.5q0 -36 -42.5 -61t-103.5 -25q-31 0 -72 24q-25 14 -39 14l9 73h7v-6q1 -34 32.5 -62.5t64.5 -28.5q34 0 58 20t24 49q0 26 -13 43.5t-40 39.5
q-21 17 -33 29t-23 35.5t-11 51.5v30z" />
    <glyph glyph-name="agrave" unicode="&#xe0;" horiz-adv-x="377" 
d="M223 335l-11 -7q-29 37 -56.5 56.5t-60.5 24.5l-2 3l40 29q6 4 12 4q9 0 14 -7zM224 122l13 113q-9 0 -28 2q-25 3 -39 3q-38 0 -65 -40.5t-27 -104.5q0 -86 57 -86q30 0 56 34t33 79zM276 123q-2 -19 -2 -48q0 -56 25 -56q33 0 90 48l4 -3q-74 -64 -103 -64
q-39 0 -43 94q-14 -42 -49 -70t-74 -28q-42 0 -70.5 32.5t-28.5 79.5q0 65 42 106t105 41q14 0 44 -6q23 -4 31 -4q33 0 44.5 7.5t18.5 26.5l3 -1z" />
    <glyph glyph-name="aacute" unicode="&#xe1;" horiz-adv-x="377" 
d="M166 338l72 101q5 7 14 7q7 0 12 -4l37 -34l-2 -2q-73 -9 -124 -76zM224 122l13 113q-9 0 -28 2q-25 3 -39 3q-38 0 -65 -40.5t-27 -104.5q0 -86 57 -86q30 0 56 34t33 79zM276 123q-2 -19 -2 -48q0 -56 25 -56q33 0 90 48l4 -3q-74 -64 -103 -64q-39 0 -43 94
q-14 -42 -49 -70t-74 -28q-42 0 -70.5 32.5t-28.5 79.5q0 65 42 106t105 41q14 0 44 -6q23 -4 31 -4q33 0 44.5 7.5t18.5 26.5l3 -1z" />
    <glyph glyph-name="acircumflex" unicode="&#xe2;" horiz-adv-x="377" 
d="M197 437h20l97 -78l-14 -14l-93 82l-93 -82l-14 14zM224 122l13 113q-9 0 -28 2q-25 3 -39 3q-38 0 -65 -40.5t-27 -104.5q0 -86 57 -86q30 0 56 34t33 79zM276 123q-2 -19 -2 -48q0 -56 25 -56q33 0 90 48l4 -3q-74 -64 -103 -64q-39 0 -43 94q-14 -42 -49 -70t-74 -28
q-42 0 -70.5 32.5t-28.5 79.5q0 65 42 106t105 41q14 0 44 -6q23 -4 31 -4q33 0 44.5 7.5t18.5 26.5l3 -1z" />
    <glyph glyph-name="atilde" unicode="&#xe3;" horiz-adv-x="377" 
d="M310 419l12 -6q-34 -66 -73 -66q-19 0 -52 20.5t-47 20.5q-25 0 -60 -49l-12 8q13 18 22 28.5t23 20.5t27 10q20 0 53 -21t48 -21q31 0 59 55zM224 122l13 113q-9 0 -28 2q-25 3 -39 3q-38 0 -65 -40.5t-27 -104.5q0 -86 57 -86q30 0 56 34t33 79zM276 123q-2 -19 -2 -48
q0 -56 25 -56q33 0 90 48l4 -3q-74 -64 -103 -64q-39 0 -43 94q-14 -42 -49 -70t-74 -28q-42 0 -70.5 32.5t-28.5 79.5q0 65 42 106t105 41q14 0 44 -6q23 -4 31 -4q33 0 44.5 7.5t18.5 26.5l3 -1z" />
    <glyph glyph-name="adieresis" unicode="&#xe4;" horiz-adv-x="377" 
d="M239 356l3 22q5 35 28 35h40l-6 -37q-1 -9 -8.5 -14.5t-18.5 -5.5h-38zM92 356l3 22q5 35 28 35h40l-6 -37q-1 -9 -8.5 -14.5t-18.5 -5.5h-38zM224 122l13 113q-9 0 -28 2q-25 3 -39 3q-38 0 -65 -40.5t-27 -104.5q0 -86 57 -86q30 0 56 34t33 79zM276 123q-2 -19 -2 -48
q0 -56 25 -56q33 0 90 48l4 -3q-74 -64 -103 -64q-39 0 -43 94q-14 -42 -49 -70t-74 -28q-42 0 -70.5 32.5t-28.5 79.5q0 65 42 106t105 41q14 0 44 -6q23 -4 31 -4q33 0 44.5 7.5t18.5 26.5l3 -1z" />
    <glyph glyph-name="aring" unicode="&#xe5;" horiz-adv-x="377" 
d="M153 378q0 -18 12 -30t30 -12q23 0 39.5 17t16.5 39q0 18 -12 30t-30 12q-23 0 -39.5 -17.5t-16.5 -38.5zM211 448q24 0 39.5 -15.5t15.5 -38.5q0 -28 -22 -50t-51 -22q-24 0 -39.5 15.5t-15.5 38.5q0 28 22 50t51 22zM224 122l13 113q-9 0 -28 2q-25 3 -39 3
q-38 0 -65 -40.5t-27 -104.5q0 -86 57 -86q30 0 56 34t33 79zM276 123q-2 -19 -2 -48q0 -56 25 -56q33 0 90 48l4 -3q-74 -64 -103 -64q-39 0 -43 94q-14 -42 -49 -70t-74 -28q-42 0 -70.5 32.5t-28.5 79.5q0 65 42 106t105 41q14 0 44 -6q23 -4 31 -4q33 0 44.5 7.5
t18.5 26.5l3 -1z" />
    <glyph glyph-name="ae" unicode="&#xe6;" horiz-adv-x="506" 
d="M224 122l13 113q-9 0 -28 2q-25 3 -39 3q-38 0 -65 -40.5t-27 -104.5q0 -86 57 -86q30 0 56 34t33 79zM276 94q2 -34 26.5 -57t58.5 -23q61 0 125 53l3 -3q-78 -68 -137 -68q-42 0 -73.5 20t-43.5 52q-18 -32 -48.5 -52t-62.5 -20q-42 0 -70.5 32.5t-28.5 79.5
q0 65 42 106t105 41q14 0 41 -6q18 -4 24 -4q14 0 24 15t14 38h3q-4 -46 -6 -83q42 44 104 44q41 0 71.5 -19t30.5 -45q0 -42 -59.5 -70.5t-142.5 -30.5zM275 100q66 1 106.5 26.5t40.5 64.5q0 22 -17 38t-40 16q-42 0 -66 -38t-24 -102v-5z" />
    <glyph glyph-name="ccedilla" unicode="&#xe7;" horiz-adv-x="295" 
d="M277 67l3 -3q-25 -22 -41 -34t-42.5 -23t-54.5 -11q-14 0 -26 2l-16 -56q22 9 42 9q32 0 54.5 -19t22.5 -47q0 -48 -48.5 -83t-120.5 -44l-2 14q56 8 93.5 38t37.5 70q0 24 -11.5 40.5t-27.5 16.5q-25 0 -45 -13q-8 2 -13 6l20 71q-36 10 -57 36.5t-21 63.5
q0 71 40 114.5t102 43.5q10 0 28 -6q16 -5 25 -5q31 0 44 32l4 -1l-30 -82l-2 1q-50 42 -80 42t-53 -39.5t-23 -95.5q0 -41 21 -66t52 -25q61 0 125 53z" />
    <glyph glyph-name="egrave" unicode="&#xe8;" horiz-adv-x="311" 
d="M229 335l-11 -7q-29 37 -56.5 56.5t-60.5 24.5l-2 3l40 29q6 4 12 4q9 0 14 -7zM80 100q66 1 106.5 26.5t40.5 64.5q0 22 -17 38t-40 16q-42 0 -66 -38t-24 -102v-5zM81 94q2 -34 26.5 -57t58.5 -23q61 0 125 53l3 -3q-78 -68 -137 -68q-54 0 -93.5 31t-39.5 74
q0 65 46 111.5t111 46.5q41 0 71.5 -19t30.5 -45q0 -42 -59.5 -70.5t-142.5 -30.5z" />
    <glyph glyph-name="eacute" unicode="&#xe9;" horiz-adv-x="311" 
d="M164 338l72 101q5 7 14 7q7 0 12 -4l37 -34l-2 -2q-73 -9 -124 -76zM80 100q66 1 106.5 26.5t40.5 64.5q0 22 -17 38t-40 16q-42 0 -66 -38t-24 -102v-5zM81 94q2 -34 26.5 -57t58.5 -23q61 0 125 53l3 -3q-78 -68 -137 -68q-54 0 -93.5 31t-39.5 74q0 65 46 111.5
t111 46.5q41 0 71.5 -19t30.5 -45q0 -42 -59.5 -70.5t-142.5 -30.5z" />
    <glyph glyph-name="ecircumflex" unicode="&#xea;" horiz-adv-x="311" 
d="M195 437h20l97 -78l-14 -14l-93 82l-93 -82l-14 14zM80 100q66 1 106.5 26.5t40.5 64.5q0 22 -17 38t-40 16q-42 0 -66 -38t-24 -102v-5zM81 94q2 -34 26.5 -57t58.5 -23q61 0 125 53l3 -3q-78 -68 -137 -68q-54 0 -93.5 31t-39.5 74q0 65 46 111.5t111 46.5
q41 0 71.5 -19t30.5 -45q0 -42 -59.5 -70.5t-142.5 -30.5z" />
    <glyph glyph-name="edieresis" unicode="&#xeb;" horiz-adv-x="311" 
d="M237 356l3 22q5 35 28 35h40l-6 -37q-1 -9 -8.5 -14.5t-18.5 -5.5h-38zM90 356l3 22q5 35 28 35h40l-6 -37q-1 -9 -8.5 -14.5t-18.5 -5.5h-38zM80 100q66 1 106.5 26.5t40.5 64.5q0 22 -17 38t-40 16q-42 0 -66 -38t-24 -102v-5zM81 94q2 -34 26.5 -57t58.5 -23
q61 0 125 53l3 -3q-78 -68 -137 -68q-54 0 -93.5 31t-39.5 74q0 65 46 111.5t111 46.5q41 0 71.5 -19t30.5 -45q0 -42 -59.5 -70.5t-142.5 -30.5z" />
    <glyph glyph-name="igrave" unicode="&#xec;" horiz-adv-x="219" 
d="M168 335l-11 -7q-29 37 -56.5 56.5t-60.5 24.5l-2 3l40 29q6 4 12 4q9 0 14 -7zM62 122l8 102l-53 6v5h67q35 1 68 44l2 -1l-49 -155q-9 -54 -9 -72t5.5 -23.5t22.5 -5.5q39 0 101 45l3 -3q-93 -68 -133 -68q-42 0 -42 48q0 28 9 78z" />
    <glyph glyph-name="iacute" unicode="&#xed;" horiz-adv-x="219" 
d="M103 338l72 101q5 7 14 7q7 0 12 -4l37 -34l-2 -2q-73 -9 -124 -76zM62 122l8 102l-53 6v5h67q35 1 68 44l2 -1l-49 -155q-9 -54 -9 -72t5.5 -23.5t22.5 -5.5q39 0 101 45l3 -3q-93 -68 -133 -68q-42 0 -42 48q0 28 9 78z" />
    <glyph glyph-name="icircumflex" unicode="&#xee;" horiz-adv-x="219" 
d="M134 437h20l97 -78l-14 -14l-93 82l-93 -82l-14 14zM62 122l8 102l-53 6v5h67q35 1 68 44l2 -1l-49 -155q-9 -54 -9 -72t5.5 -23.5t22.5 -5.5q39 0 101 45l3 -3q-93 -68 -133 -68q-42 0 -42 48q0 28 9 78z" />
    <glyph glyph-name="idieresis" unicode="&#xef;" horiz-adv-x="219" 
d="M176 356l3 22q5 35 28 35h40l-6 -37q-1 -9 -8.5 -14.5t-18.5 -5.5h-38zM29 356l3 22q5 35 28 35h40l-6 -37q-1 -9 -8.5 -14.5t-18.5 -5.5h-38zM62 122l8 102l-53 6v5h67q35 1 68 44l2 -1l-49 -155q-9 -54 -9 -72t5.5 -23.5t22.5 -5.5q39 0 101 45l3 -3q-93 -68 -133 -68
q-42 0 -42 48q0 28 9 78z" />
    <glyph glyph-name="eth" unicode="&#xf0;" horiz-adv-x="361" 
d="M136 -4q-45 0 -77 34.5t-32 82.5q0 60 44.5 103t101.5 43q41 0 71 -29t35 -73q10 45 10 99q0 111 -48 183l-75 -46l-8 12l74 46q-33 41 -74 41l-27 -3l5 17h24q54 0 100 -37l69 44l10 -16l-66 -39q36 -34 56.5 -86.5t20.5 -112.5q0 -118 -59 -190.5t-155 -72.5zM265 110
q3 16 3 31q0 43 -28.5 73.5t-69.5 30.5q-32 0 -59 -42.5t-27 -99.5q0 -39 18.5 -66t44.5 -27q39 0 69.5 26t48.5 74z" />
    <glyph glyph-name="ntilde" unicode="&#xf1;" horiz-adv-x="375" 
d="M325 419l12 -6q-34 -66 -73 -66q-19 0 -52 20.5t-47 20.5q-25 0 -60 -49l-12 8q13 18 22 28.5t23 20.5t27 10q20 0 53 -21t48 -21q31 0 59 55zM87 0l-54 -4q9 23 27 126v109l-49 2v5h50q27 0 44 34l2 -1l-4 -145q23 63 58 100.5t75 37.5q34 0 54.5 -19t20.5 -50
q0 -21 -17 -72q-23 -70 -23 -92q0 -16 14 -16q30 0 101 52l2 -3q-88 -68 -116 -68q-20 0 -28.5 11.5t-8.5 36.5q0 26 10 78l10 50q2 11 2 23q0 20 -6.5 34.5t-18.5 14.5q-46 0 -84 -55.5t-55 -137.5q-6 -44 -6 -51z" />
    <glyph glyph-name="ograve" unicode="&#xf2;" horiz-adv-x="346" 
d="M239 335l-11 -7q-29 37 -56.5 56.5t-60.5 24.5l-2 3l40 29q6 4 12 4q9 0 14 -7zM85 180q-10 -24 -10 -75q0 -42 25 -68.5t60 -26.5q39 0 68.5 41.5t29.5 98.5q0 43 -22 71.5t-54 28.5q-46 0 -46 -63q0 -8 -17 -8v14q0 33 20.5 52t53.5 19q52 0 86 -31.5t34 -78.5
q0 -65 -49 -111.5t-115 -46.5q-53 0 -89 29.5t-36 75.5q0 44 36 98q6 0 15.5 -6.5t9.5 -12.5z" />
    <glyph glyph-name="oacute" unicode="&#xf3;" horiz-adv-x="346" 
d="M174 338l72 101q5 7 14 7q7 0 12 -4l37 -34l-2 -2q-73 -9 -124 -76zM85 180q-10 -24 -10 -75q0 -42 25 -68.5t60 -26.5q39 0 68.5 41.5t29.5 98.5q0 43 -22 71.5t-54 28.5q-46 0 -46 -63q0 -8 -17 -8v14q0 33 20.5 52t53.5 19q52 0 86 -31.5t34 -78.5q0 -65 -49 -111.5
t-115 -46.5q-53 0 -89 29.5t-36 75.5q0 44 36 98q6 0 15.5 -6.5t9.5 -12.5z" />
    <glyph glyph-name="ocircumflex" unicode="&#xf4;" horiz-adv-x="346" 
d="M205 437h20l97 -78l-14 -14l-93 82l-93 -82l-14 14zM85 180q-10 -24 -10 -75q0 -42 25 -68.5t60 -26.5q39 0 68.5 41.5t29.5 98.5q0 43 -22 71.5t-54 28.5q-46 0 -46 -63q0 -8 -17 -8v14q0 33 20.5 52t53.5 19q52 0 86 -31.5t34 -78.5q0 -65 -49 -111.5t-115 -46.5
q-53 0 -89 29.5t-36 75.5q0 44 36 98q6 0 15.5 -6.5t9.5 -12.5z" />
    <glyph glyph-name="otilde" unicode="&#xf5;" horiz-adv-x="346" 
d="M318 419l12 -6q-34 -66 -73 -66q-19 0 -52 20.5t-47 20.5q-25 0 -60 -49l-12 8q13 18 22 28.5t23 20.5t27 10q20 0 53 -21t48 -21q31 0 59 55zM85 180q-10 -24 -10 -75q0 -42 25 -68.5t60 -26.5q39 0 68.5 41.5t29.5 98.5q0 43 -22 71.5t-54 28.5q-46 0 -46 -63
q0 -8 -17 -8v14q0 33 20.5 52t53.5 19q52 0 86 -31.5t34 -78.5q0 -65 -49 -111.5t-115 -46.5q-53 0 -89 29.5t-36 75.5q0 44 36 98q6 0 15.5 -6.5t9.5 -12.5z" />
    <glyph glyph-name="odieresis" unicode="&#xf6;" horiz-adv-x="346" 
d="M247 356l3 22q5 35 28 35h40l-6 -37q-1 -9 -8.5 -14.5t-18.5 -5.5h-38zM100 356l3 22q5 35 28 35h40l-6 -37q-1 -9 -8.5 -14.5t-18.5 -5.5h-38zM85 180q-10 -24 -10 -75q0 -42 25 -68.5t60 -26.5q39 0 68.5 41.5t29.5 98.5q0 43 -22 71.5t-54 28.5q-46 0 -46 -63
q0 -8 -17 -8v14q0 33 20.5 52t53.5 19q52 0 86 -31.5t34 -78.5q0 -65 -49 -111.5t-115 -46.5q-53 0 -89 29.5t-36 75.5q0 44 36 98q6 0 15.5 -6.5t9.5 -12.5z" />
    <glyph glyph-name="divide" unicode="&#xf7;" horiz-adv-x="418" 
d="M234 422q0 9 7 16t16 7t16 -7t7 -16t-7 -16t-16 -7t-16 7t-7 16zM191 99q0 9 7 16t16 7t16 -7t7 -16t-7 -16t-16 -7t-16 7t-7 16zM71 249l4 22h325l-4 -22h-325z" />
    <glyph glyph-name="oslash" unicode="&#xf8;" horiz-adv-x="346" 
d="M85 180q-10 -24 -10 -75q0 -34 17 -59l144 176q-22 28 -54 28q-46 0 -46 -63q0 -8 -17 -8v14q0 33 20.5 52t53.5 19q36 0 64 -16l44 54l12 -10l-43 -52q43 -32 43 -86q0 -65 -49 -111.5t-115 -46.5q-36 0 -66 15l-46 -57l-12 10l45 54q-46 30 -46 83q0 44 36 98
q6 0 15.5 -6.5t9.5 -12.5zM102 34q24 -24 58 -24q39 0 68.5 41.5t29.5 98.5q0 33 -14 58z" />
    <glyph glyph-name="ugrave" unicode="&#xf9;" horiz-adv-x="389" 
d="M236 335l-11 -7q-29 37 -56.5 56.5t-60.5 24.5l-2 3l40 29q6 4 12 4q9 0 14 -7zM280 123q-9 -52 -9 -74q0 -34 22 -34q27 0 98 52l3 -3q-93 -68 -120 -68q-43 0 -43 66q0 24 5 57q-22 -57 -54 -90t-70 -33q-28 0 -51.5 17t-23.5 45q0 12 16 71q21 72 21 91q0 20 -19 20
q-14 0 -39 -14l-4 4q42 29 62 29q19 0 27.5 -11t8.5 -40q0 -27 -8 -75l-9 -53q-4 -20 -4 -33q0 -32 27 -32q47 0 83 55.5t51 140.5l6 37l-35 2v5h55q27 0 44 2l2 -1z" />
    <glyph glyph-name="uacute" unicode="&#xfa;" horiz-adv-x="389" 
d="M171 338l72 101q5 7 14 7q7 0 12 -4l37 -34l-2 -2q-73 -9 -124 -76zM280 123q-9 -52 -9 -74q0 -34 22 -34q27 0 98 52l3 -3q-93 -68 -120 -68q-43 0 -43 66q0 24 5 57q-22 -57 -54 -90t-70 -33q-28 0 -51.5 17t-23.5 45q0 12 16 71q21 72 21 91q0 20 -19 20
q-14 0 -39 -14l-4 4q42 29 62 29q19 0 27.5 -11t8.5 -40q0 -27 -8 -75l-9 -53q-4 -20 -4 -33q0 -32 27 -32q47 0 83 55.5t51 140.5l6 37l-35 2v5h55q27 0 44 2l2 -1z" />
    <glyph glyph-name="ucircumflex" unicode="&#xfb;" horiz-adv-x="389" 
d="M202 437h20l97 -78l-14 -14l-93 82l-93 -82l-14 14zM280 123q-9 -52 -9 -74q0 -34 22 -34q27 0 98 52l3 -3q-93 -68 -120 -68q-43 0 -43 66q0 24 5 57q-22 -57 -54 -90t-70 -33q-28 0 -51.5 17t-23.5 45q0 12 16 71q21 72 21 91q0 20 -19 20q-14 0 -39 -14l-4 4
q42 29 62 29q19 0 27.5 -11t8.5 -40q0 -27 -8 -75l-9 -53q-4 -20 -4 -33q0 -32 27 -32q47 0 83 55.5t51 140.5l6 37l-35 2v5h55q27 0 44 2l2 -1z" />
    <glyph glyph-name="udieresis" unicode="&#xfc;" horiz-adv-x="389" 
d="M244 356l3 22q5 35 28 35h40l-6 -37q-1 -9 -8.5 -14.5t-18.5 -5.5h-38zM97 356l3 22q5 35 28 35h40l-6 -37q-1 -9 -8.5 -14.5t-18.5 -5.5h-38zM280 123q-9 -52 -9 -74q0 -34 22 -34q27 0 98 52l3 -3q-93 -68 -120 -68q-43 0 -43 66q0 24 5 57q-22 -57 -54 -90t-70 -33
q-28 0 -51.5 17t-23.5 45q0 12 16 71q21 72 21 91q0 20 -19 20q-14 0 -39 -14l-4 4q42 29 62 29q19 0 27.5 -11t8.5 -40q0 -27 -8 -75l-9 -53q-4 -20 -4 -33q0 -32 27 -32q47 0 83 55.5t51 140.5l6 37l-35 2v5h55q27 0 44 2l2 -1z" />
    <glyph glyph-name="yacute" unicode="&#xfd;" horiz-adv-x="369" 
d="M158 338l72 101q5 7 14 7q7 0 12 -4l37 -34l-2 -2q-73 -9 -124 -76zM286 109q-6 -35 -14 -135q-9 -113 -17 -158q-18 -113 -113.5 -184.5t-222.5 -71.5q-109 0 -186 58t-77 140q0 67 60.5 114.5t145.5 47.5l-6 -36q-77 0 -132 -36t-55 -88q0 -76 74 -130t179 -54
q107 0 187 67.5t97 172.5q6 34 15 124q13 125 23 172q-26 -53 -62 -84.5t-73 -31.5q-26 0 -50.5 17.5t-24.5 43.5q0 35 23 94q19 51 19 68q0 9 -5.5 15t-12.5 6q-12 0 -42 -14l-3 4q42 29 57 29q17 0 29.5 -9.5t12.5 -23.5q0 -18 -11 -69q-14 -66 -14 -94q0 -46 25 -46
q45 0 86 47t61 119q6 31 11 59l-34 2v5h54q26 0 52 30l2 -1z" />
    <glyph glyph-name="thorn" unicode="&#xfe;" horiz-adv-x="352" 
d="M31 -2l56 500l-62 2v5h59q19 0 41 14.5t30 28.5l2 -1l-42 -312q4 1 7 2q59 22 93 22q48 0 78 -29t30 -76q0 -64 -42.5 -109t-103.5 -45q-58 0 -82 47l14 14q5 -22 24 -36t46 -14q37 0 63 40.5t26 98.5q0 43 -17 69t-44 26q-32 0 -94 -24l-39 -223q-25 -139 -40 -288
l-54 -3q8 19 51 291z" />
    <glyph glyph-name="ydieresis" unicode="&#xff;" horiz-adv-x="369" 
d="M231 356l3 22q5 35 28 35h40l-6 -37q-1 -9 -8.5 -14.5t-18.5 -5.5h-38zM84 356l3 22q5 35 28 35h40l-6 -37q-1 -9 -8.5 -14.5t-18.5 -5.5h-38zM286 109q-6 -35 -14 -135q-9 -113 -17 -158q-18 -113 -113.5 -184.5t-222.5 -71.5q-109 0 -186 58t-77 140q0 67 60.5 114.5
t145.5 47.5l-6 -36q-77 0 -132 -36t-55 -88q0 -76 74 -130t179 -54q107 0 187 67.5t97 172.5q6 34 15 124q13 125 23 172q-26 -53 -62 -84.5t-73 -31.5q-26 0 -50.5 17.5t-24.5 43.5q0 35 23 94q19 51 19 68q0 9 -5.5 15t-12.5 6q-12 0 -42 -14l-3 4q42 29 57 29
q17 0 29.5 -9.5t12.5 -23.5q0 -18 -11 -69q-14 -66 -14 -94q0 -46 25 -46q45 0 86 47t61 119q6 31 11 59l-34 2v5h54q26 0 52 30l2 -1z" />
    <glyph glyph-name="Amacron" unicode="&#x100;" horiz-adv-x="501" 
d="M182 647h209l-2 -18h-209zM58 0l-50 -4q21 36 78 167l162 366l16 -4l-144 -324h192l-31 328l-76 4v7l152 1l7 -340h35q18 0 30 15t26 51l6 -1q-16 -52 -29 -79h-68l1 -23l1.5 -45t2 -35t4 -29t7.5 -18.5t12.5 -13t17.5 -3.5q33 0 111 69l4 -4q-30 -28 -49.5 -44.5
t-45 -31t-44.5 -14.5q-30 0 -46 39.5t-25 128.5l-2 24h-199l-11 -23q-43 -97 -45 -164z" />
    <glyph glyph-name="amacron" unicode="&#x101;" horiz-adv-x="377" 
d="M97 392h209l-2 -18h-209zM224 122l13 113q-9 0 -28 2q-25 3 -39 3q-38 0 -65 -40.5t-27 -104.5q0 -86 57 -86q30 0 56 34t33 79zM276 123q-2 -19 -2 -48q0 -56 25 -56q33 0 90 48l4 -3q-74 -64 -103 -64q-39 0 -43 94q-14 -42 -49 -70t-74 -28q-42 0 -70.5 32.5
t-28.5 79.5q0 65 42 106t105 41q14 0 44 -6q23 -4 31 -4q33 0 44.5 7.5t18.5 26.5l3 -1z" />
    <glyph glyph-name="Abreve" unicode="&#x102;" horiz-adv-x="501" 
d="M190 715l13 5q30 -83 82 -83q56 0 98 81l12 -6q-48 -93 -112 -93q-58 0 -93 96zM58 0l-50 -4q21 36 78 167l162 366l16 -4l-144 -324h192l-31 328l-76 4v7l152 1l7 -340h35q18 0 30 15t26 51l6 -1q-16 -52 -29 -79h-68l1 -23l1.5 -45t2 -35t4 -29t7.5 -18.5t12.5 -13
t17.5 -3.5q33 0 111 69l4 -4q-30 -28 -49.5 -44.5t-45 -31t-44.5 -14.5q-30 0 -46 39.5t-25 128.5l-2 24h-199l-11 -23q-43 -97 -45 -164z" />
    <glyph glyph-name="abreve" unicode="&#x103;" horiz-adv-x="377" 
d="M105 460l13 5q30 -83 82 -83q56 0 98 81l12 -6q-48 -93 -112 -93q-58 0 -93 96zM224 122l13 113q-9 0 -28 2q-25 3 -39 3q-38 0 -65 -40.5t-27 -104.5q0 -86 57 -86q30 0 56 34t33 79zM276 123q-2 -19 -2 -48q0 -56 25 -56q33 0 90 48l4 -3q-74 -64 -103 -64
q-39 0 -43 94q-14 -42 -49 -70t-74 -28q-42 0 -70.5 32.5t-28.5 79.5q0 65 42 106t105 41q14 0 44 -6q23 -4 31 -4q33 0 44.5 7.5t18.5 26.5l3 -1z" />
    <glyph glyph-name="Aogonek" unicode="&#x104;" horiz-adv-x="501" 
d="M466 -111q-57 -70 -86 -70q-28 0 -45 17.5t-17 46.5q0 51 70 112h-2q-31 0 -46.5 39.5t-24.5 128.5l-2 24h-199l-11 -23q-43 -97 -45 -164l-50 -4q21 36 78 167l162 366l16 -4l-144 -324h192l-31 328l-76 4v7l152 1l7 -340h35q18 0 30 15t26 51l6 -1q-16 -52 -29 -79h-68
l1 -23l1.5 -45t2 -35t4 -29t7.5 -18.5t12.5 -13t17.5 -3.5q33 0 111 69l4 -4q-51 -48 -79 -66q-45 -31 -72 -62.5t-27 -69.5q0 -19 11 -31t29 -12q29 0 74 49z" />
    <glyph glyph-name="aogonek" unicode="&#x105;" horiz-adv-x="377" 
d="M276 123q-2 -19 -2 -48q0 -56 25 -56q33 0 90 48l4 -3q-14 -13 -34 -28t-33.5 -24t-16.5 -10q-28 -22 -46 -55t-18 -58q0 -19 11 -31t29 -12q29 0 74 49l5 -4q-57 -70 -86 -70q-28 0 -45 17.5t-17 46.5q0 23 21.5 55t52.5 60q-39 0 -43 94q-14 -42 -49 -70t-74 -28
q-42 0 -70.5 32.5t-28.5 79.5q0 65 42 106t105 41q14 0 44 -6q23 -4 31 -4q33 0 44.5 7.5t18.5 26.5l3 -1zM224 122l13 113q-9 0 -27 2q-25 3 -40 3q-38 0 -65 -40.5t-27 -104.5q0 -86 57 -86q30 0 56 34t33 79z" />
    <glyph glyph-name="Cacute" unicode="&#x106;" horiz-adv-x="408" 
d="M255 593l72 101q5 7 14 7q7 0 12 -4l37 -34l-2 -2q-73 -9 -124 -76zM301 545q15 0 48 -8q23 -5 32 -5q21 0 31 10.5t17 30.5l4 -1l-31 -104l-3 1q-19 17 -54.5 37.5t-55.5 20.5q-52 0 -90.5 -42.5t-56.5 -109.5t-18 -150q0 -95 33.5 -151t91.5 -56q74 0 144 71l4 -4
q-29 -29 -47.5 -44.5t-49 -30.5t-61.5 -15q-76 0 -125 69.5t-49 173.5q0 134 69 220.5t167 86.5z" />
    <glyph glyph-name="cacute" unicode="&#x107;" horiz-adv-x="295" 
d="M143 338l72 101q5 7 14 7q7 0 12 -4l37 -34l-2 -2q-73 -9 -124 -76zM277 67l3 -3q-25 -22 -41 -34t-42.5 -23t-54.5 -11q-52 0 -85 29t-33 76q0 71 40 114.5t102 43.5q10 0 28 -6q16 -5 25 -5q31 0 44 32l4 -1l-30 -82l-2 1q-50 42 -80 42t-53 -39.5t-23 -95.5
q0 -41 21 -66t52 -25q61 0 125 53z" />
    <glyph glyph-name="Ccircumflex" unicode="&#x108;" horiz-adv-x="408" 
d="M286 692h20l97 -78l-14 -14l-93 82l-93 -82l-14 14zM301 545q15 0 48 -8q23 -5 32 -5q21 0 31 10.5t17 30.5l4 -1l-31 -104l-3 1q-19 17 -54.5 37.5t-55.5 20.5q-52 0 -90.5 -42.5t-56.5 -109.5t-18 -150q0 -95 33.5 -151t91.5 -56q74 0 144 71l4 -4q-29 -29 -47.5 -44.5
t-49 -30.5t-61.5 -15q-76 0 -125 69.5t-49 173.5q0 134 69 220.5t167 86.5z" />
    <glyph glyph-name="ccircumflex" unicode="&#x109;" horiz-adv-x="295" 
d="M174 437h20l97 -78l-14 -14l-93 82l-93 -82l-14 14zM277 67l3 -3q-25 -22 -41 -34t-42.5 -23t-54.5 -11q-52 0 -85 29t-33 76q0 71 40 114.5t102 43.5q10 0 28 -6q16 -5 25 -5q31 0 44 32l4 -1l-30 -82l-2 1q-50 42 -80 42t-53 -39.5t-23 -95.5q0 -41 21 -66t52 -25
q61 0 125 53z" />
    <glyph glyph-name="Cdotaccent" unicode="&#x10a;" horiz-adv-x="408" 
d="M254 612l3 24q2 18 10 25.5t22 7.5h44l-5 -35q-1 -10 -10 -16t-20 -6h-44zM301 545q15 0 48 -8q23 -5 32 -5q21 0 31 10.5t17 30.5l4 -1l-31 -104l-3 1q-19 17 -54.5 37.5t-55.5 20.5q-52 0 -90.5 -42.5t-56.5 -109.5t-18 -150q0 -95 33.5 -151t91.5 -56q74 0 144 71
l4 -4q-29 -29 -47.5 -44.5t-49 -30.5t-61.5 -15q-76 0 -125 69.5t-49 173.5q0 134 69 220.5t167 86.5z" />
    <glyph glyph-name="cdotaccent" unicode="&#x10b;" horiz-adv-x="295" 
d="M142 357l3 24q2 18 10 25.5t22 7.5h44l-5 -35q-1 -10 -10 -16t-20 -6h-44zM277 67l3 -3q-25 -22 -41 -34t-42.5 -23t-54.5 -11q-52 0 -85 29t-33 76q0 71 40 114.5t102 43.5q10 0 28 -6q16 -5 25 -5q31 0 44 32l4 -1l-30 -82l-2 1q-50 42 -80 42t-53 -39.5t-23 -95.5
q0 -41 21 -66t52 -25q61 0 125 53z" />
    <glyph glyph-name="Ccaron" unicode="&#x10c;" horiz-adv-x="408" 
d="M276 598l-97 78l14 14l93 -82l93 82l14 -14l-97 -78h-20zM301 545q15 0 48 -8q23 -5 32 -5q21 0 31 10.5t17 30.5l4 -1l-31 -104l-3 1q-19 17 -54.5 37.5t-55.5 20.5q-52 0 -90.5 -42.5t-56.5 -109.5t-18 -150q0 -95 33.5 -151t91.5 -56q74 0 144 71l4 -4
q-29 -29 -47.5 -44.5t-49 -30.5t-61.5 -15q-76 0 -125 69.5t-49 173.5q0 134 69 220.5t167 86.5z" />
    <glyph glyph-name="ccaron" unicode="&#x10d;" horiz-adv-x="295" 
d="M164 343l-97 78l14 14l93 -82l93 82l14 -14l-97 -78h-20zM277 67l3 -3q-25 -22 -41 -34t-42.5 -23t-54.5 -11q-52 0 -85 29t-33 76q0 71 40 114.5t102 43.5q10 0 28 -6q16 -5 25 -5q31 0 44 32l4 -1l-30 -82l-2 1q-50 42 -80 42t-53 -39.5t-23 -95.5q0 -41 21 -66t52 -25
q61 0 125 53z" />
    <glyph glyph-name="Dcaron" unicode="&#x10e;" horiz-adv-x="540" 
d="M321 598l-97 78l14 14l93 -82l93 82l14 -14l-97 -78h-20zM88 13q56 1 152 1q55 0 107 40t84.5 109t32.5 147q0 93 -42.5 155t-108.5 62q-35 0 -107 2l-1 -3l14 -3l-58 -349q-9 -74 -9 -111q0 -14 1 -28l-61 -1q14 39 25 139l25 357l-68 3l-1 7l142 1q23 0 58 2q33 2 53 2
q86 0 142 -67.5t56 -167.5q0 -63 -24.5 -121.5t-64.5 -99t-92 -65t-104 -24.5h-155z" />
    <glyph glyph-name="dcaron" unicode="&#x10f;" horiz-adv-x="437" 
d="M452 463h-42l3 19q5 31 29 31h47l-6 -32q-7 -37 -39 -117h-11q19 78 19 99zM237 122l10 92q-45 31 -89 31q-32 0 -54 -42.5t-22 -103.5q0 -40 15 -64.5t45 -24.5q33 0 58.5 26t33.5 65zM279 123q-9 -52 -9 -78q0 -30 18 -30q31 0 91 45l3 -3q-77 -61 -106 -61
q-43 0 -45 66q-16 -30 -42.5 -48t-57.5 -18q-43 0 -74.5 33.5t-31.5 79.5q0 62 40 106t96 44q42 0 87 -32l28 271l-62 2v5h72q36 0 63 33l2 -1z" />
    <glyph glyph-name="Dcroat" unicode="&#x110;" horiz-adv-x="550" 
d="M98 13q56 1 152 1q55 0 107 40t84.5 109t32.5 147q0 93 -42.5 155t-108.5 62q-35 0 -107 2l-1 -3l14 -3l-41 -244h114l-3 -18h-114l-14 -87q-9 -74 -9 -111q0 -14 1 -28l-61 -1q14 39 25 139l7 88h-90l3 18h88l17 251l-68 3l-1 7l142 1q21 0 57 2t54 2q86 0 142 -67.5
t56 -167.5q0 -63 -24.5 -121.5t-64.5 -99t-92 -65t-104 -24.5h-155z" />
    <glyph glyph-name="dcroat" unicode="&#x111;" horiz-adv-x="373" 
d="M131 -4q-43 0 -74.5 33.5t-31.5 79.5q0 62 40 106t96 44q42 0 87 -32q3 28 8.5 81t7.5 78h-110l3 18h109l10 94l-62 2v5h72q36 0 63 33l2 -1l-23 -133h64l-3 -18h-64l-46 -263q-9 -52 -9 -78q0 -30 18 -30q31 0 91 45l3 -3q-77 -61 -106 -61q-43 0 -45 66
q-16 -30 -42.5 -48t-57.5 -18zM142 10q33 0 58.5 26t33.5 65l3 21l10 92q-45 31 -89 31q-32 0 -54 -42.5t-22 -103.5q0 -40 15 -64.5t45 -24.5z" />
    <glyph glyph-name="Emacron" unicode="&#x112;" horiz-adv-x="435" 
d="M169 647h209l-2 -18h-209zM20 -3l2 20q15 -3 46 -3q8 35 25 159l31 356l-69 4v7h195l191 9l-20 -120h-7l8 84l-175 13h-67v-2l20 -3l-34 -200h34l100 5l17 75h7q-5 -53 -10 -89q-4 -34 -16 -97h-7l5 84l-78 8h-54l-23 -133q-14 -95 -18 -160h82l179 13l15 84h7l-15 -125
l-13 1l-2 4l-172 9q-129 0 -184 -3z" />
    <glyph glyph-name="emacron" unicode="&#x113;" horiz-adv-x="311" 
d="M95 392h209l-2 -18h-209zM80 100q66 1 106.5 26.5t40.5 64.5q0 22 -17 38t-40 16q-42 0 -66 -38t-24 -102v-5zM81 94q2 -34 26.5 -57t58.5 -23q61 0 125 53l3 -3q-78 -68 -137 -68q-54 0 -93.5 31t-39.5 74q0 65 46 111.5t111 46.5q41 0 71.5 -19t30.5 -45
q0 -42 -59.5 -70.5t-142.5 -30.5z" />
    <glyph glyph-name="Ebreve" unicode="&#x114;" horiz-adv-x="435" 
d="M177 715l13 5q30 -83 82 -83q56 0 98 81l12 -6q-48 -93 -112 -93q-58 0 -93 96zM20 -3l2 20q15 -3 46 -3q8 35 25 159l31 356l-69 4v7h195l191 9l-20 -120h-7l8 84l-175 13h-67v-2l20 -3l-34 -200h34l100 5l17 75h7q-5 -53 -10 -89q-4 -34 -16 -97h-7l5 84l-78 8h-54
l-23 -133q-14 -95 -18 -160h82l179 13l15 84h7l-15 -125l-13 1l-2 4l-172 9q-129 0 -184 -3z" />
    <glyph glyph-name="ebreve" unicode="&#x115;" horiz-adv-x="311" 
d="M103 460l13 5q30 -83 82 -83q56 0 98 81l12 -6q-48 -93 -112 -93q-58 0 -93 96zM80 100q66 1 106.5 26.5t40.5 64.5q0 22 -17 38t-40 16q-42 0 -66 -38t-24 -102v-5zM81 94q2 -34 26.5 -57t58.5 -23q61 0 125 53l3 -3q-78 -68 -137 -68q-54 0 -93.5 31t-39.5 74
q0 65 46 111.5t111 46.5q41 0 71.5 -19t30.5 -45q0 -42 -59.5 -70.5t-142.5 -30.5z" />
    <glyph glyph-name="Edotaccent" unicode="&#x116;" horiz-adv-x="435" 
d="M237 612l3 24q2 18 10 25.5t22 7.5h44l-5 -35q-1 -10 -10 -16t-20 -6h-44zM20 -3l2 20q15 -3 46 -3q8 35 25 159l31 356l-69 4v7h195l191 9l-20 -120h-7l8 84l-175 13h-67v-2l20 -3l-34 -200h34l100 5l17 75h7q-5 -53 -10 -89q-4 -34 -16 -97h-7l5 84l-78 8h-54l-23 -133
q-14 -95 -18 -160h82l179 13l15 84h7l-15 -125l-13 1l-2 4l-172 9q-129 0 -184 -3z" />
    <glyph glyph-name="edotaccent" unicode="&#x117;" horiz-adv-x="311" 
d="M163 357l3 24q2 18 10 25.5t22 7.5h44l-5 -35q-1 -10 -10 -16t-20 -6h-44zM80 100q66 1 106.5 26.5t40.5 64.5q0 22 -17 38t-40 16q-42 0 -66 -38t-24 -102v-5zM81 94q2 -34 26.5 -57t58.5 -23q61 0 125 53l3 -3q-78 -68 -137 -68q-54 0 -93.5 31t-39.5 74q0 65 46 111.5
t111 46.5q41 0 71.5 -19t30.5 -45q0 -42 -59.5 -70.5t-142.5 -30.5z" />
    <glyph glyph-name="Eogonek" unicode="&#x118;" horiz-adv-x="435" 
d="M397 -110q-57 -70 -86 -70q-28 0 -45 17.5t-17 46.5q0 52 73 115l-118 1q-129 0 -184 -3l2 20q15 -3 46 -3q8 35 25 159l31 356l-69 4v7h195l191 9l-20 -120h-7l8 84l-175 13h-67v-2l20 -3l-34 -200h34l100 5l17 75h7q-5 -53 -10 -89q-4 -34 -16 -97h-7l5 84l-78 8h-54
l-23 -133q-14 -95 -18 -160h82l179 13l15 84h7l-13 -113h-54q-27 -22 -44 -53.5t-17 -56.5q0 -19 11 -31t29 -12q29 0 74 50z" />
    <glyph glyph-name="eogonek" unicode="&#x119;" horiz-adv-x="311" 
d="M239 -118q-57 -70 -87 -70q-28 0 -45 18t-17 46t22.5 60t58.5 61q-7 -1 -14 -1q-54 0 -93.5 31t-39.5 74q0 65 46 111.5t111 46.5q41 0 71.5 -19t30.5 -45q0 -42 -59.5 -70.5t-142.5 -30.5q2 -34 26.5 -57t58.5 -23q61 0 125 53l3 -3q-53 -46 -110 -71
q-28 -22 -46.5 -54.5t-18.5 -58.5q0 -19 11 -31t29 -12q29 0 75 50zM80 100q66 1 106.5 26.5t40.5 64.5q0 22 -17 38t-40 16q-42 0 -66 -38t-24 -102v-5z" />
    <glyph glyph-name="Ecaron" unicode="&#x11a;" horiz-adv-x="435" 
d="M279 598l-97 78l14 14l93 -82l93 82l14 -14l-97 -78h-20zM20 -3l2 20q15 -3 46 -3q8 35 25 159l31 356l-69 4v7h195l191 9l-20 -120h-7l8 84l-175 13h-67v-2l20 -3l-34 -200h34l100 5l17 75h7q-5 -53 -10 -89q-4 -34 -16 -97h-7l5 84l-78 8h-54l-23 -133
q-14 -95 -18 -160h82l179 13l15 84h7l-15 -125l-13 1l-2 4l-172 9q-129 0 -184 -3z" />
    <glyph glyph-name="ecaron" unicode="&#x11b;" horiz-adv-x="311" 
d="M185 343l-97 78l14 14l93 -82l93 82l14 -14l-97 -78h-20zM80 100q66 1 106.5 26.5t40.5 64.5q0 22 -17 38t-40 16q-42 0 -66 -38t-24 -102v-5zM81 94q2 -34 26.5 -57t58.5 -23q61 0 125 53l3 -3q-78 -68 -137 -68q-54 0 -93.5 31t-39.5 74q0 65 46 111.5t111 46.5
q41 0 71.5 -19t30.5 -45q0 -42 -59.5 -70.5t-142.5 -30.5z" />
    <glyph glyph-name="Gcircumflex" unicode="&#x11c;" horiz-adv-x="473" 
d="M283 692h20l97 -78l-14 -14l-93 82l-93 -82l-14 14zM393 84l-8 -70v-6q0 -9 2 -22l43 15l4 -13l-44 -16q4 -18 12 -45q24 -83 24 -119q0 -84 -79 -143t-191 -59q-79 0 -134.5 33.5t-55.5 80.5q0 35 39.5 74t104 73t122.5 59t119 47q-1 15 -1 25q0 9 1 16l9 71q-2 0 -4 1
q-19 -37 -53.5 -64t-70.5 -27q-75 0 -129.5 68.5t-54.5 167.5q0 84 33 157t87.5 115t116.5 42q19 0 51 -9q21 -6 29 -6q35 0 51 45l4 -1l-32 -106l-2 1q-23 19 -56.5 38.5t-57.5 19.5q-44 0 -82.5 -44t-60 -113.5t-21.5 -145.5q0 -90 36.5 -148t97.5 -58q41 0 75 34.5
t39 75.5l2 130h-88v14h81q24 0 54.5 12t38.5 28l2 -1zM353 -42q-53 -20 -105.5 -44.5t-109 -57t-92 -68.5t-35.5 -68q0 -41 43 -70.5t104 -29.5q88 0 150 57t62 138q0 32 -10 97q-4 23 -7 46z" />
    <glyph glyph-name="gcircumflex" unicode="&#x11d;" horiz-adv-x="329" 
d="M212 437h20l97 -78l-14 -14l-93 82l-93 -82l-14 14zM228 122l-1 123h-73q-28 0 -52.5 -44t-24.5 -96q0 -41 17 -68t44 -27q30 0 56.5 33.5t33.5 78.5zM218 -60q-39 -9 -61.5 -15t-57.5 -17t-55.5 -21.5t-42 -25t-31.5 -33t-10 -39.5q0 -35 36.5 -63t88.5 -28q58 0 100 40
t42 101q0 25 -7 82q-1 7 -2 19zM260 124l-25 -114q-2 -4 -2 -11q0 -14 9 -41l49 12l2 -11l-48 -12q5 -15 8 -25q23 -67 23 -94q0 -60 -58.5 -100.5t-133.5 -40.5q-74 0 -126 32.5t-52 71.5q0 15 7 29.5t22.5 26.5t31.5 22.5t42.5 21t46.5 17.5t53.5 16t52.5 14t54 14
q-3 28 -3 43q0 9 1 15l8 58q-33 -72 -95 -72q-45 0 -74.5 31.5t-29.5 79.5q0 62 43.5 107t98.5 45q14 0 48 -2q27 -1 35 -1q44 0 58 23l2 -1z" />
    <glyph glyph-name="Gbreve" unicode="&#x11e;" horiz-adv-x="473" 
d="M191 715l13 5q30 -83 82 -83q56 0 98 81l12 -6q-48 -93 -112 -93q-58 0 -93 96zM393 84l-8 -70v-6q0 -9 2 -22l43 15l4 -13l-44 -16q4 -18 12 -45q24 -83 24 -119q0 -84 -79 -143t-191 -59q-79 0 -134.5 33.5t-55.5 80.5q0 35 39.5 74t104 73t122.5 59t119 47
q-1 15 -1 25q0 9 1 16l9 71q-2 0 -4 1q-19 -37 -53.5 -64t-70.5 -27q-75 0 -129.5 68.5t-54.5 167.5q0 84 33 157t87.5 115t116.5 42q19 0 51 -9q21 -6 29 -6q35 0 51 45l4 -1l-32 -106l-2 1q-23 19 -56.5 38.5t-57.5 19.5q-44 0 -82.5 -44t-60 -113.5t-21.5 -145.5
q0 -90 36.5 -148t97.5 -58q41 0 75 34.5t39 75.5l2 130h-88v14h81q24 0 54.5 12t38.5 28l2 -1zM353 -42q-53 -20 -105.5 -44.5t-109 -57t-92 -68.5t-35.5 -68q0 -41 43 -70.5t104 -29.5q88 0 150 57t62 138q0 32 -10 97q-4 23 -7 46z" />
    <glyph glyph-name="gbreve" unicode="&#x11f;" horiz-adv-x="329" 
d="M120 460l13 5q30 -83 82 -83q56 0 98 81l12 -6q-48 -93 -112 -93q-58 0 -93 96zM228 122l-1 123h-73q-28 0 -52.5 -44t-24.5 -96q0 -41 17 -68t44 -27q30 0 56.5 33.5t33.5 78.5zM218 -60q-39 -9 -61.5 -15t-57.5 -17t-55.5 -21.5t-42 -25t-31.5 -33t-10 -39.5
q0 -35 36.5 -63t88.5 -28q58 0 100 40t42 101q0 25 -7 82q-1 7 -2 19zM260 124l-25 -114q-2 -4 -2 -11q0 -14 9 -41l49 12l2 -11l-48 -12q5 -15 8 -25q23 -67 23 -94q0 -60 -58.5 -100.5t-133.5 -40.5q-74 0 -126 32.5t-52 71.5q0 15 7 29.5t22.5 26.5t31.5 22.5t42.5 21
t46.5 17.5t53.5 16t52.5 14t54 14q-3 28 -3 43q0 9 1 15l8 58q-33 -72 -95 -72q-45 0 -74.5 31.5t-29.5 79.5q0 62 43.5 107t98.5 45q14 0 48 -2q27 -1 35 -1q44 0 58 23l2 -1z" />
    <glyph glyph-name="Gdotaccent" unicode="&#x120;" horiz-adv-x="473" 
d="M251 612l3 24q2 18 10 25.5t22 7.5h44l-5 -35q-1 -10 -10 -16t-20 -6h-44zM393 84l-8 -70v-6q0 -9 2 -22l43 15l4 -13l-44 -16q4 -18 12 -45q24 -83 24 -119q0 -84 -79 -143t-191 -59q-79 0 -134.5 33.5t-55.5 80.5q0 35 39.5 74t104 73t122.5 59t119 47q-1 15 -1 25
q0 9 1 16l9 71q-2 0 -4 1q-19 -37 -53.5 -64t-70.5 -27q-75 0 -129.5 68.5t-54.5 167.5q0 84 33 157t87.5 115t116.5 42q19 0 51 -9q21 -6 29 -6q35 0 51 45l4 -1l-32 -106l-2 1q-23 19 -56.5 38.5t-57.5 19.5q-44 0 -82.5 -44t-60 -113.5t-21.5 -145.5q0 -90 36.5 -148
t97.5 -58q41 0 75 34.5t39 75.5l2 130h-88v14h81q24 0 54.5 12t38.5 28l2 -1zM353 -42q-53 -20 -105.5 -44.5t-109 -57t-92 -68.5t-35.5 -68q0 -41 43 -70.5t104 -29.5q88 0 150 57t62 138q0 32 -10 97q-4 23 -7 46z" />
    <glyph glyph-name="gdotaccent" unicode="&#x121;" horiz-adv-x="329" 
d="M180 357l3 24q2 18 10 25.5t22 7.5h44l-5 -35q-1 -10 -10 -16t-20 -6h-44zM228 122l-1 123h-73q-28 0 -52.5 -44t-24.5 -96q0 -41 17 -68t44 -27q30 0 56.5 33.5t33.5 78.5zM218 -60q-39 -9 -61.5 -15t-57.5 -17t-55.5 -21.5t-42 -25t-31.5 -33t-10 -39.5q0 -35 36.5 -63
t88.5 -28q58 0 100 40t42 101q0 25 -7 82q-1 7 -2 19zM260 124l-25 -114q-2 -4 -2 -11q0 -14 9 -41l49 12l2 -11l-48 -12q5 -15 8 -25q23 -67 23 -94q0 -60 -58.5 -100.5t-133.5 -40.5q-74 0 -126 32.5t-52 71.5q0 15 7 29.5t22.5 26.5t31.5 22.5t42.5 21t46.5 17.5t53.5 16
t52.5 14t54 14q-3 28 -3 43q0 9 1 15l8 58q-33 -72 -95 -72q-45 0 -74.5 31.5t-29.5 79.5q0 62 43.5 107t98.5 45q14 0 48 -2q27 -1 35 -1q44 0 58 23l2 -1z" />
    <glyph glyph-name="Gcommaaccent" unicode="&#x122;" horiz-adv-x="473" 
d="M384 -16q-14 0 -23.5 8.5t-9.5 21.5l9 71l-4 1q-19 -37 -53.5 -64t-70.5 -27q-75 0 -129.5 68.5t-54.5 167.5q0 84 33 157t87.5 115t116.5 42q16 0 45.5 -7.5t34.5 -7.5q35 0 51 45l4 -1l-32 -106l-2 1q-23 19 -56.5 38.5t-57.5 19.5q-44 0 -82.5 -44t-60 -113.5
t-21.5 -145.5q0 -90 36.5 -148t97.5 -58q41 0 75 34.5t39 75.5q0 23 0.5 66.5t1.5 63.5h-128v14h121q24 0 54.5 12t38.5 28l2 -1l-53 -227q-3 -13 -6 -48t-3 -52zM214 -149h-42l3 19q5 31 29 31h47l-6 -32q-4 -21 -20.5 -65.5t-18.5 -51.5h-11q19 78 19 99z" />
    <glyph glyph-name="gcommaaccent" unicode="&#x123;" horiz-adv-x="329" 
d="M210 436h42l-3 -19q-5 -31 -29 -31h-47l6 32q7 37 39 117h11q-19 -78 -19 -99zM228 122l-1 123h-73q-28 0 -52.5 -44t-24.5 -96q0 -41 17 -68t44 -27q30 0 56.5 33.5t33.5 78.5zM218 -60q-39 -9 -61.5 -15t-57.5 -17t-55.5 -21.5t-42 -25t-31.5 -33t-10 -39.5
q0 -35 36.5 -63t88.5 -28q58 0 100 40t42 101q0 25 -7 82q-1 7 -2 19zM260 124l-25 -114q-2 -4 -2 -11q0 -14 9 -41l49 12l2 -11l-48 -12q5 -15 8 -25q23 -67 23 -94q0 -60 -58.5 -100.5t-133.5 -40.5q-74 0 -126 32.5t-52 71.5q0 15 7 29.5t22.5 26.5t31.5 22.5t42.5 21
t46.5 17.5t53.5 16t52.5 14t54 14q-3 28 -3 43q0 9 1 15l8 58q-33 -72 -95 -72q-45 0 -74.5 31.5t-29.5 79.5q0 62 43.5 107t98.5 45q14 0 48 -2q27 -1 35 -1q44 0 58 23l2 -1z" />
    <glyph glyph-name="Hcircumflex" unicode="&#x124;" horiz-adv-x="549" 
d="M279 692h20l97 -78l-14 -14l-93 82l-93 -82l-14 14zM428 529l-69 4v7l145 1l-63 -300h73l-3 -14h-73l-13 -63q-10 -70 -10 -96q0 -25 7.5 -36.5t24.5 -11.5q33 0 111 69l4 -4q-103 -90 -139 -90q-52 0 -52 97q0 31 5 71l9 64h-234l-11 -63q-14 -99 -19 -164l-60 -1
q13 41 30 164l6 64h-58l2 14h57l26 288l-69 4v7l153 1l-2 -13l-5 -3l-48 -284h234z" />
    <glyph glyph-name="hcircumflex" unicode="&#x125;" horiz-adv-x="365" 
d="M251 646h20l97 -78l-14 -14l-93 82l-93 -82l-14 14zM70 0l-54 -1q10 25 27 123l44 376l-62 2v5h59q20 0 44.5 10.5t31.5 22.5l2 -1l-58 -308l-15 -95q24 61 59 96.5t77 35.5q32 0 54 -19t22 -48q0 -17 -21 -87q-18 -63 -18 -78t14 -15q30 0 101 52l2 -3q-87 -68 -116 -68
q-20 0 -28.5 10.5t-8.5 34.5t9 77l9 53q3 15 3 27q0 20 -7 32t-18 12q-53 0 -93 -60t-55 -151q-4 -32 -4 -35z" />
    <glyph glyph-name="Hbar" unicode="&#x126;" horiz-adv-x="549" 
d="M531 438l-3 -18h-49l-38 -179h73l-3 -14h-73l-13 -63q-10 -70 -10 -96q0 -25 7.5 -36.5t24.5 -11.5q33 0 111 69l4 -4q-103 -90 -139 -90q-52 0 -52 97q0 30 5 71l9 64h-234l-11 -63q-14 -99 -19 -164l-60 -1q13 41 30 164l6 64h-58l2 14h57l16 179h-54l3 18h53l8 91
l-69 4v7l153 1l-2 -13l-5 -3l-15 -87h229l13 91l-69 4v7l145 1l-22 -103h49zM413 420h-230l-30 -179h234z" />
    <glyph glyph-name="hbar" unicode="&#x127;" horiz-adv-x="395" 
d="M100 0l-54 -1q10 25 27 123l31 264h-58l3 18h57l11 94l-72 2v5h69q20 0 44.5 10.5t31.5 22.5l2 -1l-25 -133h95l-3 -18h-95l-30 -157l-15 -95q24 61 59 96.5t77 35.5q32 0 54 -19t22 -48q0 -17 -21 -87q-18 -63 -18 -78t14 -15q30 0 101 52l2 -3q-87 -68 -116 -68
q-20 0 -28.5 10.5t-8.5 34.5t9 77l9 53q3 15 3 27q0 20 -7 32t-18 12q-53 0 -93 -60t-55 -151q-4 -32 -4 -35z" />
    <glyph glyph-name="Itilde" unicode="&#x128;" horiz-adv-x="206" 
d="M272 674l12 -6q-34 -66 -73 -66q-19 0 -52 20.5t-47 20.5q-25 0 -60 -49l-12 8q13 18 22 28.5t23 20.5t27 10q20 0 53 -21t48 -21q31 0 59 55zM121 0l-60 -1q13 41 30 164l32 366l-68 4v7l153 1l-3 -13l-5 -3l-60 -361q-16 -108 -19 -164z" />
    <glyph glyph-name="itilde" unicode="&#x129;" horiz-adv-x="219" 
d="M247 419l12 -6q-34 -66 -73 -66q-19 0 -52 20.5t-47 20.5q-25 0 -60 -49l-12 8q13 18 22 28.5t23 20.5t27 10q20 0 53 -21t48 -21q31 0 59 55zM62 122l8 102l-53 6v5h67q35 1 68 44l2 -1l-49 -155q-9 -54 -9 -72t5.5 -23.5t22.5 -5.5q39 0 101 45l3 -3q-93 -68 -133 -68
q-42 0 -42 48q0 28 9 78z" />
    <glyph glyph-name="Imacron" unicode="&#x12a;" horiz-adv-x="206" 
d="M74 647h209l-2 -18h-209zM121 0l-60 -1q13 41 30 164l32 366l-68 4v7l153 1l-3 -13l-5 -3l-60 -361q-16 -108 -19 -164z" />
    <glyph glyph-name="imacron" unicode="&#x12b;" horiz-adv-x="219" 
d="M34 392h209l-2 -18h-209zM62 122l8 102l-53 6v5h67q35 1 68 44l2 -1l-49 -155q-9 -54 -9 -72t5.5 -23.5t22.5 -5.5q39 0 101 45l3 -3q-93 -68 -133 -68q-42 0 -42 48q0 28 9 78z" />
    <glyph glyph-name="Ibreve" unicode="&#x12c;" horiz-adv-x="206" 
d="M82 715l13 5q30 -83 82 -83q56 0 98 81l12 -6q-48 -93 -112 -93q-58 0 -93 96zM121 0l-60 -1q13 41 30 164l32 366l-68 4v7l153 1l-3 -13l-5 -3l-60 -361q-16 -108 -19 -164z" />
    <glyph glyph-name="ibreve" unicode="&#x12d;" horiz-adv-x="219" 
d="M42 460l13 5q30 -83 82 -83q56 0 98 81l12 -6q-48 -93 -112 -93q-58 0 -93 96zM62 122l8 102l-53 6v5h67q35 1 68 44l2 -1l-49 -155q-9 -54 -9 -72t5.5 -23.5t22.5 -5.5q39 0 101 45l3 -3q-93 -68 -133 -68q-42 0 -42 48q0 28 9 78z" />
    <glyph glyph-name="Iogonek" unicode="&#x12e;" horiz-adv-x="206" 
d="M159 -111q-57 -70 -87 -70q-28 0 -45 18t-17 46q0 53 75 116h-24q13 41 30 164l32 366l-68 4v7l153 1l-3 -13l-5 -3l-60 -361q-16 -108 -19 -164h-18q-28 -22 -46 -55t-18 -58q0 -19 11 -31t29 -12q29 0 74 50z" />
    <glyph glyph-name="iogonek" unicode="&#x12f;" horiz-adv-x="219" 
d="M171 -111q-57 -70 -87 -70q-28 0 -45 18t-17 46q0 51 71 113q-18 0 -29 12.5t-11 35.5q0 28 9 78l8 102l-53 6v5h67q35 1 68 44l2 -1l-49 -155q-9 -54 -9 -72t5.5 -23.5t22.5 -5.5q39 0 101 45l3 -3q-66 -49 -112 -64q-28 -22 -46.5 -54.5t-18.5 -58.5q0 -19 11 -31
t29 -12q29 0 75 50zM102 357l3 24q2 18 10 25.5t22 7.5h44l-5 -35q-1 -10 -10 -16t-20 -6h-44z" />
    <glyph glyph-name="Idotaccent" unicode="&#x130;" horiz-adv-x="206" 
d="M127 612l3 24q2 18 10 25.5t22 7.5h44l-5 -35q-1 -10 -10 -16t-20 -6h-44zM121 0l-60 -1q13 41 30 164l32 366l-68 4v7l153 1l-3 -13l-5 -3l-60 -361q-16 -108 -19 -164z" />
    <glyph glyph-name="dotlessi" unicode="&#x131;" horiz-adv-x="219" 
d="M62 122l8 102l-53 6v5h67q35 1 68 44l2 -1l-49 -155q-9 -54 -9 -72t5.5 -23.5t22.5 -5.5q39 0 101 45l3 -3q-93 -68 -133 -68q-42 0 -42 48q0 28 9 78z" />
    <glyph glyph-name="IJ" unicode="&#x132;" horiz-adv-x="433" 
d="M318 163l32 366l-68 4v7l152 1l-2 -13l-5 -3l-61 -361q-27 -184 -43 -345q-8 -59 -60 -96t-123 -37q-54 0 -92.5 30.5t-38.5 74.5q0 56 61 95.5t147 39.5l-4 -32q-78 0 -134 -30t-56 -72q0 -38 35 -65t84 -27q46 0 80 34t41 85zM121 0l-60 -1q13 41 30 164l32 366l-68 4
v7l153 1l-3 -13l-5 -3l-60 -361q-16 -108 -19 -164z" />
    <glyph glyph-name="ij" unicode="&#x133;" horiz-adv-x="409" 
d="M314 351l4 26q6 41 32 41h47l-7 -43q-1 -10 -10 -17t-21 -7h-45zM100 351l4 26q6 41 32 41h47l-7 -43q-1 -10 -10 -17t-21 -7h-45zM62 122l8 102l-53 6v5h67q35 1 68 44l2 -1l-49 -155q-9 -54 -9 -72t5.5 -23.5t22.5 -5.5q39 0 101 45l3 -3q-93 -68 -133 -68
q-42 0 -42 48q0 28 9 78zM272 -42q-102 -34 -166 -91t-64 -129q0 -34 21.5 -57.5t51.5 -23.5q47 0 83 35.5t45 90.5zM305 241l-64 3v5h82q29 0 53 30l2 -1l-59 -301l34 7l2 -10l-38 -9l-30 -181q-12 -61 -60.5 -99.5t-113.5 -38.5q-41 0 -70 27t-29 65q0 75 72 133t188 97
l8 42z" />
    <glyph glyph-name="Jcircumflex" unicode="&#x134;" horiz-adv-x="227" 
d="M174 692h20l97 -78l-14 -14l-93 82l-93 -82l-14 14zM112 163l32 366l-68 4v7l152 1l-2 -13l-5 -3l-61 -361q-27 -184 -43 -345q-8 -59 -60 -96t-123 -37q-54 0 -92.5 30.5t-38.5 74.5q0 56 61 95.5t147 39.5l-4 -32q-78 0 -134 -30t-56 -72q0 -38 35 -65t84 -27
q46 0 80 34t41 85z" />
    <glyph glyph-name="jcircumflex" unicode="&#x135;" horiz-adv-x="190" 
d="M139 437h20l97 -78l-14 -14l-93 82l-93 -82l-14 14zM-246 -384q-97 0 -156 55.5t-59 126.5q0 48 30 84t89 48l2 -7q-54 -12 -82 -44.5t-28 -74.5q0 -64 56.5 -114.5t149.5 -50.5q108 0 189 72.5t99 183.5l19 115l23 231l-64 3v5h82q27 0 53 30l2 -1l-70 -379
q-23 -124 -117 -203.5t-218 -79.5z" />
    <glyph glyph-name="Kcommaaccent" unicode="&#x136;" horiz-adv-x="474" 
d="M186 -97h-42l3 19q5 31 29 31h47l-6 -32q-7 -37 -39 -117h-11q19 78 19 99zM122 0l-61 -1q13 41 31 164l32 366l-69 4v7l148 2q-1 -7 -3 -17l-40 -239h21q48 53 142 166q67 81 77 89q16 2 39 2l58 1l-1 -28q-12 1 -22 1q-34 0 -72.5 -26.5t-87.5 -76.5q-61 -62 -117 -128
q81 -1 115.5 -19t44.5 -77q88 -501 390 -501q84 0 169 61l4 -5q-92 -75 -198 -75q-88 0 -160.5 37t-125 107t-89 165.5t-58.5 217.5q-8 47 -35.5 60.5t-95.5 14.5l-18 -108q-15 -105 -18 -164z" />
    <glyph glyph-name="kcommaaccent" unicode="&#x137;" horiz-adv-x="327" 
d="M138 -97h-42l3 19q5 31 29 31h47l-6 -32q-7 -37 -39 -117h-11q19 78 19 99zM71 -3l-53 -1q11 27 28 126l44 376l-64 2v5h72q35 0 64 33l2 -1l-76 -413q-1 -5 -1 -8l149 139q10 1 37 2l52 1l-2 -35h-22q-44 0 -72.5 -10t-59.5 -35l-20 -18h50q34 -93 81.5 -170.5t107 -136
t132.5 -91.5t152 -33q77 0 148 50l3 -3q-82 -66 -175 -66q-82 0 -158 33t-138 92t-111.5 138t-84.5 173h-21q-35 -34 -42 -39l-9 -7q-11 -67 -13 -103z" />
    <glyph glyph-name="kgreenlandic" unicode="&#x138;" horiz-adv-x="342" 
d="M86 -3l-53 -1q11 27 28 126l10 121l-59 2v5h53q37 0 54 36l2 -1l-19 -169l149 139q10 1 37 2l52 1l-2 -35h-22q-44 0 -72.5 -10t-59.5 -35l-20 -18h50q34 -93 81.5 -170.5t107 -136t132.5 -91.5t152 -33q77 0 148 50l3 -3q-82 -66 -175 -66q-82 0 -158 33t-138 92
t-111.5 138t-84.5 173h-21q-35 -34 -42 -39l-9 -7q-11 -67 -13 -103z" />
    <glyph glyph-name="Lacute" unicode="&#x139;" horiz-adv-x="429" 
d="M138 593l72 101q5 7 14 7q7 0 12 -4l37 -34l-2 -2q-73 -9 -124 -76zM68 14q8 35 25 159l31 356l-68 4v7l153 1l-3 -13l-5 -3l-59 -351q-16 -113 -18 -160h82l182 33l13 74h7l-15 -135l-13 1l-3 4l-172 9q-129 0 -184 -3l1 20q15 -3 46 -3z" />
    <glyph glyph-name="lacute" unicode="&#x13a;" horiz-adv-x="191" 
d="M101 547l72 101q5 7 14 7q7 0 12 -4l37 -34l-2 -2q-73 -9 -124 -76zM42 122l44 376l-57 2v5h59q20 0 35.5 5.5t22 11t15.5 16.5l2 -1q-25 -112 -56.5 -281t-31.5 -205t18 -36q29 0 100 52l3 -3q-87 -68 -116 -68q-20 0 -33.5 12.5t-13.5 35.5q0 28 9 78z" />
    <glyph glyph-name="Lcommaaccent" unicode="&#x13b;" horiz-adv-x="429" 
d="M192 -97h-42l3 19q5 31 29 31h47l-6 -32q-7 -37 -39 -117h-11q19 78 19 99zM68 14q8 35 25 159l31 356l-68 4v7l153 1l-3 -13l-5 -3l-59 -351q-16 -113 -18 -160h82l182 33l13 74h7l-15 -135l-13 1l-3 4l-172 9q-129 0 -184 -3l1 20q15 -3 46 -3z" />
    <glyph glyph-name="lcommaaccent" unicode="&#x13c;" horiz-adv-x="191" 
d="M103 -97h-42l3 19q5 31 29 31h47l-6 -32q-7 -37 -39 -117h-11q19 78 19 99zM42 122l44 376l-57 2v5h59q20 0 35.5 5.5t22 11t15.5 16.5l2 -1q-25 -112 -56.5 -281t-31.5 -205t18 -36q29 0 100 52l3 -3q-87 -68 -116 -68q-20 0 -33.5 12.5t-13.5 35.5q0 28 9 78z" />
    <glyph glyph-name="Lcaron" unicode="&#x13d;" horiz-adv-x="434" 
d="M424 501h-42l3 19q5 31 29 31h47l-6 -32q-7 -37 -39 -117h-11q19 78 19 99zM68 14q8 35 25 159l31 356l-68 4v7l153 1l-3 -13l-5 -3l-59 -351q-16 -113 -18 -160h82l182 33l13 74h7l-15 -135l-13 1l-3 4l-172 9q-129 0 -184 -3l1 20q15 -3 46 -3z" />
    <glyph glyph-name="lcaron" unicode="&#x13e;" horiz-adv-x="242" 
d="M257 463h-42l3 19q5 31 29 31h47l-6 -32q-7 -37 -39 -117h-11q19 78 19 99zM42 122l44 376l-57 2v5h59q20 0 35.5 5.5t22 11t15.5 16.5l2 -1q-25 -112 -56.5 -281t-31.5 -205t18 -36q29 0 100 52l3 -3q-87 -68 -116 -68q-20 0 -33.5 12.5t-13.5 35.5q0 28 9 78z" />
    <glyph glyph-name="Ldot" unicode="&#x13f;" horiz-adv-x="429" 
d="M263 291q0 9 7 16t16 7t16 -7t7 -16t-7 -16t-16 -7t-16 7t-7 16zM68 14q8 35 25 159l31 356l-68 4v7l153 1l-3 -13l-5 -3l-59 -351q-16 -113 -18 -160h82l182 33l13 74h7l-15 -135l-13 1l-3 4l-172 9q-129 0 -184 -3l1 20q15 -3 46 -3z" />
    <glyph glyph-name="ldot" unicode="&#x140;" horiz-adv-x="191" 
d="M171 270q0 9 7 16t16 7t16 -7t7 -16t-7 -16t-16 -7t-16 7t-7 16zM42 122l44 376l-57 2v5h59q20 0 35.5 5.5t22 11t15.5 16.5l2 -1q-25 -112 -56.5 -281t-31.5 -205t18 -36q29 0 100 52l3 -3q-87 -68 -116 -68q-20 0 -33.5 12.5t-13.5 35.5q0 28 9 78z" />
    <glyph glyph-name="Lslash" unicode="&#x141;" horiz-adv-x="447" 
d="M39 -3l1 20q15 -3 46 -3q8 35 25 159l2 14l-72 -41l-7 12l80 48l28 323l-68 4v7l153 1l-3 -13l-5 -3l-48 -285l180 107l11 -16l-194 -112l-8 -45q-16 -113 -18 -160h82l182 33l13 74h7l-15 -135l-13 1l-3 4l-172 9q-129 0 -184 -3z" />
    <glyph glyph-name="lslash" unicode="&#x142;" horiz-adv-x="245" 
d="M240 290l11 -16l-117 -70q-22 -120 -22 -148q0 -17 7.5 -29t17.5 -12q34 0 105 52l3 -3q-87 -68 -121 -68q-22 0 -38 15.5t-16 37.5q0 23 9 73l6 53l-71 -43l-7 13l81 50l35 303l-57 2v5h59q20 0 35.5 5.5t22 11t15.5 16.5l2 -1q-32 -143 -62 -311z" />
    <glyph glyph-name="Nacute" unicode="&#x143;" horiz-adv-x="483" 
d="M247 593l72 101q5 7 14 7q7 0 12 -4l37 -34l-2 -2q-73 -9 -124 -76zM111 0l-51 -4q10 33 43 267l21 266l-69 4v7h153q0 -37 8 -57l179 -456q11 81 24 236l9 266l-61 4v7l112 1l-41 -277q-19 -128 -33 -264l-58 -8l-181 488q-5 14 -5 48h-12l-22 -264q-15 -138 -16 -264z
" />
    <glyph glyph-name="nacute" unicode="&#x144;" horiz-adv-x="375" 
d="M181 338l72 101q5 7 14 7q7 0 12 -4l37 -34l-2 -2q-73 -9 -124 -76zM87 0l-54 -4q9 23 27 126v109l-49 2v5h50q27 0 44 34l2 -1l-4 -145q23 63 58 100.5t75 37.5q34 0 54.5 -19t20.5 -50q0 -21 -17 -72q-23 -70 -23 -92q0 -16 14 -16q30 0 101 52l2 -3q-88 -68 -116 -68
q-20 0 -28.5 11.5t-8.5 36.5q0 26 10 78l10 50q2 11 2 23q0 20 -6.5 34.5t-18.5 14.5q-46 0 -84 -55.5t-55 -137.5q-6 -44 -6 -51z" />
    <glyph glyph-name="Ncommaaccent" unicode="&#x145;" horiz-adv-x="483" 
d="M226 -97h-42l3 19q5 31 29 31h47l-6 -32q-7 -37 -39 -117h-11q19 78 19 99zM111 0l-51 -4q10 33 43 267l21 266l-69 4v7h153q0 -37 8 -57l179 -456q11 81 24 236l9 266l-61 4v7l112 1l-41 -277q-19 -128 -33 -264l-58 -8l-181 488q-5 14 -5 48h-12l-22 -264
q-15 -138 -16 -264z" />
    <glyph glyph-name="ncommaaccent" unicode="&#x146;" horiz-adv-x="375" 
d="M206 -97h-42l3 19q5 31 29 31h47l-6 -32q-7 -37 -39 -117h-11q19 78 19 99zM87 0l-54 -4q9 23 27 126v109l-49 2v5h50q27 0 44 34l2 -1l-4 -145q23 63 58 100.5t75 37.5q34 0 54.5 -19t20.5 -50q0 -21 -17 -72q-23 -70 -23 -92q0 -16 14 -16q30 0 101 52l2 -3
q-88 -68 -116 -68q-20 0 -28.5 11.5t-8.5 36.5q0 26 10 78l10 50q2 11 2 23q0 20 -6.5 34.5t-18.5 14.5q-46 0 -84 -55.5t-55 -137.5q-6 -44 -6 -51z" />
    <glyph glyph-name="Ncaron" unicode="&#x147;" horiz-adv-x="483" 
d="M274 598l-97 78l14 14l93 -82l93 82l14 -14l-97 -78h-20zM111 0l-51 -4q10 33 43 267l21 266l-69 4v7h153q0 -37 8 -57l179 -456q11 81 24 236l9 266l-61 4v7l112 1l-41 -277q-19 -128 -33 -264l-58 -8l-181 488q-5 14 -5 48h-12l-22 -264q-15 -138 -16 -264z" />
    <glyph glyph-name="ncaron" unicode="&#x148;" horiz-adv-x="375" 
d="M202 343l-97 78l14 14l93 -82l93 82l14 -14l-97 -78h-20zM87 0l-54 -4q9 23 27 126v109l-49 2v5h50q27 0 44 34l2 -1l-4 -145q23 63 58 100.5t75 37.5q34 0 54.5 -19t20.5 -50q0 -21 -17 -72q-23 -70 -23 -92q0 -16 14 -16q30 0 101 52l2 -3q-88 -68 -116 -68
q-20 0 -28.5 11.5t-8.5 36.5q0 26 10 78l10 50q2 11 2 23q0 20 -6.5 34.5t-18.5 14.5q-46 0 -84 -55.5t-55 -137.5q-6 -44 -6 -51z" />
    <glyph glyph-name="napostrophe" unicode="&#x149;" horiz-adv-x="425" 
d="M137 0l-54 -4q9 23 27 126v109l-49 2v5h50q27 0 44 34l2 -1l-4 -145q23 63 58 100.5t75 37.5q34 0 54.5 -19t20.5 -50q0 -21 -17 -72q-23 -70 -23 -92q0 -16 14 -16q30 0 101 52l2 -3q-88 -68 -116 -68q-20 0 -28.5 11.5t-8.5 36.5q0 26 10 78l10 50q2 11 2 23
q0 20 -6.5 34.5t-18.5 14.5q-46 0 -84 -55.5t-55 -137.5q-6 -44 -6 -51zM62 423h-42l3 19q5 31 29 31h47l-6 -32q-7 -37 -39 -117h-11q19 78 19 99z" />
    <glyph glyph-name="Eng" unicode="&#x14a;" horiz-adv-x="483" 
d="M395 -84q-9 -71 -45 -120t-83 -49q-31 0 -52.5 22t-21.5 54q0 7 1 14h30q-1 -8 -1 -15q0 -26 13.5 -43.5t32.5 -17.5q37 0 63 43q26 44 32 106q0 37 -17 82l-181 488q-5 14 -5 48h-12l-22 -264q-14 -138 -16 -264l-51 -4q10 33 43 267l21 266l-69 4v7h153q0 -37 8 -57
l179 -456q11 81 24 236l9 266l-61 4v7l112 1l-41 -277q-25 -164 -43 -348z" />
    <glyph glyph-name="eng" unicode="&#x14b;" horiz-adv-x="346" 
d="M318 195l-45 -279q-12 -72 -46.5 -120.5t-81.5 -48.5q-31 0 -52.5 22t-21.5 54q0 7 1 14h30q-1 -8 -1 -15q0 -26 13.5 -43.5t32.5 -17.5q36 0 62.5 43t31.5 106l22 260q1 15 1 25q0 20 -9.5 34.5t-22.5 14.5q-46 0 -84 -55.5t-55 -137.5q-5 -43 -6 -51l-54 -4
q9 23 27 126v109l-49 2v5h50q27 0 44 34l2 -1l-4 -145q23 63 58 100.5t75 37.5q34 0 58 -20t24 -49z" />
    <glyph glyph-name="Omacron" unicode="&#x14c;" horiz-adv-x="473" 
d="M195 647h209l-2 -18h-209zM107 216q0 -84 36 -143.5t87 -59.5q74 0 119 86t45 226q0 84 -35.5 143t-85.5 59q-74 0 -120 -85.5t-46 -225.5zM44 227q0 142 67 230t174 88q72 0 122.5 -68t50.5 -164q0 -142 -67 -230t-173 -88q-72 0 -123 68t-51 164z" />
    <glyph glyph-name="omacron" unicode="&#x14d;" horiz-adv-x="346" 
d="M105 392h209l-2 -18h-209zM85 180q-10 -24 -10 -75q0 -42 25 -68.5t60 -26.5q39 0 68.5 41.5t29.5 98.5q0 43 -22 71.5t-54 28.5q-46 0 -46 -63q0 -8 -17 -8v14q0 33 20.5 52t53.5 19q52 0 86 -31.5t34 -78.5q0 -65 -49 -111.5t-115 -46.5q-53 0 -89 29.5t-36 75.5
q0 44 36 98q6 0 15.5 -6.5t9.5 -12.5z" />
    <glyph glyph-name="Obreve" unicode="&#x14e;" horiz-adv-x="473" 
d="M203 715l13 5q30 -83 82 -83q56 0 98 81l12 -6q-48 -93 -112 -93q-58 0 -93 96zM107 216q0 -84 36 -143.5t87 -59.5q74 0 119 86t45 226q0 84 -35.5 143t-85.5 59q-74 0 -120 -85.5t-46 -225.5zM44 227q0 142 67 230t174 88q72 0 122.5 -68t50.5 -164q0 -142 -67 -230
t-173 -88q-72 0 -123 68t-51 164z" />
    <glyph glyph-name="obreve" unicode="&#x14f;" horiz-adv-x="346" 
d="M113 460l13 5q30 -83 82 -83q56 0 98 81l12 -6q-48 -93 -112 -93q-58 0 -93 96zM85 180q-10 -24 -10 -75q0 -42 25 -68.5t60 -26.5q39 0 68.5 41.5t29.5 98.5q0 43 -22 71.5t-54 28.5q-46 0 -46 -63q0 -8 -17 -8v14q0 33 20.5 52t53.5 19q52 0 86 -31.5t34 -78.5
q0 -65 -49 -111.5t-115 -46.5q-53 0 -89 29.5t-36 75.5q0 44 36 98q6 0 15.5 -6.5t9.5 -12.5z" />
    <glyph glyph-name="Ohungarumlaut" unicode="&#x150;" horiz-adv-x="473" 
d="M192 583l-8 10l153 103l10 -15zM332 583l-8 10l153 103l10 -15zM107 216q0 -84 36 -143.5t87 -59.5q74 0 119 86t45 226q0 84 -35.5 143t-85.5 59q-74 0 -120 -85.5t-46 -225.5zM44 227q0 142 67 230t174 88q72 0 122.5 -68t50.5 -164q0 -142 -67 -230t-173 -88
q-72 0 -123 68t-51 164z" />
    <glyph glyph-name="ohungarumlaut" unicode="&#x151;" horiz-adv-x="346" 
d="M102 328l-8 10l153 103l10 -15zM242 328l-8 10l153 103l10 -15zM85 180q-10 -24 -10 -75q0 -42 25 -68.5t60 -26.5q39 0 68.5 41.5t29.5 98.5q0 43 -22 71.5t-54 28.5q-46 0 -46 -63q0 -8 -17 -8v14q0 33 20.5 52t53.5 19q52 0 86 -31.5t34 -78.5q0 -65 -49 -111.5
t-115 -46.5q-53 0 -89 29.5t-36 75.5q0 44 36 98q6 0 15.5 -6.5t9.5 -12.5z" />
    <glyph glyph-name="OE" unicode="&#x152;" horiz-adv-x="695" 
d="M218 -5q-72 0 -123 68t-51 164q0 142 67 230t174 88q22 0 77.5 -2.5t95.5 -2.5h32l191 9l-20 -120h-7l8 84l-175 13h-47v-2l20 -3l-34 -200h14l100 5l17 75h7q-5 -53 -10 -89q-4 -34 -16 -97h-7l5 84l-78 8h-34l-23 -133q-14 -95 -18 -160h62l179 13l15 84h7l-15 -125
l-13 1l-2 4l-172 9h-62q-29 0 -86 -2.5t-78 -2.5zM328 15q8 37 25 158l30 351l-110 3q-74 0 -120 -85.5t-46 -225.5q0 -84 36 -143.5t87 -59.5q54 0 98 2z" />
    <glyph glyph-name="oe" unicode="&#x153;" horiz-adv-x="540" 
d="M85 180q-10 -24 -10 -75q0 -42 25 -68.5t60 -26.5q39 0 68.5 41.5t29.5 98.5q0 43 -22 71.5t-54 28.5q-46 0 -46 -63q0 -8 -17 -8v14q0 33 20.5 52t53.5 19t60 -18t40 -47q43 60 117 60q41 0 71.5 -19t30.5 -45q0 -42 -59.5 -70.5t-142.5 -30.5q2 -34 26.5 -57t58.5 -23
q61 0 125 53l3 -3q-78 -68 -137 -68q-38 0 -68.5 17.5t-44.5 46.5q-21 -30 -54 -47t-70 -17q-53 0 -89 29.5t-36 75.5q0 44 36 98q6 0 15.5 -6.5t9.5 -12.5zM309 100q66 1 106.5 26.5t40.5 64.5q0 22 -17 38t-40 16q-42 0 -66 -38t-24 -102v-5z" />
    <glyph glyph-name="Racute" unicode="&#x154;" horiz-adv-x="484" 
d="M238 593l72 101q5 7 14 7q7 0 12 -4l37 -34l-2 -2q-73 -9 -124 -76zM121 0l-60 -1q13 41 30 164l33 367l-69 3v7l142 1q18 1 32 2q57 2 87 2q59 0 106.5 -45.5t47.5 -108.5q0 -81 -57.5 -138.5t-138.5 -57.5l-72 2q37 -13 70.5 -32.5t66.5 -49t53 -50t55 -58.5
q97 -105 190.5 -161.5t203.5 -56.5q42 0 87 12t76 34l4 -5q-38 -31 -96.5 -53t-106.5 -22q-63 0 -122 20t-113.5 59.5t-100 83.5t-97.5 105q-33 39 -51.5 59.5t-46.5 47.5t-53.5 42.5t-51.5 23.5l2 12l95 2q59 0 101.5 53.5t42.5 129.5q0 58 -29.5 96t-76.5 38q-83 0 -116 2
l-2 -3l14 -3l-60 -359q-15 -97 -19 -164z" />
    <glyph glyph-name="racute" unicode="&#x155;" horiz-adv-x="288" 
d="M159 338l72 101q5 7 14 7q7 0 12 -4l37 -34l-2 -2q-73 -9 -124 -76zM96 0l-54 -1q10 25 27 123l-1 101l-53 2v5h50q31 0 53 49l2 -1l-12 -160v-2q0 -3 1 -6q20 65 53 103.5t66 38.5q23 0 42.5 5t20.5 13h2l-7 -56q-1 -8 -22 -8h-47q-34 0 -69 -47.5t-48 -121.5
q-4 -34 -4 -37z" />
    <glyph glyph-name="Rcommaaccent" unicode="&#x156;" horiz-adv-x="484" 
d="M233 -97h-42l3 19q5 31 29 31h47l-6 -32q-7 -37 -39 -117h-11q19 78 19 99zM121 0l-60 -1q13 41 30 164l33 367l-69 3v7l142 1q18 1 32 2q57 2 87 2q59 0 106.5 -45.5t47.5 -108.5q0 -81 -57.5 -138.5t-138.5 -57.5l-72 2q37 -13 70.5 -32.5t66.5 -49t53 -50t55 -58.5
q97 -105 190.5 -161.5t203.5 -56.5q42 0 87 12t76 34l4 -5q-38 -31 -96.5 -53t-106.5 -22q-63 0 -122 20t-113.5 59.5t-100 83.5t-97.5 105q-33 39 -51.5 59.5t-46.5 47.5t-53.5 42.5t-51.5 23.5l2 12l95 2q59 0 101.5 53.5t42.5 129.5q0 58 -29.5 96t-76.5 38q-83 0 -116 2
l-2 -3l14 -3l-60 -359q-15 -97 -19 -164z" />
    <glyph glyph-name="rcommaaccent" unicode="&#x157;" horiz-adv-x="288" 
d="M130 -97h-42l3 19q5 31 29 31h47l-6 -32q-7 -37 -39 -117h-11q19 78 19 99zM96 0l-54 -1q10 25 27 123l-1 101l-53 2v5h50q31 0 53 49l2 -1l-12 -160v-2q0 -3 1 -6q20 65 53 103.5t66 38.5q23 0 42.5 5t20.5 13h2l-7 -56q-1 -8 -22 -8h-47q-34 0 -69 -47.5t-48 -121.5
q-4 -34 -4 -37z" />
    <glyph glyph-name="Rcaron" unicode="&#x158;" horiz-adv-x="484" 
d="M259 598l-97 78l14 14l93 -82l93 82l14 -14l-97 -78h-20zM121 0l-60 -1q13 41 30 164l33 367l-69 3v7l142 1q18 1 32 2q57 2 87 2q59 0 106.5 -45.5t47.5 -108.5q0 -81 -57.5 -138.5t-138.5 -57.5l-72 2q37 -13 70.5 -32.5t66.5 -49t53 -50t55 -58.5
q97 -105 190.5 -161.5t203.5 -56.5q42 0 87 12t76 34l4 -5q-38 -31 -96.5 -53t-106.5 -22q-63 0 -122 20t-113.5 59.5t-100 83.5t-97.5 105q-33 39 -51.5 59.5t-46.5 47.5t-53.5 42.5t-51.5 23.5l2 12l95 2q59 0 101.5 53.5t42.5 129.5q0 58 -29.5 96t-76.5 38q-83 0 -116 2
l-2 -3l14 -3l-60 -359q-15 -97 -19 -164z" />
    <glyph glyph-name="rcaron" unicode="&#x159;" horiz-adv-x="288" 
d="M180 343l-97 78l14 14l93 -82l93 82l14 -14l-97 -78h-20zM96 0l-54 -1q10 25 27 123l-1 101l-53 2v5h50q31 0 53 49l2 -1l-12 -160v-2q0 -3 1 -6q20 65 53 103.5t66 38.5q23 0 42.5 5t20.5 13h2l-7 -56q-1 -8 -22 -8h-47q-34 0 -69 -47.5t-48 -121.5q-4 -34 -4 -37z" />
    <glyph glyph-name="Sacute" unicode="&#x15a;" horiz-adv-x="402" 
d="M219 593l72 101q5 7 14 7q7 0 12 -4l37 -34l-2 -2q-73 -9 -124 -76zM380 572l-24 -101l-3 1q-18 18 -50.5 36.5t-56.5 18.5q-56 0 -93 -27t-37 -76q0 -18 8 -32.5t26.5 -28.5t32.5 -23t42 -24q27 -15 42 -24t38 -26t35 -32.5t21.5 -38t9.5 -48.5q0 -63 -57.5 -107.5
t-137.5 -44.5q-38 0 -98 24q-33 13 -45 13l12 89h7v-5q0 -40 36 -73.5t90 -33.5q59 0 100.5 36.5t41.5 87.5q0 18 -8 33t-25.5 29t-32 23.5t-41.5 24.5t-41 23.5t-36 25.5t-33.5 32t-20.5 37.5t-9 47.5q0 64 49.5 100t125.5 36q19 0 52 -8q20 -5 28 -5q21 0 31 10.5t17 30.5
z" />
    <glyph glyph-name="sacute" unicode="&#x15b;" horiz-adv-x="297" 
d="M135 338l72 101q5 7 14 7q7 0 12 -4l37 -34l-2 -2q-73 -9 -124 -76zM64 83q-27 0 -46 -17.5t-19 -42.5q0 -35 37 -60.5t90 -25.5q46 0 78.5 24t32.5 58q0 60 -86 92q-18 7 -29 11.5t-26.5 13t-24 16.5t-15 20t-6.5 26q0 30 28 45.5t72 15.5q12 0 38 -6q19 -5 25 -5
q18 0 27.5 8.5t15.5 23.5l4 -2l-29 -74l-3 1q-51 40 -79 40q-25 0 -43.5 -10t-18.5 -28q0 -12 14.5 -19.5t46.5 -19.5q128 -46 128 -139q0 -44 -44.5 -75t-107.5 -31q-56 0 -95.5 28.5t-39.5 69.5q0 30 22 51t54 21t55 -21t23 -50q0 -12 -8.5 -20.5t-20.5 -8.5q7 14 7 31
q0 24 -16.5 41.5t-40.5 17.5z" />
    <glyph glyph-name="Scircumflex" unicode="&#x15c;" horiz-adv-x="402" 
d="M250 692h20l97 -78l-14 -14l-93 82l-93 -82l-14 14zM380 572l-24 -101l-3 1q-18 18 -50.5 36.5t-56.5 18.5q-56 0 -93 -27t-37 -76q0 -18 8 -32.5t26.5 -28.5t32.5 -23t42 -24q27 -15 42 -24t38 -26t35 -32.5t21.5 -38t9.5 -48.5q0 -63 -57.5 -107.5t-137.5 -44.5
q-38 0 -98 24q-33 13 -45 13l12 89h7v-5q0 -40 36 -73.5t90 -33.5q59 0 100.5 36.5t41.5 87.5q0 18 -8 33t-25.5 29t-32 23.5t-41.5 24.5t-41 23.5t-36 25.5t-33.5 32t-20.5 37.5t-9 47.5q0 64 49.5 100t125.5 36q19 0 52 -8q20 -5 28 -5q21 0 31 10.5t17 30.5z" />
    <glyph glyph-name="scircumflex" unicode="&#x15d;" horiz-adv-x="297" 
d="M166 437h20l97 -78l-14 -14l-93 82l-93 -82l-14 14zM64 83q-27 0 -46 -17.5t-19 -42.5q0 -35 37 -60.5t90 -25.5q46 0 78.5 24t32.5 58q0 60 -86 92q-18 7 -29 11.5t-26.5 13t-24 16.5t-15 20t-6.5 26q0 30 28 45.5t72 15.5q12 0 38 -6q19 -5 25 -5q18 0 27.5 8.5
t15.5 23.5l4 -2l-29 -74l-3 1q-51 40 -79 40q-25 0 -43.5 -10t-18.5 -28q0 -12 14.5 -19.5t46.5 -19.5q128 -46 128 -139q0 -44 -44.5 -75t-107.5 -31q-56 0 -95.5 28.5t-39.5 69.5q0 30 22 51t54 21t55 -21t23 -50q0 -12 -8.5 -20.5t-20.5 -8.5q7 14 7 31q0 24 -16.5 41.5
t-40.5 17.5z" />
    <glyph glyph-name="Scedilla" unicode="&#x15e;" horiz-adv-x="402" 
d="M380 572l-24 -101l-3 1q-18 18 -50.5 36.5t-56.5 18.5q-56 0 -93 -27t-37 -76q0 -33 27 -55.5t82 -52.5q27 -15 42.5 -24t38 -25.5t34.5 -32t21.5 -38.5t9.5 -49q0 -63 -57.5 -107.5t-137.5 -44.5q-8 0 -17 1l-15 -55q22 9 42 9q32 0 54.5 -19t22.5 -47q0 -48 -48.5 -83
t-120.5 -44l-2 14q56 8 93.5 38t37.5 70q0 24 -11.5 40.5t-27.5 16.5q-26 0 -45 -13q-8 2 -13 6l20 69q-28 5 -68 21q-32 13 -45 13l12 89h7v-5q0 -40 36 -73.5t90 -33.5q59 0 100.5 36.5t41.5 87.5q0 18 -8 33t-25.5 29.5t-32 23.5t-41.5 24q-26 14 -41 23t-36.5 25.5
t-33 32t-20.5 38t-9 47.5q0 64 49.5 100t125.5 36q18 0 52 -8q20 -5 28 -5q21 0 31 10.5t17 30.5z" />
    <glyph glyph-name="scedilla" unicode="&#x15f;" horiz-adv-x="287" 
d="M260 278l-29 -74l-3 1q-51 40 -79 40q-25 0 -43.5 -10t-18.5 -28q0 -12 14.5 -19.5t46.5 -19.5q20 -7 30.5 -11.5t28 -13.5t26.5 -17.5t16.5 -22t7.5 -29.5q0 -39 -37 -58.5t-96 -19.5q-8 0 -17 1l-15 -55q22 9 42 9q32 0 54.5 -19t22.5 -47q0 -48 -48.5 -83t-120.5 -44
l-2 14q56 8 93.5 38t37.5 70q0 24 -11 40.5t-28 16.5q-25 0 -45 -13q-8 2 -13 6l20 69q-22 4 -47 15q-22 10 -33 10l7 52h8v-2q0 -27 28 -46t68 -19q38 0 65.5 15t27.5 40q0 14 -16.5 24t-50.5 23q-18 7 -29 11.5t-26.5 13t-24 16.5t-15 20t-6.5 26q0 30 28 45.5t72 15.5
q14 0 38 -7q17 -4 25 -4q30 0 43 32z" />
    <glyph glyph-name="Scaron" unicode="&#x160;" horiz-adv-x="402" 
d="M240 598l-97 78l14 14l93 -82l93 82l14 -14l-97 -78h-20zM380 572l-24 -101l-3 1q-18 18 -50.5 36.5t-56.5 18.5q-56 0 -93 -27t-37 -76q0 -18 8 -32.5t26.5 -28.5t32.5 -23t42 -24q27 -15 42 -24t38 -26t35 -32.5t21.5 -38t9.5 -48.5q0 -63 -57.5 -107.5t-137.5 -44.5
q-38 0 -98 24q-33 13 -45 13l12 89h7v-5q0 -40 36 -73.5t90 -33.5q59 0 100.5 36.5t41.5 87.5q0 18 -8 33t-25.5 29t-32 23.5t-41.5 24.5t-41 23.5t-36 25.5t-33.5 32t-20.5 37.5t-9 47.5q0 64 49.5 100t125.5 36q19 0 52 -8q20 -5 28 -5q21 0 31 10.5t17 30.5z" />
    <glyph glyph-name="scaron" unicode="&#x161;" horiz-adv-x="297" 
d="M156 343l-97 78l14 14l93 -82l93 82l14 -14l-97 -78h-20zM64 83q-27 0 -46 -17.5t-19 -42.5q0 -35 37 -60.5t90 -25.5q46 0 78.5 24t32.5 58q0 60 -86 92q-18 7 -29 11.5t-26.5 13t-24 16.5t-15 20t-6.5 26q0 30 28 45.5t72 15.5q12 0 38 -6q19 -5 25 -5q18 0 27.5 8.5
t15.5 23.5l4 -2l-29 -74l-3 1q-51 40 -79 40q-25 0 -43.5 -10t-18.5 -28q0 -12 14.5 -19.5t46.5 -19.5q128 -46 128 -139q0 -44 -44.5 -75t-107.5 -31q-56 0 -95.5 28.5t-39.5 69.5q0 30 22 51t54 21t55 -21t23 -50q0 -12 -8.5 -20.5t-20.5 -8.5q7 14 7 31q0 24 -16.5 41.5
t-40.5 17.5z" />
    <glyph glyph-name="Tcommaaccent" unicode="&#x162;" horiz-adv-x="447" 
d="M188 -1l-15 -54q22 9 42 9q32 0 54.5 -19t22.5 -47q0 -48 -48.5 -83t-120.5 -44l-2 14q56 8 93.5 38t37.5 70q0 24 -11.5 40.5t-27.5 16.5q-26 0 -45 -13q-8 2 -13 6l19 66q8 37 26 164l32 363h-32l-118 -10l-16 -87h-7l13 122l129 -11h146l132 11l-20 -122h-7l8 86
l-114 11h-57q0 -1 -1 -2l20 -3l-66 -357q-11 -79 -11 -132q0 -14 1 -32z" />
    <glyph glyph-name="tcommaaccent" unicode="&#x163;" horiz-adv-x="251" 
d="M81 234h-67l2 14h67l24 106q6 32 73 32h14h2q-14 -22 -57 -138h96l-3 -14h-97q-22 -64 -30 -111q-7 -40 -7 -60q0 -46 32 -46q36 0 104 51l3 -3q-83 -67 -124 -67q-11 0 -20 3l-16 -56q22 9 42 9q32 0 54.5 -19t22.5 -47q0 -48 -48.5 -83t-120.5 -44l-2 14q56 8 93.5 38
t37.5 70q0 24 -11.5 40.5t-27.5 16.5q-26 0 -45 -13q-8 2 -13 6l21 74q-25 16 -25 50q0 19 7 65z" />
    <glyph glyph-name="Tcaron" unicode="&#x164;" horiz-adv-x="447" 
d="M284 598l-97 78l14 14l93 -82l93 82l14 -14l-97 -78h-20zM232 0l-58 -1q8 37 26 164l32 363h-32l-118 -10l-16 -87h-7l13 122l129 -11h146l132 11l-20 -122h-7l8 86l-114 11h-57q0 -1 -1 -2l20 -3l-66 -357q-11 -79 -11 -132q0 -14 1 -32z" />
    <glyph glyph-name="tcaron" unicode="&#x165;" horiz-adv-x="284" 
d="M299 401h-42l3 19q5 31 29 31h47l-6 -32q-7 -37 -39 -117h-11q19 78 19 99zM81 234h-67l2 14h67l24 106q6 32 73 32h14h2q-14 -22 -57 -138h96l-3 -14h-97q-22 -64 -30 -111q-7 -40 -7 -60q0 -46 32 -46q36 0 104 51l3 -3q-83 -67 -124 -67q-26 0 -42 16t-16 43
q0 19 7 65z" />
    <glyph glyph-name="Tbar" unicode="&#x166;" horiz-adv-x="447" 
d="M232 0l-58 -1q8 37 26 164l14 158h-103l3 18h101l17 187h-32l-118 -10l-16 -87h-7l13 122l129 -11h146l132 11l-20 -122h-7l8 86l-114 11h-57q0 -1 -1 -2l20 -3l-33 -182h99l-3 -18h-100l-29 -157q-11 -79 -11 -132q0 -14 1 -32z" />
    <glyph glyph-name="tbar" unicode="&#x167;" horiz-adv-x="239" 
d="M81 234h-67l2 14h67l24 106q6 32 73 32h14h2q-14 -22 -57 -138h96l-3 -14h-97q-13 -38 -20 -65h74l-3 -18h-75l-6 -28q-7 -40 -7 -60q0 -46 32 -46q36 0 104 51l3 -3q-83 -67 -124 -67q-26 0 -42 16t-16 43q0 19 7 65l5 29h-46l3 18h46z" />
    <glyph glyph-name="Utilde" unicode="&#x168;" horiz-adv-x="513" 
d="M397 674l12 -6q-34 -66 -73 -66q-19 0 -52 20.5t-47 20.5q-25 0 -60 -49l-12 8q13 18 22 28.5t23 20.5t27 10q20 0 53 -21t48 -21q31 0 59 55zM53 506q48 39 69 39q24 0 36 -17.5t12 -61.5q0 -35 -8 -89l-34 -270q-1 -9 -1 -18q0 -29 11.5 -49t29.5 -20q52 0 111.5 86.5
t80.5 195.5l28 228l-38 3v7h61q31 0 49 4l2 -2l-71 -378q-10 -70 -10 -96q0 -25 7.5 -36.5t24.5 -11.5q35 0 113 69l4 -4q-31 -27 -52 -43.5t-47.5 -31.5t-44.5 -15q-50 0 -50 93q0 32 6 75l7 51q-33 -92 -86 -155.5t-99 -63.5q-42 0 -69.5 24.5t-27.5 63.5q0 8 1 17l42 276
q15 101 15 112q0 31 -22 32q-16 0 -47 -19z" />
    <glyph glyph-name="utilde" unicode="&#x169;" horiz-adv-x="389" 
d="M315 419l12 -6q-34 -66 -73 -66q-19 0 -52 20.5t-47 20.5q-25 0 -60 -49l-12 8q13 18 22 28.5t23 20.5t27 10q20 0 53 -21t48 -21q31 0 59 55zM280 123q-9 -52 -9 -74q0 -34 22 -34q27 0 98 52l3 -3q-93 -68 -120 -68q-43 0 -43 66q0 24 5 57q-22 -57 -54 -90t-70 -33
q-28 0 -51.5 17t-23.5 45q0 12 16 71q21 72 21 91q0 20 -19 20q-14 0 -39 -14l-4 4q42 29 62 29q19 0 27.5 -11t8.5 -40q0 -27 -8 -75l-9 -53q-4 -20 -4 -33q0 -32 27 -32q47 0 83 55.5t51 140.5l6 37l-35 2v5h55q27 0 44 2l2 -1z" />
    <glyph glyph-name="Umacron" unicode="&#x16a;" horiz-adv-x="513" 
d="M184 647h209l-2 -18h-209zM53 506q48 39 69 39q24 0 36 -17.5t12 -61.5q0 -35 -8 -89l-34 -270q-1 -9 -1 -18q0 -29 11.5 -49t29.5 -20q52 0 111.5 86.5t80.5 195.5l28 228l-38 3v7h61q31 0 49 4l2 -2l-71 -378q-10 -70 -10 -96q0 -25 7.5 -36.5t24.5 -11.5q35 0 113 69
l4 -4q-31 -27 -52 -43.5t-47.5 -31.5t-44.5 -15q-50 0 -50 93q0 32 6 75l7 51q-33 -92 -86 -155.5t-99 -63.5q-42 0 -69.5 24.5t-27.5 63.5q0 8 1 17l42 276q15 101 15 112q0 31 -22 32q-16 0 -47 -19z" />
    <glyph glyph-name="umacron" unicode="&#x16b;" horiz-adv-x="389" 
d="M102 392h209l-2 -18h-209zM280 123q-9 -52 -9 -74q0 -34 22 -34q27 0 98 52l3 -3q-93 -68 -120 -68q-43 0 -43 66q0 24 5 57q-22 -57 -54 -90t-70 -33q-28 0 -51.5 17t-23.5 45q0 12 16 71q21 72 21 91q0 20 -19 20q-14 0 -39 -14l-4 4q42 29 62 29q19 0 27.5 -11
t8.5 -40q0 -27 -8 -75l-9 -53q-4 -20 -4 -33q0 -32 27 -32q47 0 83 55.5t51 140.5l6 37l-35 2v5h55q27 0 44 2l2 -1z" />
    <glyph glyph-name="Ubreve" unicode="&#x16c;" horiz-adv-x="513" 
d="M192 715l13 5q30 -83 82 -83q56 0 98 81l12 -6q-48 -93 -112 -93q-58 0 -93 96zM53 506q48 39 69 39q24 0 36 -17.5t12 -61.5q0 -35 -8 -89l-34 -270q-1 -9 -1 -18q0 -29 11.5 -49t29.5 -20q52 0 111.5 86.5t80.5 195.5l28 228l-38 3v7h61q31 0 49 4l2 -2l-71 -378
q-10 -70 -10 -96q0 -25 7.5 -36.5t24.5 -11.5q35 0 113 69l4 -4q-31 -27 -52 -43.5t-47.5 -31.5t-44.5 -15q-50 0 -50 93q0 32 6 75l7 51q-33 -92 -86 -155.5t-99 -63.5q-42 0 -69.5 24.5t-27.5 63.5q0 8 1 17l42 276q15 101 15 112q0 31 -22 32q-16 0 -47 -19z" />
    <glyph glyph-name="ubreve" unicode="&#x16d;" horiz-adv-x="389" 
d="M110 460l13 5q30 -83 82 -83q56 0 98 81l12 -6q-48 -93 -112 -93q-58 0 -93 96zM280 123q-9 -52 -9 -74q0 -34 22 -34q27 0 98 52l3 -3q-93 -68 -120 -68q-43 0 -43 66q0 24 5 57q-22 -57 -54 -90t-70 -33q-28 0 -51.5 17t-23.5 45q0 12 16 71q21 72 21 91q0 20 -19 20
q-14 0 -39 -14l-4 4q42 29 62 29q19 0 27.5 -11t8.5 -40q0 -27 -8 -75l-9 -53q-4 -20 -4 -33q0 -32 27 -32q47 0 83 55.5t51 140.5l6 37l-35 2v5h55q27 0 44 2l2 -1z" />
    <glyph glyph-name="Uring" unicode="&#x16e;" horiz-adv-x="513" 
d="M240 633q0 -18 12 -30t30 -12q23 0 39.5 17t16.5 39q0 18 -12 30t-30 12q-23 0 -39.5 -17.5t-16.5 -38.5zM298 703q24 0 39.5 -15.5t15.5 -38.5q0 -28 -22 -50t-51 -22q-24 0 -39.5 15.5t-15.5 38.5q0 28 22 50t51 22zM53 506q48 39 69 39q24 0 36 -17.5t12 -61.5
q0 -35 -8 -89l-34 -270q-1 -9 -1 -18q0 -29 11.5 -49t29.5 -20q52 0 111.5 86.5t80.5 195.5l28 228l-38 3v7h61q31 0 49 4l2 -2l-71 -378q-10 -70 -10 -96q0 -25 7.5 -36.5t24.5 -11.5q35 0 113 69l4 -4q-31 -27 -52 -43.5t-47.5 -31.5t-44.5 -15q-50 0 -50 93q0 32 6 75
l7 51q-33 -92 -86 -155.5t-99 -63.5q-42 0 -69.5 24.5t-27.5 63.5q0 8 1 17l42 276q15 101 15 112q0 31 -22 32q-16 0 -47 -19z" />
    <glyph glyph-name="uring" unicode="&#x16f;" horiz-adv-x="389" 
d="M158 378q0 -18 12 -30t30 -12q23 0 39.5 17t16.5 39q0 18 -12 30t-30 12q-23 0 -39.5 -17.5t-16.5 -38.5zM216 448q24 0 39.5 -15.5t15.5 -38.5q0 -28 -22 -50t-51 -22q-24 0 -39.5 15.5t-15.5 38.5q0 28 22 50t51 22zM280 123q-9 -52 -9 -74q0 -34 22 -34q27 0 98 52
l3 -3q-93 -68 -120 -68q-43 0 -43 66q0 24 5 57q-22 -57 -54 -90t-70 -33q-28 0 -51.5 17t-23.5 45q0 12 16 71q21 72 21 91q0 20 -19 20q-14 0 -39 -14l-4 4q42 29 62 29q19 0 27.5 -11t8.5 -40q0 -27 -8 -75l-9 -53q-4 -20 -4 -33q0 -32 27 -32q47 0 83 55.5t51 140.5
l6 37l-35 2v5h55q27 0 44 2l2 -1z" />
    <glyph glyph-name="Uhungarumlaut" unicode="&#x170;" horiz-adv-x="513" 
d="M181 583l-8 10l153 103l10 -15zM321 583l-8 10l153 103l10 -15zM53 506q48 39 69 39q24 0 36 -17.5t12 -61.5q0 -35 -8 -89l-34 -270q-1 -9 -1 -18q0 -29 11.5 -49t29.5 -20q52 0 111.5 86.5t80.5 195.5l28 228l-38 3v7h61q31 0 49 4l2 -2l-71 -378q-10 -70 -10 -96
q0 -25 7.5 -36.5t24.5 -11.5q35 0 113 69l4 -4q-31 -27 -52 -43.5t-47.5 -31.5t-44.5 -15q-50 0 -50 93q0 32 6 75l7 51q-33 -92 -86 -155.5t-99 -63.5q-42 0 -69.5 24.5t-27.5 63.5q0 8 1 17l42 276q15 101 15 112q0 31 -22 32q-16 0 -47 -19z" />
    <glyph glyph-name="uhungarumlaut" unicode="&#x171;" horiz-adv-x="389" 
d="M99 328l-8 10l153 103l10 -15zM239 328l-8 10l153 103l10 -15zM280 123q-9 -52 -9 -74q0 -34 22 -34q27 0 98 52l3 -3q-93 -68 -120 -68q-43 0 -43 66q0 24 5 57q-22 -57 -54 -90t-70 -33q-28 0 -51.5 17t-23.5 45q0 12 16 71q21 72 21 91q0 20 -19 20q-14 0 -39 -14
l-4 4q42 29 62 29q19 0 27.5 -11t8.5 -40q0 -27 -8 -75l-9 -53q-4 -20 -4 -33q0 -32 27 -32q47 0 83 55.5t51 140.5l6 37l-35 2v5h55q27 0 44 2l2 -1z" />
    <glyph glyph-name="Uogonek" unicode="&#x172;" horiz-adv-x="513" 
d="M470 -111q-57 -70 -86 -70q-28 0 -45 17.5t-17 46.5q0 51 70 112h-6q-50 0 -50 93q0 32 6 75l7 51q-33 -92 -86 -155.5t-99 -63.5q-42 0 -69.5 24.5t-27.5 63.5q0 8 1 17l42 276q15 101 15 112q0 31 -22 32q-16 0 -47 -19l-3 5q48 39 69 39q24 0 36 -17.5t12 -61.5
q0 -35 -8 -89l-34 -270q-1 -9 -1 -18q0 -29 11.5 -49t29.5 -20q52 0 111.5 86.5t80.5 195.5l28 228l-38 3v7h61q31 0 49 4l2 -2l-71 -378q-10 -70 -10 -96q0 -25 7.5 -36.5t24.5 -11.5q35 0 113 69l4 -4q-45 -40 -72 -58q-24 -17 -43 -27q-28 -22 -46 -55t-18 -58
q0 -19 11 -31t29 -12q29 0 74 49z" />
    <glyph glyph-name="uogonek" unicode="&#x173;" horiz-adv-x="389" 
d="M356 -111q-57 -70 -87 -70q-28 0 -45 18t-17 46q0 52 71 113h-4q-43 0 -43 66q0 24 5 57q-22 -57 -54 -90t-70 -33q-28 0 -51.5 17t-23.5 45q0 12 16 71q21 72 21 91q0 20 -19 20q-14 0 -39 -14l-4 4q42 29 62 29q19 0 27.5 -11t8.5 -40q0 -27 -8 -75l-9 -53
q-4 -20 -4 -33q0 -32 27 -32q47 0 83 55.5t51 140.5l6 37l-35 2v5h55q27 0 44 2l2 -1l-42 -133q-9 -53 -9 -74q0 -17 5 -25.5t17 -8.5q27 0 98 52l3 -3q-91 -64 -93 -66q-29 -22 -47 -53.5t-18 -57.5q0 -19 11 -31t29 -12q29 0 74 50z" />
    <glyph glyph-name="Wcircumflex" unicode="&#x174;" horiz-adv-x="721" 
d="M409 692h20l97 -78l-14 -14l-93 82l-93 -82l-14 14zM759 578l-144 -315q-39 -82 -71.5 -164t-33.5 -99l-65 -5q-26 51 -60 371l-45 -103q-98 -233 -100 -263l-65 -5q-19 38 -50 275q-8 62 -12.5 94t-11.5 73.5t-13.5 59.5t-12.5 18q-16 0 -49 -19l-3 5q58 44 78 44
q10 0 19 -7.5t16.5 -24t13 -33t11 -45.5t9.5 -50.5t8 -58t6.5 -57.5t6.5 -60q17 -165 30 -203q19 43 85 262l79 262l-130 3l1 7h144q23 0 44.5 10.5t32.5 28.5l2 -1l-64 -146q8 -97 33.5 -237t42.5 -189q22 49 90 262l84 262l-50 3l1 7h64q23 0 44.5 10.5t32.5 28.5z" />
    <glyph glyph-name="wcircumflex" unicode="&#x175;" horiz-adv-x="550" 
d="M291 437h20l97 -78l-14 -14l-93 82l-93 -82l-14 14zM553 284l-107 -162q-70 -104 -71 -122q-40 0 -60 -4q-23 37 -48 164l-28 -38q-69 -95 -71 -122q-24 0 -60 -4q-18 30 -38 142q-5 26 -7.5 40t-6.5 31t-8.5 24.5t-9.5 7.5q-16 0 -44 -15l-2 4q47 30 61 30q10 0 18 -6
t14 -19t11 -25t9.5 -34.5t7 -35.5t6.5 -39q13 -74 22 -98q52 72 69 123l39 116l-83 2l-1 5h106q19 0 40 11t31 25l4 -1l-55 -84q6 -42 24.5 -105t32.5 -92q52 72 69 123l39 116l-43 2l-1 5h66q20 0 40.5 11t30.5 25z" />
    <glyph glyph-name="Ycircumflex" unicode="&#x176;" horiz-adv-x="468" 
d="M289 692h20l97 -78l-14 -14l-93 82l-93 -82l-14 14zM266 0l-65 -1q13 40 34 189q-21 36 -71 163q-16 40 -24 61t-20 48.5t-20.5 39.5t-14.5 12q-16 0 -46 -19l-4 5q20 16 48.5 31.5t40.5 15.5q10 0 20.5 -14t23 -46t21 -56.5t23.5 -70.5q37 -116 56 -154h2q51 74 89 164
l70 162l-70 3l1 7h66q22 0 45.5 11t34.5 28l3 -1l-127 -215q-51 -88 -71 -124.5t-23 -54.5q-19 -132 -22 -184z" />
    <glyph glyph-name="ycircumflex" unicode="&#x177;" horiz-adv-x="369" 
d="M189 437h20l97 -78l-14 -14l-93 82l-93 -82l-14 14zM286 109q-6 -35 -14 -135q-9 -113 -17 -158q-18 -113 -113.5 -184.5t-222.5 -71.5q-109 0 -186 58t-77 140q0 67 60.5 114.5t145.5 47.5l-6 -36q-77 0 -132 -36t-55 -88q0 -76 74 -130t179 -54q107 0 187 67.5
t97 172.5q6 34 15 124q13 125 23 172q-26 -53 -62 -84.5t-73 -31.5q-26 0 -50.5 17.5t-24.5 43.5q0 35 23 94q19 51 19 68q0 9 -5.5 15t-12.5 6q-12 0 -42 -14l-3 4q42 29 57 29q17 0 29.5 -9.5t12.5 -23.5q0 -18 -11 -69q-14 -66 -14 -94q0 -46 25 -46q45 0 86 47t61 119
q6 31 11 59l-34 2v5h54q26 0 52 30l2 -1z" />
    <glyph glyph-name="Ydieresis" unicode="&#x178;" horiz-adv-x="468" 
d="M331 611l3 22q5 35 28 35h40l-6 -37q-1 -9 -8.5 -14.5t-18.5 -5.5h-38zM184 611l3 22q5 35 28 35h40l-6 -37q-1 -9 -8.5 -14.5t-18.5 -5.5h-38zM266 0l-65 -1q13 40 34 189q-21 36 -71 163q-16 40 -24 61t-20 48.5t-20.5 39.5t-14.5 12q-16 0 -46 -19l-4 5
q20 16 48.5 31.5t40.5 15.5q10 0 20.5 -14t23 -46t21 -56.5t23.5 -70.5q37 -116 56 -154h2q51 74 89 164l70 162l-70 3l1 7h66q22 0 45.5 11t34.5 28l3 -1l-127 -215q-51 -88 -71 -124.5t-23 -54.5q-19 -132 -22 -184z" />
    <glyph glyph-name="Zacute" unicode="&#x179;" horiz-adv-x="397" 
d="M200 593l72 101q5 7 14 7q7 0 12 -4l37 -34l-2 -2q-73 -9 -124 -76zM393 89l3 -4q-27 -28 -44 -44t-39 -31t-36 -15t-51 6q-66 11 -109 11q-50 0 -80 -17l-23 9q12 12 80 112.5t97 151.5l132 228q-75 0 -184 -7q-57 -4 -78 -4l19 60q142 -5 269 -5q19 0 32.5 8.5
t32.5 32.5l4 -3l-205 -315q-62 -96 -129 -212q23 7 65 7q34 0 94 -5q35 -3 46 -3q64 0 104 39z" />
    <glyph glyph-name="zacute" unicode="&#x17a;" horiz-adv-x="297" 
d="M133 338l72 101q5 7 14 7q7 0 12 -4l37 -34l-2 -2q-73 -9 -124 -76zM-1 3q82 68 127 123l70 87q-125 0 -170 1l18 45q25 0 81 -6q63 -7 94 -7q29 0 66 40l4 -2l-145 -162q-49 -56 -75 -84q28 4 48 4q9 0 30 -2q29 -3 44 -3q56 0 93 30l3 -3q-78 -68 -107 -68q-14 0 -42 5
q-31 6 -51 6q-45 0 -67 -11z" />
    <glyph glyph-name="Zdotaccent" unicode="&#x17b;" horiz-adv-x="397" 
d="M199 612l3 24q2 18 10 25.5t22 7.5h44l-5 -35q-1 -10 -10 -16t-20 -6h-44zM393 89l3 -4q-27 -28 -44 -44t-39 -31t-36 -15t-51 6q-66 11 -109 11q-50 0 -80 -17l-23 9q12 12 80 112.5t97 151.5l132 228q-75 0 -184 -7q-57 -4 -78 -4l19 60q142 -5 269 -5q19 0 32.5 8.5
t32.5 32.5l4 -3l-205 -315q-62 -96 -129 -212q23 7 65 7q34 0 94 -5q35 -3 46 -3q64 0 104 39z" />
    <glyph glyph-name="zdotaccent" unicode="&#x17c;" horiz-adv-x="297" 
d="M132 357l3 24q2 18 10 25.5t22 7.5h44l-5 -35q-1 -10 -10 -16t-20 -6h-44zM-1 3q82 68 127 123l70 87q-125 0 -170 1l18 45q25 0 81 -6q63 -7 94 -7q29 0 66 40l4 -2l-145 -162q-49 -56 -75 -84q28 4 48 4q9 0 30 -2q29 -3 44 -3q56 0 93 30l3 -3q-78 -68 -107 -68
q-14 0 -42 5q-31 6 -51 6q-45 0 -67 -11z" />
    <glyph glyph-name="Zcaron" unicode="&#x17d;" horiz-adv-x="397" 
d="M221 598l-97 78l14 14l93 -82l93 82l14 -14l-97 -78h-20zM393 89l3 -4q-27 -28 -44 -44t-39 -31t-36 -15t-51 6q-66 11 -109 11q-50 0 -80 -17l-23 9q12 12 80 112.5t97 151.5l132 228q-75 0 -184 -7q-57 -4 -78 -4l19 60q142 -5 269 -5q19 0 32.5 8.5t32.5 32.5l4 -3
l-205 -315q-62 -96 -129 -212q23 7 65 7q34 0 94 -5q35 -3 46 -3q64 0 104 39z" />
    <glyph glyph-name="zcaron" unicode="&#x17e;" horiz-adv-x="297" 
d="M154 343l-97 78l14 14l93 -82l93 82l14 -14l-97 -78h-20zM-1 3q82 68 127 123l70 87q-125 0 -170 1l18 45q25 0 81 -6q63 -7 94 -7q29 0 66 40l4 -2l-145 -162q-49 -56 -75 -84q28 4 48 4q9 0 30 -2q29 -3 44 -3q56 0 93 30l3 -3q-78 -68 -107 -68q-14 0 -42 5
q-31 6 -51 6q-45 0 -67 -11z" />
    <glyph glyph-name="uni01CD" unicode="&#x1cd;" horiz-adv-x="501" 
d="M272 598l-97 78l14 14l93 -82l93 82l14 -14l-97 -78h-20zM58 0l-50 -4q21 36 78 167l162 366l16 -4l-144 -324h192l-31 328l-76 4v7l152 1l7 -340h35q18 0 30 15t26 51l6 -1q-16 -52 -29 -79h-68l1 -23l1.5 -45t2 -35t4 -29t7.5 -18.5t12.5 -13t17.5 -3.5q33 0 111 69
l4 -4q-30 -28 -49.5 -44.5t-45 -31t-44.5 -14.5q-30 0 -46 39.5t-25 128.5l-2 24h-199l-11 -23q-43 -97 -45 -164z" />
    <glyph glyph-name="uni01CE" unicode="&#x1ce;" horiz-adv-x="377" 
d="M187 343l-97 78l14 14l93 -82l93 82l14 -14l-97 -78h-20zM224 122l13 113q-9 0 -28 2q-25 3 -39 3q-38 0 -65 -40.5t-27 -104.5q0 -86 57 -86q30 0 56 34t33 79zM276 123q-2 -19 -2 -48q0 -56 25 -56q33 0 90 48l4 -3q-74 -64 -103 -64q-39 0 -43 94q-14 -42 -49 -70
t-74 -28q-42 0 -70.5 32.5t-28.5 79.5q0 65 42 106t105 41q14 0 44 -6q23 -4 31 -4q33 0 44.5 7.5t18.5 26.5l3 -1z" />
    <glyph glyph-name="uni01CF" unicode="&#x1cf;" horiz-adv-x="206" 
d="M149 598l-97 78l14 14l93 -82l93 82l14 -14l-97 -78h-20zM121 0l-60 -1q13 41 30 164l32 366l-68 4v7l153 1l-3 -13l-5 -3l-60 -361q-16 -108 -19 -164z" />
    <glyph glyph-name="uni01D0" unicode="&#x1d0;" horiz-adv-x="219" 
d="M124 343l-97 78l14 14l93 -82l93 82l14 -14l-97 -78h-20zM62 122l8 102l-53 6v5h67q35 1 68 44l2 -1l-49 -155q-9 -54 -9 -72t5.5 -23.5t22.5 -5.5q39 0 101 45l3 -3q-93 -68 -133 -68q-42 0 -42 48q0 28 9 78z" />
    <glyph glyph-name="uni01D1" unicode="&#x1d1;" horiz-adv-x="473" 
d="M285 598l-97 78l14 14l93 -82l93 82l14 -14l-97 -78h-20zM107 216q0 -84 36 -143.5t87 -59.5q74 0 119 86t45 226q0 84 -35.5 143t-85.5 59q-74 0 -120 -85.5t-46 -225.5zM44 227q0 142 67 230t174 88q72 0 122.5 -68t50.5 -164q0 -142 -67 -230t-173 -88q-72 0 -123 68
t-51 164z" />
    <glyph glyph-name="uni01D2" unicode="&#x1d2;" horiz-adv-x="346" 
d="M195 343l-97 78l14 14l93 -82l93 82l14 -14l-97 -78h-20zM85 180q-10 -24 -10 -75q0 -42 25 -68.5t60 -26.5q39 0 68.5 41.5t29.5 98.5q0 43 -22 71.5t-54 28.5q-46 0 -46 -63q0 -8 -17 -8v14q0 33 20.5 52t53.5 19q52 0 86 -31.5t34 -78.5q0 -65 -49 -111.5t-115 -46.5
q-53 0 -89 29.5t-36 75.5q0 44 36 98q6 0 15.5 -6.5t9.5 -12.5z" />
    <glyph glyph-name="uni01D3" unicode="&#x1d3;" horiz-adv-x="513" 
d="M274 598l-97 78l14 14l93 -82l93 82l14 -14l-97 -78h-20zM53 506q48 39 69 39q24 0 36 -17.5t12 -61.5q0 -35 -8 -89l-34 -270q-1 -9 -1 -18q0 -29 11.5 -49t29.5 -20q52 0 111.5 86.5t80.5 195.5l28 228l-38 3v7h61q31 0 49 4l2 -2l-71 -378q-10 -70 -10 -96
q0 -25 7.5 -36.5t24.5 -11.5q35 0 113 69l4 -4q-31 -27 -52 -43.5t-47.5 -31.5t-44.5 -15q-50 0 -50 93q0 32 6 75l7 51q-33 -92 -86 -155.5t-99 -63.5q-42 0 -69.5 24.5t-27.5 63.5q0 8 1 17l42 276q15 101 15 112q0 31 -22 32q-16 0 -47 -19z" />
    <glyph glyph-name="uni01D4" unicode="&#x1d4;" horiz-adv-x="389" 
d="M192 343l-97 78l14 14l93 -82l93 82l14 -14l-97 -78h-20zM280 123q-9 -52 -9 -74q0 -34 22 -34q27 0 98 52l3 -3q-93 -68 -120 -68q-43 0 -43 66q0 24 5 57q-22 -57 -54 -90t-70 -33q-28 0 -51.5 17t-23.5 45q0 12 16 71q21 72 21 91q0 20 -19 20q-14 0 -39 -14l-4 4
q42 29 62 29q19 0 27.5 -11t8.5 -40q0 -27 -8 -75l-9 -53q-4 -20 -4 -33q0 -32 27 -32q47 0 83 55.5t51 140.5l6 37l-35 2v5h55q27 0 44 2l2 -1z" />
    <glyph glyph-name="uni01E2" unicode="&#x1e2;" horiz-adv-x="695" 
d="M320 647h209l-2 -18h-209zM280 -3l2 20q15 -3 46 -3q8 35 25 159q1 9 2.5 27t2.5 27h-226l-29 -63q-43 -97 -45 -164l-50 -4q21 36 78 167l162 366l16 -4l-126 -284h221l24 284l-185 8l1 7h291l191 9l-20 -120h-7l8 84l-175 13h-47v-2l20 -3l-34 -200h14l100 5l17 75h7
q-5 -53 -10 -89q-4 -34 -16 -97h-7l5 84l-78 8h-34l-23 -133q-14 -95 -18 -160h62l179 13l15 84h7l-15 -125l-13 1l-2 4l-172 9q-109 0 -164 -3z" />
    <glyph glyph-name="uni01E3" unicode="&#x1e3;" horiz-adv-x="506" 
d="M177 402h209l-2 -18h-209zM224 122l13 113q-9 0 -28 2q-25 3 -39 3q-38 0 -65 -40.5t-27 -104.5q0 -86 57 -86q30 0 56 34t33 79zM276 94q2 -34 26.5 -57t58.5 -23q61 0 125 53l3 -3q-78 -68 -137 -68q-42 0 -73.5 20t-43.5 52q-18 -32 -48.5 -52t-62.5 -20
q-42 0 -70.5 32.5t-28.5 79.5q0 65 42 106t105 41q14 0 41 -6q18 -4 24 -4q14 0 24 15t14 38h3q-4 -46 -6 -83q42 44 104 44q41 0 71.5 -19t30.5 -45q0 -42 -59.5 -70.5t-142.5 -30.5zM275 100q66 1 106.5 26.5t40.5 64.5q0 22 -17 38t-40 16q-42 0 -66 -38t-24 -102v-5z
" />
    <glyph glyph-name="Gcaron" unicode="&#x1e6;" horiz-adv-x="473" 
d="M273 598l-97 78l14 14l93 -82l93 82l14 -14l-97 -78h-20zM393 84l-8 -70v-6q0 -9 2 -22l43 15l4 -13l-44 -16q4 -18 12 -45q24 -83 24 -119q0 -84 -79 -143t-191 -59q-79 0 -134.5 33.5t-55.5 80.5q0 35 39.5 74t104 73t122.5 59t119 47q-1 15 -1 25q0 9 1 16l9 71
q-2 0 -4 1q-19 -37 -53.5 -64t-70.5 -27q-75 0 -129.5 68.5t-54.5 167.5q0 84 33 157t87.5 115t116.5 42q19 0 51 -9q21 -6 29 -6q35 0 51 45l4 -1l-32 -106l-2 1q-23 19 -56.5 38.5t-57.5 19.5q-44 0 -82.5 -44t-60 -113.5t-21.5 -145.5q0 -90 36.5 -148t97.5 -58
q41 0 75 34.5t39 75.5l2 130h-88v14h81q24 0 54.5 12t38.5 28l2 -1zM353 -42q-53 -20 -105.5 -44.5t-109 -57t-92 -68.5t-35.5 -68q0 -41 43 -70.5t104 -29.5q88 0 150 57t62 138q0 32 -10 97q-4 23 -7 46z" />
    <glyph glyph-name="gcaron" unicode="&#x1e7;" horiz-adv-x="329" 
d="M202 343l-97 78l14 14l93 -82l93 82l14 -14l-97 -78h-20zM228 122l-1 123h-73q-28 0 -52.5 -44t-24.5 -96q0 -41 17 -68t44 -27q30 0 56.5 33.5t33.5 78.5zM218 -60q-39 -9 -61.5 -15t-57.5 -17t-55.5 -21.5t-42 -25t-31.5 -33t-10 -39.5q0 -35 36.5 -63t88.5 -28
q58 0 100 40t42 101q0 25 -7 82q-1 7 -2 19zM260 124l-25 -114q-2 -4 -2 -11q0 -14 9 -41l49 12l2 -11l-48 -12q5 -15 8 -25q23 -67 23 -94q0 -60 -58.5 -100.5t-133.5 -40.5q-74 0 -126 32.5t-52 71.5q0 15 7 29.5t22.5 26.5t31.5 22.5t42.5 21t46.5 17.5t53.5 16t52.5 14
t54 14q-3 28 -3 43q0 9 1 15l8 58q-33 -72 -95 -72q-45 0 -74.5 31.5t-29.5 79.5q0 62 43.5 107t98.5 45q14 0 48 -2q27 -1 35 -1q44 0 58 23l2 -1z" />
    <glyph glyph-name="uni01E8" unicode="&#x1e8;" horiz-adv-x="474" 
d="M252 598l-97 78l14 14l93 -82l93 82l14 -14l-97 -78h-20zM122 0l-61 -1q13 41 31 164l32 366l-69 4v7l148 2q-1 -7 -3 -17l-40 -239h21q48 53 142 166q67 81 77 89q16 2 39 2l58 1l-1 -28q-12 1 -22 1q-34 0 -72.5 -26.5t-87.5 -76.5q-61 -62 -117 -128q81 -1 115.5 -19
t44.5 -77q88 -501 390 -501q84 0 169 61l4 -5q-92 -75 -198 -75q-88 0 -160.5 37t-125 107t-89 165.5t-58.5 217.5q-8 47 -35.5 60.5t-95.5 14.5l-18 -108q-15 -105 -18 -164z" />
    <glyph glyph-name="uni01E9" unicode="&#x1e9;" horiz-adv-x="327" 
d="M241 552l-97 78l14 14l93 -82l93 82l14 -14l-97 -78h-20zM71 -3l-53 -1q11 27 28 126l44 376l-64 2v5h72q35 0 64 33l2 -1l-76 -413q-1 -5 -1 -8l149 139q10 1 37 2l52 1l-2 -35h-22q-44 0 -72.5 -10t-59.5 -35l-20 -18h50q34 -93 81.5 -170.5t107 -136t132.5 -91.5
t152 -33q77 0 148 50l3 -3q-82 -66 -175 -66q-82 0 -158 33t-138 92t-111.5 138t-84.5 173h-21q-35 -34 -42 -39l-9 -7q-11 -67 -13 -103z" />
    <glyph glyph-name="uni01EA" unicode="&#x1ea;" horiz-adv-x="473" 
d="M316 -111q-57 -70 -86 -70q-28 0 -45 18t-17 46q0 52 71 113q-9 -1 -21 -1q-72 0 -123 68t-51 164q0 142 67 230t174 88q72 0 122.5 -68t50.5 -164q0 -127 -54.5 -212t-143.5 -102q-27 -22 -45 -54.5t-18 -57.5q0 -19 11 -31t29 -12q29 0 74 50zM107 216q0 -84 36 -143.5
t87 -59.5q74 0 119 86t45 226q0 84 -35.5 143t-85.5 59q-74 0 -120 -85.5t-46 -225.5z" />
    <glyph glyph-name="uni01EB" unicode="&#x1eb;" horiz-adv-x="346" 
d="M238 -111q-57 -70 -87 -70q-28 0 -45 18t-17 46q0 52 72 113h-12q-53 0 -89 29.5t-36 75.5q0 44 36 98q6 0 15.5 -6.5t9.5 -12.5q-10 -24 -10 -75q0 -42 25 -68.5t60 -26.5q39 0 68.5 41.5t29.5 98.5q0 43 -22 71.5t-54 28.5q-46 0 -46 -63q0 -8 -17 -8v14q0 33 20.5 52
t53.5 19q52 0 86 -31.5t34 -78.5q0 -56 -38 -99.5t-94 -55.5q-28 -22 -45.5 -54.5t-17.5 -57.5q0 -19 11 -31t29 -12q29 0 75 50z" />
    <glyph glyph-name="uni01EC" unicode="&#x1ec;" horiz-adv-x="473" 
d="M195 647h209l-2 -18h-209zM316 -111q-57 -70 -86 -70q-28 0 -45 18t-17 46q0 52 71 113q-9 -1 -21 -1q-72 0 -123 68t-51 164q0 142 67 230t174 88q72 0 122.5 -68t50.5 -164q0 -127 -54.5 -212t-143.5 -102q-27 -22 -45 -54.5t-18 -57.5q0 -19 11 -31t29 -12q29 0 74 50
zM107 216q0 -84 36 -143.5t87 -59.5q74 0 119 86t45 226q0 84 -35.5 143t-85.5 59q-74 0 -120 -85.5t-46 -225.5z" />
    <glyph glyph-name="uni01ED" unicode="&#x1ed;" horiz-adv-x="346" 
d="M105 392h209l-2 -18h-209zM238 -111q-57 -70 -87 -70q-28 0 -45 18t-17 46q0 52 72 113h-12q-53 0 -89 29.5t-36 75.5q0 44 36 98q6 0 15.5 -6.5t9.5 -12.5q-10 -24 -10 -75q0 -42 25 -68.5t60 -26.5q39 0 68.5 41.5t29.5 98.5q0 43 -22 71.5t-54 28.5q-46 0 -46 -63
q0 -8 -17 -8v14q0 33 20.5 52t53.5 19q52 0 86 -31.5t34 -78.5q0 -56 -38 -99.5t-94 -55.5q-28 -22 -45.5 -54.5t-17.5 -57.5q0 -19 11 -31t29 -12q29 0 75 50z" />
    <glyph glyph-name="uni01F0" unicode="&#x1f0;" horiz-adv-x="190" 
d="M129 343l-97 78l14 14l93 -82l93 82l14 -14l-97 -78h-20zM-246 -384q-97 0 -156 55.5t-59 126.5q0 48 30 84t89 48l2 -7q-54 -12 -82 -44.5t-28 -74.5q0 -64 56.5 -114.5t149.5 -50.5q108 0 189 72.5t99 183.5l19 115l23 231l-64 3v5h82q27 0 53 30l2 -1l-70 -379
q-23 -124 -117 -203.5t-218 -79.5z" />
    <glyph glyph-name="uni01F1" unicode="&#x1f1;" horiz-adv-x="937" 
d="M933 89l3 -4q-27 -28 -44 -44t-39 -31t-36 -15t-51 6q-66 11 -109 11q-50 0 -80 -17l-23 9q12 12 80 112.5t97 151.5l132 228q-75 0 -184 -7q-57 -4 -78 -4l19 60q142 -5 269 -5q19 0 32.5 8.5t32.5 32.5l4 -3l-205 -315q-62 -96 -129 -212q23 7 65 7q34 0 94 -5
q35 -3 46 -3q64 0 104 39zM88 13q56 1 152 1q55 0 107 40t84.5 109t32.5 147q0 93 -42.5 155t-108.5 62q-35 0 -107 2l-1 -3l14 -3l-58 -349q-9 -74 -9 -111q0 -14 1 -28l-61 -1q14 39 25 139l25 357l-68 3l-1 7l142 1q23 0 58 2q33 2 53 2q86 0 142 -67.5t56 -167.5
q0 -63 -24.5 -121.5t-64.5 -99t-92 -65t-104 -24.5h-155z" />
    <glyph glyph-name="uni01F2" unicode="&#x1f2;" horiz-adv-x="837" 
d="M539 3q82 68 127 123l70 87q-125 0 -170 1l18 45q25 0 81 -6q63 -7 94 -7q29 0 66 40l4 -2l-145 -162q-49 -56 -75 -84q28 4 48 4q9 0 30 -2q29 -3 44 -3q56 0 93 30l3 -3q-78 -68 -107 -68q-14 0 -42 5q-31 6 -51 6q-45 0 -67 -11zM88 13q56 1 152 1q55 0 107 40
t84.5 109t32.5 147q0 93 -42.5 155t-108.5 62q-35 0 -107 2l-1 -3l14 -3l-58 -349q-9 -74 -9 -111q0 -14 1 -28l-61 -1q14 39 25 139l25 357l-68 3l-1 7l142 1q23 0 58 2q33 2 53 2q86 0 142 -67.5t56 -167.5q0 -63 -24.5 -121.5t-64.5 -99t-92 -65t-104 -24.5h-155z" />
    <glyph glyph-name="uni01F3" unicode="&#x1f3;" horiz-adv-x="674" 
d="M376 3q82 68 127 123l70 87q-125 0 -170 1l18 45q25 0 81 -6q63 -7 94 -7q29 0 66 40l4 -2l-145 -162q-49 -56 -75 -84q28 4 48 4q9 0 30 -2q29 -3 44 -3q56 0 93 30l3 -3q-78 -68 -107 -68q-14 0 -42 5q-31 6 -51 6q-45 0 -67 -11zM237 122l10 92q-45 31 -89 31
q-32 0 -54 -42.5t-22 -103.5q0 -40 15 -64.5t45 -24.5q33 0 58.5 26t33.5 65zM279 123q-9 -52 -9 -78q0 -30 18 -30q31 0 91 45l3 -3q-77 -61 -106 -61q-43 0 -45 66q-16 -30 -42.5 -48t-57.5 -18q-43 0 -74.5 33.5t-31.5 79.5q0 62 40 106t96 44q42 0 87 -32l28 271l-62 2
v5h72q36 0 63 33l2 -1z" />
    <glyph glyph-name="uni01F4" unicode="&#x1f4;" horiz-adv-x="473" 
d="M260 593l72 101q5 7 14 7q7 0 12 -4l37 -34l-2 -2q-73 -9 -124 -76zM393 84l-8 -70v-6q0 -9 2 -22l43 15l4 -13l-44 -16q4 -18 12 -45q24 -83 24 -119q0 -84 -79 -143t-191 -59q-79 0 -134.5 33.5t-55.5 80.5q0 35 39.5 74t104 73t122.5 59t119 47q-1 15 -1 25q0 9 1 16
l9 71q-2 0 -4 1q-19 -37 -53.5 -64t-70.5 -27q-75 0 -129.5 68.5t-54.5 167.5q0 84 33 157t87.5 115t116.5 42q19 0 51 -9q21 -6 29 -6q35 0 51 45l4 -1l-32 -106l-2 1q-23 19 -56.5 38.5t-57.5 19.5q-44 0 -82.5 -44t-60 -113.5t-21.5 -145.5q0 -90 36.5 -148t97.5 -58
q41 0 75 34.5t39 75.5l2 130h-88v14h81q24 0 54.5 12t38.5 28l2 -1zM353 -42q-53 -20 -105.5 -44.5t-109 -57t-92 -68.5t-35.5 -68q0 -41 43 -70.5t104 -29.5q88 0 150 57t62 138q0 32 -10 97q-4 23 -7 46z" />
    <glyph glyph-name="uni01F5" unicode="&#x1f5;" horiz-adv-x="329" 
d="M181 338l72 101q5 7 14 7q7 0 12 -4l37 -34l-2 -2q-73 -9 -124 -76zM228 122l-1 123h-73q-28 0 -52.5 -44t-24.5 -96q0 -41 17 -68t44 -27q30 0 56.5 33.5t33.5 78.5zM218 -60q-39 -9 -61.5 -15t-57.5 -17t-55.5 -21.5t-42 -25t-31.5 -33t-10 -39.5q0 -35 36.5 -63
t88.5 -28q58 0 100 40t42 101q0 25 -7 82q-1 7 -2 19zM260 124l-25 -114q-2 -4 -2 -11q0 -14 9 -41l49 12l2 -11l-48 -12q5 -15 8 -25q23 -67 23 -94q0 -60 -58.5 -100.5t-133.5 -40.5q-74 0 -126 32.5t-52 71.5q0 15 7 29.5t22.5 26.5t31.5 22.5t42.5 21t46.5 17.5t53.5 16
t52.5 14t54 14q-3 28 -3 43q0 9 1 15l8 58q-33 -72 -95 -72q-45 0 -74.5 31.5t-29.5 79.5q0 62 43.5 107t98.5 45q14 0 48 -2q27 -1 35 -1q44 0 58 23l2 -1z" />
    <glyph glyph-name="uni01F8" unicode="&#x1f8;" horiz-adv-x="483" 
d="M318 590l-11 -7q-29 37 -56.5 56.5t-60.5 24.5l-2 3l40 29q6 4 12 4q9 0 14 -7zM111 0l-51 -4q10 33 43 267l21 266l-69 4v7h153q0 -37 8 -57l179 -456q11 81 24 236l9 266l-61 4v7l112 1l-41 -277q-19 -128 -33 -264l-58 -8l-181 488q-5 14 -5 48h-12l-22 -264
q-15 -138 -16 -264z" />
    <glyph glyph-name="uni01F9" unicode="&#x1f9;" horiz-adv-x="375" 
d="M246 335l-11 -7q-29 37 -56.5 56.5t-60.5 24.5l-2 3l40 29q6 4 12 4q9 0 14 -7zM87 0l-54 -4q9 23 27 126v109l-49 2v5h50q27 0 44 34l2 -1l-4 -145q23 63 58 100.5t75 37.5q34 0 54.5 -19t20.5 -50q0 -21 -17 -72q-23 -70 -23 -92q0 -16 14 -16q30 0 101 52l2 -3
q-88 -68 -116 -68q-20 0 -28.5 11.5t-8.5 36.5q0 26 10 78l10 50q2 11 2 23q0 20 -6.5 34.5t-18.5 14.5q-46 0 -84 -55.5t-55 -137.5q-6 -44 -6 -51z" />
    <glyph glyph-name="AEacute" unicode="&#x1fc;" horiz-adv-x="695" 
d="M398 593l72 101q5 7 14 7q7 0 12 -4l37 -34l-2 -2q-73 -9 -124 -76zM280 -3l2 20q15 -3 46 -3q8 35 25 159q1 9 2.5 27t2.5 27h-226l-29 -63q-43 -97 -45 -164l-50 -4q21 36 78 167l162 366l16 -4l-126 -284h221l24 284l-185 8l1 7h291l191 9l-20 -120h-7l8 84l-175 13
h-47v-2l20 -3l-34 -200h14l100 5l17 75h7q-5 -53 -10 -89q-4 -34 -16 -97h-7l5 84l-78 8h-34l-23 -133q-14 -95 -18 -160h62l179 13l15 84h7l-15 -125l-13 1l-2 4l-172 9q-109 0 -164 -3z" />
    <glyph glyph-name="aeacute" unicode="&#x1fd;" horiz-adv-x="506" 
d="M246 348l72 101q5 7 14 7q7 0 12 -4l37 -34l-2 -2q-73 -9 -124 -76zM224 122l13 113q-9 0 -28 2q-25 3 -39 3q-38 0 -65 -40.5t-27 -104.5q0 -86 57 -86q30 0 56 34t33 79zM276 94q2 -34 26.5 -57t58.5 -23q61 0 125 53l3 -3q-78 -68 -137 -68q-42 0 -73.5 20t-43.5 52
q-18 -32 -48.5 -52t-62.5 -20q-42 0 -70.5 32.5t-28.5 79.5q0 65 42 106t105 41q14 0 41 -6q18 -4 24 -4q14 0 24 15t14 38h3q-4 -46 -6 -83q42 44 104 44q41 0 71.5 -19t30.5 -45q0 -42 -59.5 -70.5t-142.5 -30.5zM275 100q66 1 106.5 26.5t40.5 64.5q0 22 -17 38t-40 16
q-42 0 -66 -38t-24 -102v-5z" />
    <glyph glyph-name="Oslashacute" unicode="&#x1fe;" horiz-adv-x="473" 
d="M264 593l72 101q5 7 14 7q7 0 12 -4l37 -34l-2 -2q-73 -9 -124 -76zM57 -34l-12 8l55 83q-56 69 -56 170q0 142 67 230t174 88q60 0 107 -49l52 78l12 -8l-54 -82q56 -69 56 -171q0 -142 -67 -230t-173 -88q-60 0 -108 50zM136 85q17 -34 41.5 -53t52.5 -19q74 0 119 86
t45 226q0 63 -21 115zM129 101l236 355q-36 71 -92 71q-74 0 -120 -85.5t-46 -225.5q0 -63 22 -115z" />
    <glyph glyph-name="oslashacute" unicode="&#x1ff;" horiz-adv-x="346" 
d="M174 338l72 101q5 7 14 7q7 0 12 -4l37 -34l-2 -2q-73 -9 -124 -76zM85 180q-10 -24 -10 -75q0 -34 17 -59l144 176q-22 28 -54 28q-46 0 -46 -63q0 -8 -17 -8v14q0 33 20.5 52t53.5 19q36 0 64 -16l44 54l12 -10l-43 -52q43 -32 43 -86q0 -65 -49 -111.5t-115 -46.5
q-36 0 -66 15l-46 -57l-12 10l45 54q-46 30 -46 83q0 44 36 98q6 0 15.5 -6.5t9.5 -12.5zM102 34q24 -24 58 -24q39 0 68.5 41.5t29.5 98.5q0 33 -14 58z" />
    <glyph glyph-name="uni0200" unicode="&#x200;" horiz-adv-x="501" 
d="M381 583l-125 98l10 15l123 -103zM246 583l-125 98l10 15l123 -103zM58 0l-50 -4q21 36 78 167l162 366l16 -4l-144 -324h192l-31 328l-76 4v7l152 1l7 -340h35q18 0 30 15t26 51l6 -1q-16 -52 -29 -79h-68l1 -23l1.5 -45t2 -35t4 -29t7.5 -18.5t12.5 -13t17.5 -3.5
q33 0 111 69l4 -4q-30 -28 -49.5 -44.5t-45 -31t-44.5 -14.5q-30 0 -46 39.5t-25 128.5l-2 24h-199l-11 -23q-43 -97 -45 -164z" />
    <glyph glyph-name="uni0201" unicode="&#x201;" horiz-adv-x="377" 
d="M296 328l-125 98l10 15l123 -103zM161 328l-125 98l10 15l123 -103zM224 122l13 113q-9 0 -28 2q-25 3 -39 3q-38 0 -65 -40.5t-27 -104.5q0 -86 57 -86q30 0 56 34t33 79zM276 123q-2 -19 -2 -48q0 -56 25 -56q33 0 90 48l4 -3q-74 -64 -103 -64q-39 0 -43 94
q-14 -42 -49 -70t-74 -28q-42 0 -70.5 32.5t-28.5 79.5q0 65 42 106t105 41q14 0 44 -6q23 -4 31 -4q33 0 44.5 7.5t18.5 26.5l3 -1z" />
    <glyph glyph-name="uni0202" unicode="&#x202;" horiz-adv-x="501" 
d="M390 624l-13 -5q-30 83 -82 83q-56 0 -98 -81l-12 6q48 93 112 93q58 0 93 -96zM58 0l-50 -4q21 36 78 167l162 366l16 -4l-144 -324h192l-31 328l-76 4v7l152 1l7 -340h35q18 0 30 15t26 51l6 -1q-16 -52 -29 -79h-68l1 -23l1.5 -45t2 -35t4 -29t7.5 -18.5t12.5 -13
t17.5 -3.5q33 0 111 69l4 -4q-30 -28 -49.5 -44.5t-45 -31t-44.5 -14.5q-30 0 -46 39.5t-25 128.5l-2 24h-199l-11 -23q-43 -97 -45 -164z" />
    <glyph glyph-name="uni0203" unicode="&#x203;" horiz-adv-x="377" 
d="M305 369l-13 -5q-30 83 -82 83q-56 0 -98 -81l-12 6q48 93 112 93q58 0 93 -96zM224 122l13 113q-9 0 -28 2q-25 3 -39 3q-38 0 -65 -40.5t-27 -104.5q0 -86 57 -86q30 0 56 34t33 79zM276 123q-2 -19 -2 -48q0 -56 25 -56q33 0 90 48l4 -3q-74 -64 -103 -64
q-39 0 -43 94q-14 -42 -49 -70t-74 -28q-42 0 -70.5 32.5t-28.5 79.5q0 65 42 106t105 41q14 0 44 -6q23 -4 31 -4q33 0 44.5 7.5t18.5 26.5l3 -1z" />
    <glyph glyph-name="uni0204" unicode="&#x204;" horiz-adv-x="435" 
d="M358 583l-125 98l10 15l123 -103zM223 583l-125 98l10 15l123 -103zM20 -3l2 20q15 -3 46 -3q8 35 25 159l31 356l-69 4v7h195l191 9l-20 -120h-7l8 84l-175 13h-67v-2l20 -3l-34 -200h34l100 5l17 75h7q-5 -53 -10 -89q-4 -34 -16 -97h-7l5 84l-78 8h-54l-23 -133
q-14 -95 -18 -160h82l179 13l15 84h7l-15 -125l-13 1l-2 4l-172 9q-129 0 -184 -3z" />
    <glyph glyph-name="uni0205" unicode="&#x205;" horiz-adv-x="311" 
d="M294 328l-125 98l10 15l123 -103zM159 328l-125 98l10 15l123 -103zM80 100q66 1 106.5 26.5t40.5 64.5q0 22 -17 38t-40 16q-42 0 -66 -38t-24 -102v-5zM81 94q2 -34 26.5 -57t58.5 -23q61 0 125 53l3 -3q-78 -68 -137 -68q-54 0 -93.5 31t-39.5 74q0 65 46 111.5
t111 46.5q41 0 71.5 -19t30.5 -45q0 -42 -59.5 -70.5t-142.5 -30.5z" />
    <glyph glyph-name="uni0206" unicode="&#x206;" horiz-adv-x="435" 
d="M367 624l-13 -5q-30 83 -82 83q-56 0 -98 -81l-12 6q48 93 112 93q58 0 93 -96zM20 -3l2 20q15 -3 46 -3q8 35 25 159l31 356l-69 4v7h195l191 9l-20 -120h-7l8 84l-175 13h-67v-2l20 -3l-34 -200h34l100 5l17 75h7q-5 -53 -10 -89q-4 -34 -16 -97h-7l5 84l-78 8h-54
l-23 -133q-14 -95 -18 -160h82l179 13l15 84h7l-15 -125l-13 1l-2 4l-172 9q-129 0 -184 -3z" />
    <glyph glyph-name="uni0207" unicode="&#x207;" horiz-adv-x="311" 
d="M303 369l-13 -5q-30 83 -82 83q-56 0 -98 -81l-12 6q48 93 112 93q58 0 93 -96zM80 100q66 1 106.5 26.5t40.5 64.5q0 22 -17 38t-40 16q-42 0 -66 -38t-24 -102v-5zM81 94q2 -34 26.5 -57t58.5 -23q61 0 125 53l3 -3q-78 -68 -137 -68q-54 0 -93.5 31t-39.5 74
q0 65 46 111.5t111 46.5q41 0 71.5 -19t30.5 -45q0 -42 -59.5 -70.5t-142.5 -30.5z" />
    <glyph glyph-name="uni0208" unicode="&#x208;" horiz-adv-x="206" 
d="M258 583l-125 98l10 15l123 -103zM123 583l-125 98l10 15l123 -103zM121 0l-60 -1q13 41 30 164l32 366l-68 4v7l153 1l-3 -13l-5 -3l-60 -361q-16 -108 -19 -164z" />
    <glyph glyph-name="uni0209" unicode="&#x209;" horiz-adv-x="219" 
d="M233 328l-125 98l10 15l123 -103zM98 328l-125 98l10 15l123 -103zM62 122l8 102l-53 6v5h67q35 1 68 44l2 -1l-49 -155q-9 -54 -9 -72t5.5 -23.5t22.5 -5.5q39 0 101 45l3 -3q-93 -68 -133 -68q-42 0 -42 48q0 28 9 78z" />
    <glyph glyph-name="uni020A" unicode="&#x20a;" horiz-adv-x="206" 
d="M267 624l-13 -5q-30 83 -82 83q-56 0 -98 -81l-12 6q48 93 112 93q58 0 93 -96zM121 0l-60 -1q13 41 30 164l32 366l-68 4v7l153 1l-3 -13l-5 -3l-60 -361q-16 -108 -19 -164z" />
    <glyph glyph-name="uni020B" unicode="&#x20b;" horiz-adv-x="219" 
d="M242 369l-13 -5q-30 83 -82 83q-56 0 -98 -81l-12 6q48 93 112 93q58 0 93 -96zM62 122l8 102l-53 6v5h67q35 1 68 44l2 -1l-49 -155q-9 -54 -9 -72t5.5 -23.5t22.5 -5.5q39 0 101 45l3 -3q-93 -68 -133 -68q-42 0 -42 48q0 28 9 78z" />
    <glyph glyph-name="uni020C" unicode="&#x20c;" horiz-adv-x="473" 
d="M394 583l-125 98l10 15l123 -103zM259 583l-125 98l10 15l123 -103zM107 216q0 -84 36 -143.5t87 -59.5q74 0 119 86t45 226q0 84 -35.5 143t-85.5 59q-74 0 -120 -85.5t-46 -225.5zM44 227q0 142 67 230t174 88q72 0 122.5 -68t50.5 -164q0 -142 -67 -230t-173 -88
q-72 0 -123 68t-51 164z" />
    <glyph glyph-name="uni020D" unicode="&#x20d;" horiz-adv-x="346" 
d="M304 328l-125 98l10 15l123 -103zM169 328l-125 98l10 15l123 -103zM85 180q-10 -24 -10 -75q0 -42 25 -68.5t60 -26.5q39 0 68.5 41.5t29.5 98.5q0 43 -22 71.5t-54 28.5q-46 0 -46 -63q0 -8 -17 -8v14q0 33 20.5 52t53.5 19q52 0 86 -31.5t34 -78.5q0 -65 -49 -111.5
t-115 -46.5q-53 0 -89 29.5t-36 75.5q0 44 36 98q6 0 15.5 -6.5t9.5 -12.5z" />
    <glyph glyph-name="uni020E" unicode="&#x20e;" horiz-adv-x="473" 
d="M403 624l-13 -5q-30 83 -82 83q-56 0 -98 -81l-12 6q48 93 112 93q58 0 93 -96zM107 216q0 -84 36 -143.5t87 -59.5q74 0 119 86t45 226q0 84 -35.5 143t-85.5 59q-74 0 -120 -85.5t-46 -225.5zM44 227q0 142 67 230t174 88q72 0 122.5 -68t50.5 -164q0 -142 -67 -230
t-173 -88q-72 0 -123 68t-51 164z" />
    <glyph glyph-name="uni020F" unicode="&#x20f;" horiz-adv-x="346" 
d="M313 369l-13 -5q-30 83 -82 83q-56 0 -98 -81l-12 6q48 93 112 93q58 0 93 -96zM85 180q-10 -24 -10 -75q0 -42 25 -68.5t60 -26.5q39 0 68.5 41.5t29.5 98.5q0 43 -22 71.5t-54 28.5q-46 0 -46 -63q0 -8 -17 -8v14q0 33 20.5 52t53.5 19q52 0 86 -31.5t34 -78.5
q0 -65 -49 -111.5t-115 -46.5q-53 0 -89 29.5t-36 75.5q0 44 36 98q6 0 15.5 -6.5t9.5 -12.5z" />
    <glyph glyph-name="uni0210" unicode="&#x210;" horiz-adv-x="484" 
d="M368 583l-125 98l10 15l123 -103zM233 583l-125 98l10 15l123 -103zM121 0l-60 -1q13 41 30 164l33 367l-69 3v7l142 1q18 1 32 2q57 2 87 2q59 0 106.5 -45.5t47.5 -108.5q0 -81 -57.5 -138.5t-138.5 -57.5l-72 2q37 -13 70.5 -32.5t66.5 -49t53 -50t55 -58.5
q97 -105 190.5 -161.5t203.5 -56.5q42 0 87 12t76 34l4 -5q-38 -31 -96.5 -53t-106.5 -22q-63 0 -122 20t-113.5 59.5t-100 83.5t-97.5 105q-33 39 -51.5 59.5t-46.5 47.5t-53.5 42.5t-51.5 23.5l2 12l95 2q59 0 101.5 53.5t42.5 129.5q0 58 -29.5 96t-76.5 38q-83 0 -116 2
l-2 -3l14 -3l-60 -359q-15 -97 -19 -164z" />
    <glyph glyph-name="uni0211" unicode="&#x211;" horiz-adv-x="288" 
d="M289 328l-125 98l10 15l123 -103zM154 328l-125 98l10 15l123 -103zM96 0l-54 -1q10 25 27 123l-1 101l-53 2v5h50q31 0 53 49l2 -1l-12 -160v-2q0 -3 1 -6q20 65 53 103.5t66 38.5q23 0 42.5 5t20.5 13h2l-7 -56q-1 -8 -22 -8h-47q-34 0 -69 -47.5t-48 -121.5
q-4 -34 -4 -37z" />
    <glyph glyph-name="uni0212" unicode="&#x212;" horiz-adv-x="484" 
d="M377 624l-13 -5q-30 83 -82 83q-56 0 -98 -81l-12 6q48 93 112 93q58 0 93 -96zM121 0l-60 -1q13 41 30 164l33 367l-69 3v7l142 1q18 1 32 2q57 2 87 2q59 0 106.5 -45.5t47.5 -108.5q0 -81 -57.5 -138.5t-138.5 -57.5l-72 2q37 -13 70.5 -32.5t66.5 -49t53 -50
t55 -58.5q97 -105 190.5 -161.5t203.5 -56.5q42 0 87 12t76 34l4 -5q-38 -31 -96.5 -53t-106.5 -22q-63 0 -122 20t-113.5 59.5t-100 83.5t-97.5 105q-33 39 -51.5 59.5t-46.5 47.5t-53.5 42.5t-51.5 23.5l2 12l95 2q59 0 101.5 53.5t42.5 129.5q0 58 -29.5 96t-76.5 38
q-83 0 -116 2l-2 -3l14 -3l-60 -359q-15 -97 -19 -164z" />
    <glyph glyph-name="uni0213" unicode="&#x213;" horiz-adv-x="288" 
d="M298 369l-13 -5q-30 83 -82 83q-56 0 -98 -81l-12 6q48 93 112 93q58 0 93 -96zM96 0l-54 -1q10 25 27 123l-1 101l-53 2v5h50q31 0 53 49l2 -1l-12 -160v-2q0 -3 1 -6q20 65 53 103.5t66 38.5q23 0 42.5 5t20.5 13h2l-7 -56q-1 -8 -22 -8h-47q-34 0 -69 -47.5
t-48 -121.5q-4 -34 -4 -37z" />
    <glyph glyph-name="uni0214" unicode="&#x214;" horiz-adv-x="513" 
d="M383 583l-125 98l10 15l123 -103zM248 583l-125 98l10 15l123 -103zM53 506q48 39 69 39q24 0 36 -17.5t12 -61.5q0 -35 -8 -89l-34 -270q-1 -9 -1 -18q0 -29 11.5 -49t29.5 -20q52 0 111.5 86.5t80.5 195.5l28 228l-38 3v7h61q31 0 49 4l2 -2l-71 -378q-10 -70 -10 -96
q0 -25 7.5 -36.5t24.5 -11.5q35 0 113 69l4 -4q-31 -27 -52 -43.5t-47.5 -31.5t-44.5 -15q-50 0 -50 93q0 32 6 75l7 51q-33 -92 -86 -155.5t-99 -63.5q-42 0 -69.5 24.5t-27.5 63.5q0 8 1 17l42 276q15 101 15 112q0 31 -22 32q-16 0 -47 -19z" />
    <glyph glyph-name="uni0215" unicode="&#x215;" horiz-adv-x="389" 
d="M301 328l-125 98l10 15l123 -103zM166 328l-125 98l10 15l123 -103zM280 123q-9 -52 -9 -74q0 -34 22 -34q27 0 98 52l3 -3q-93 -68 -120 -68q-43 0 -43 66q0 24 5 57q-22 -57 -54 -90t-70 -33q-28 0 -51.5 17t-23.5 45q0 12 16 71q21 72 21 91q0 20 -19 20
q-14 0 -39 -14l-4 4q42 29 62 29q19 0 27.5 -11t8.5 -40q0 -27 -8 -75l-9 -53q-4 -20 -4 -33q0 -32 27 -32q47 0 83 55.5t51 140.5l6 37l-35 2v5h55q27 0 44 2l2 -1z" />
    <glyph glyph-name="uni0216" unicode="&#x216;" horiz-adv-x="513" 
d="M392 624l-13 -5q-30 83 -82 83q-56 0 -98 -81l-12 6q48 93 112 93q58 0 93 -96zM53 506q48 39 69 39q24 0 36 -17.5t12 -61.5q0 -35 -8 -89l-34 -270q-1 -9 -1 -18q0 -29 11.5 -49t29.5 -20q52 0 111.5 86.5t80.5 195.5l28 228l-38 3v7h61q31 0 49 4l2 -2l-71 -378
q-10 -70 -10 -96q0 -25 7.5 -36.5t24.5 -11.5q35 0 113 69l4 -4q-31 -27 -52 -43.5t-47.5 -31.5t-44.5 -15q-50 0 -50 93q0 32 6 75l7 51q-33 -92 -86 -155.5t-99 -63.5q-42 0 -69.5 24.5t-27.5 63.5q0 8 1 17l42 276q15 101 15 112q0 31 -22 32q-16 0 -47 -19z" />
    <glyph glyph-name="uni0217" unicode="&#x217;" horiz-adv-x="389" 
d="M310 369l-13 -5q-30 83 -82 83q-56 0 -98 -81l-12 6q48 93 112 93q58 0 93 -96zM280 123q-9 -52 -9 -74q0 -34 22 -34q27 0 98 52l3 -3q-93 -68 -120 -68q-43 0 -43 66q0 24 5 57q-22 -57 -54 -90t-70 -33q-28 0 -51.5 17t-23.5 45q0 12 16 71q21 72 21 91q0 20 -19 20
q-14 0 -39 -14l-4 4q42 29 62 29q19 0 27.5 -11t8.5 -40q0 -27 -8 -75l-9 -53q-4 -20 -4 -33q0 -32 27 -32q47 0 83 55.5t51 140.5l6 37l-35 2v5h55q27 0 44 2l2 -1z" />
    <glyph glyph-name="Scommaaccent" unicode="&#x218;" horiz-adv-x="402" 
d="M203 -97h-42l3 19q5 31 29 31h47l-6 -32q-7 -37 -39 -117h-11q19 78 19 99zM380 572l-24 -101l-3 1q-18 18 -50.5 36.5t-56.5 18.5q-56 0 -93 -27t-37 -76q0 -18 8 -32.5t26.5 -28.5t32.5 -23t42 -24q27 -15 42 -24t38 -26t35 -32.5t21.5 -38t9.5 -48.5
q0 -63 -57.5 -107.5t-137.5 -44.5q-38 0 -98 24q-33 13 -45 13l12 89h7v-5q0 -40 36 -73.5t90 -33.5q59 0 100.5 36.5t41.5 87.5q0 18 -8 33t-25.5 29t-32 23.5t-41.5 24.5t-41 23.5t-36 25.5t-33.5 32t-20.5 37.5t-9 47.5q0 64 49.5 100t125.5 36q19 0 52 -8q20 -5 28 -5
q21 0 31 10.5t17 30.5z" />
    <glyph glyph-name="scommaaccent" unicode="&#x219;" horiz-adv-x="287" 
d="M123 -97h-42l3 19q5 31 29 31h47l-6 -32q-7 -37 -39 -117h-11q19 78 19 99zM260 278l-29 -74l-3 1q-51 40 -79 40q-25 0 -43 -10q-19 -10 -19 -28q0 -12 14 -19q15 -8 47 -20q20 -7 31 -11t28 -14q17 -9 26 -17q9 -9 17 -23q7 -14 7 -29q0 -39 -37 -58q-37 -20 -96 -20
q-30 0 -66 14t-44 14l7 52h8v-2q0 -27 28 -46t68 -19q38 0 66 15q27 15 27 40q0 14 -16 25q-16 10 -51 22q-18 7 -29 12q-10 4 -26 12t-24 17q-8 8 -15 20q-6 12 -7 26q0 33 28 47t72 14q12 0 34.5 -5.5t28.5 -5.5q30 0 43 32z" />
    <glyph glyph-name="uni021A" unicode="&#x21a;" horiz-adv-x="447" 
d="M190 -97h-42l3 19q5 31 29 31h47l-6 -32q-7 -37 -39 -117h-11q19 78 19 99zM232 0l-58 -1q8 37 26 164l32 363h-32l-118 -10l-16 -87h-7l13 122l129 -11h146l132 11l-20 -122h-7l8 86l-114 11h-57q0 -1 -1 -2l20 -3l-66 -357q-11 -79 -11 -132q0 -14 1 -32z" />
    <glyph glyph-name="uni021B" unicode="&#x21b;" horiz-adv-x="251" 
d="M125 -97h-42l3 19q5 31 29 31h47l-6 -32q-7 -37 -39 -117h-11q19 78 19 99zM81 234h-67l2 14h67l24 106q6 32 73 32h14h2q-14 -22 -57 -138h96l-3 -14h-97q-22 -64 -30 -111q-7 -40 -7 -60q0 -46 32 -46q36 0 104 51l3 -3q-83 -67 -124 -67q-26 0 -42 16t-16 43
q0 19 7 65z" />
    <glyph glyph-name="uni021E" unicode="&#x21e;" horiz-adv-x="549" 
d="M299 598l-97 78l14 14l93 -82l93 82l14 -14l-97 -78h-20zM428 529l-69 4v7l145 1l-63 -300h73l-3 -14h-73l-13 -63q-10 -70 -10 -96q0 -25 7.5 -36.5t24.5 -11.5q33 0 111 69l4 -4q-103 -90 -139 -90q-52 0 -52 97q0 31 5 71l9 64h-234l-11 -63q-14 -99 -19 -164l-60 -1
q13 41 30 164l6 64h-58l2 14h57l26 288l-69 4v7l153 1l-2 -13l-5 -3l-48 -284h234z" />
    <glyph glyph-name="uni021F" unicode="&#x21f;" horiz-adv-x="365" 
d="M241 552l-97 78l14 14l93 -82l93 82l14 -14l-97 -78h-20zM70 0l-54 -1q10 25 27 123l44 376l-62 2v5h59q20 0 44.5 10.5t31.5 22.5l2 -1l-58 -308l-15 -95q24 61 59 96.5t77 35.5q32 0 54 -19t22 -48q0 -17 -21 -87q-18 -63 -18 -78t14 -15q30 0 101 52l2 -3
q-87 -68 -116 -68q-20 0 -28.5 10.5t-8.5 34.5t9 77l9 53q3 15 3 27q0 20 -7 32t-18 12q-53 0 -93 -60t-55 -151q-4 -32 -4 -35z" />
    <glyph glyph-name="uni0226" unicode="&#x226;" horiz-adv-x="501" 
d="M257 612l3 24q2 18 10 25.5t22 7.5h44l-5 -35q-1 -10 -10 -16t-20 -6h-44zM58 0l-50 -4q21 36 78 167l162 366l16 -4l-144 -324h192l-31 328l-76 4v7l152 1l7 -340h35q18 0 30 15t26 51l6 -1q-16 -52 -29 -79h-68l1 -23l1.5 -45t2 -35t4 -29t7.5 -18.5t12.5 -13
t17.5 -3.5q33 0 111 69l4 -4q-30 -28 -49.5 -44.5t-45 -31t-44.5 -14.5q-30 0 -46 39.5t-25 128.5l-2 24h-199l-11 -23q-43 -97 -45 -164z" />
    <glyph glyph-name="uni0227" unicode="&#x227;" horiz-adv-x="377" 
d="M165 357l3 24q2 18 10 25.5t22 7.5h44l-5 -35q-1 -10 -10 -16t-20 -6h-44zM224 122l13 113q-9 0 -28 2q-25 3 -39 3q-38 0 -65 -40.5t-27 -104.5q0 -86 57 -86q30 0 56 34t33 79zM276 123q-2 -19 -2 -48q0 -56 25 -56q33 0 90 48l4 -3q-74 -64 -103 -64q-39 0 -43 94
q-14 -42 -49 -70t-74 -28q-42 0 -70.5 32.5t-28.5 79.5q0 65 42 106t105 41q14 0 44 -6q23 -4 31 -4q33 0 44.5 7.5t18.5 26.5l3 -1z" />
    <glyph glyph-name="uni0228" unicode="&#x228;" horiz-adv-x="435" 
d="M20 -3l2 20q15 -3 46 -3q8 35 25 159l31 356l-69 4v7h195l191 9l-20 -120h-7l8 84l-175 13h-67v-2l20 -3l-34 -200h34l100 5l17 75h7q-5 -53 -10 -89q-4 -34 -16 -97h-7l5 84l-78 8h-54l-23 -133q-14 -95 -18 -160h82l179 13l15 84h7l-15 -125l-13 1l-2 4l-172 9l-16 -58
q22 9 42 9q32 0 54.5 -19.5t22.5 -46.5q0 -48 -48.5 -83t-120.5 -44l-2 14q56 8 93.5 38t37.5 70q0 24 -11.5 40.5t-27.5 16.5q-26 0 -45 -13q-8 2 -13 6l20 70q-119 0 -170 -3z" />
    <glyph glyph-name="uni0229" unicode="&#x229;" horiz-adv-x="311" 
d="M81 94q2 -34 26.5 -57t58.5 -23q61 0 125 53l3 -3q-78 -68 -137 -68q-12 0 -24 2l-16 -56q22 9 42 9q32 0 54.5 -19t22.5 -47q0 -48 -48.5 -83t-120.5 -44l-2 14q56 8 93.5 38t37.5 70q0 24 -11.5 40.5t-27.5 16.5q-26 0 -45 -13q-8 2 -13 6l20 70q-42 10 -68.5 38
t-26.5 63q0 65 46 111.5t111 46.5q41 0 71.5 -19t30.5 -45q0 -42 -59.5 -70.5t-142.5 -30.5zM80 100q66 1 106.5 26.5t40.5 64.5q0 22 -17 38t-40 16q-42 0 -66 -38t-24 -102v-5z" />
    <glyph glyph-name="uni022E" unicode="&#x22e;" horiz-adv-x="473" 
d="M263 612l3 24q2 18 10 25.5t22 7.5h44l-5 -35q-1 -10 -10 -16t-20 -6h-44zM107 216q0 -84 36 -143.5t87 -59.5q74 0 119 86t45 226q0 84 -35.5 143t-85.5 59q-74 0 -120 -85.5t-46 -225.5zM44 227q0 142 67 230t174 88q72 0 122.5 -68t50.5 -164q0 -142 -67 -230
t-173 -88q-72 0 -123 68t-51 164z" />
    <glyph glyph-name="uni022F" unicode="&#x22f;" horiz-adv-x="346" 
d="M173 357l3 24q2 18 10 25.5t22 7.5h44l-5 -35q-1 -10 -10 -16t-20 -6h-44zM85 180q-10 -24 -10 -75q0 -42 25 -68.5t60 -26.5q39 0 68.5 41.5t29.5 98.5q0 43 -22 71.5t-54 28.5q-46 0 -46 -63q0 -8 -17 -8v14q0 33 20.5 52t53.5 19q52 0 86 -31.5t34 -78.5
q0 -65 -49 -111.5t-115 -46.5q-53 0 -89 29.5t-36 75.5q0 44 36 98q6 0 15.5 -6.5t9.5 -12.5z" />
    <glyph glyph-name="uni0232" unicode="&#x232;" horiz-adv-x="468" 
d="M189 647h209l-2 -18h-209zM266 0l-65 -1q13 40 34 189q-21 36 -71 163q-16 40 -24 61t-20 48.5t-20.5 39.5t-14.5 12q-16 0 -46 -19l-4 5q20 16 48.5 31.5t40.5 15.5q10 0 20.5 -14t23 -46t21 -56.5t23.5 -70.5q37 -116 56 -154h2q51 74 89 164l70 162l-70 3l1 7h66
q22 0 45.5 11t34.5 28l3 -1l-127 -215q-51 -88 -71 -124.5t-23 -54.5q-19 -132 -22 -184z" />
    <glyph glyph-name="uni0233" unicode="&#x233;" horiz-adv-x="369" 
d="M89 392h209l-2 -18h-209zM286 109q-6 -35 -14 -135q-9 -113 -17 -158q-18 -113 -113.5 -184.5t-222.5 -71.5q-109 0 -186 58t-77 140q0 67 60.5 114.5t145.5 47.5l-6 -36q-77 0 -132 -36t-55 -88q0 -76 74 -130t179 -54q107 0 187 67.5t97 172.5q6 34 15 124
q13 125 23 172q-26 -53 -62 -84.5t-73 -31.5q-26 0 -50.5 17.5t-24.5 43.5q0 35 23 94q19 51 19 68q0 9 -5.5 15t-12.5 6q-12 0 -42 -14l-3 4q42 29 57 29q17 0 29.5 -9.5t12.5 -23.5q0 -18 -11 -69q-14 -66 -14 -94q0 -46 25 -46q45 0 86 47t61 119q6 31 11 59l-34 2v5h54
q26 0 52 30l2 -1z" />
    <glyph glyph-name="uni0237" unicode="&#x237;" horiz-adv-x="190" 
d="M-246 -384q-97 0 -156 55.5t-59 126.5q0 48 30 84t89 48l2 -7q-54 -12 -82 -44.5t-28 -74.5q0 -64 56.5 -114.5t149.5 -50.5q108 0 189 72.5t99 183.5l19 115l23 231l-64 3v5h82q27 0 53 30l2 -1l-70 -379q-23 -124 -117 -203.5t-218 -79.5z" />
    <glyph glyph-name="circumflex" unicode="&#x2c6;" horiz-adv-x="253" 
d="M177 507h20l97 -78l-14 -14l-93 82l-93 -82l-14 14z" />
    <glyph glyph-name="caron" unicode="&#x2c7;" horiz-adv-x="253" 
d="M186 413l-97 78l14 14l93 -82l93 82l14 -14l-97 -78h-20z" />
    <glyph glyph-name="dotaccent" unicode="&#x2d9;" horiz-adv-x="79" 
d="M67 427l3 24q2 18 10 25.5t22 7.5h44l-5 -35q-1 -10 -10 -16t-20 -6h-44z" />
    <glyph glyph-name="ogonek" unicode="&#x2db;" horiz-adv-x="149" 
d="M140 -109q-57 -70 -86 -70q-28 0 -45 17.5t-17 46.5t24.5 63t62.5 63l6 -9q-28 -22 -46 -55t-18 -58q0 -19 11 -31t29 -12q29 0 74 49z" />
    <glyph glyph-name="tilde" unicode="&#x2dc;" horiz-adv-x="296" 
d="M321 489l12 -6q-34 -66 -73 -66q-19 0 -52 20.5t-47 20.5q-25 0 -60 -49l-12 8q13 18 22 28.5t23 20.5t27 10q20 0 53 -21t48 -21q31 0 59 55z" />
    <glyph glyph-name="hungarumlaut" unicode="&#x2dd;" horiz-adv-x="330" 
d="M85 398l-8 10l153 103l10 -15zM225 398l-8 10l153 103l10 -15z" />
    <glyph glyph-name="gravecomb" unicode="&#x300;" horiz-adv-x="0" 
d="M94 405l-11 -7q-29 37 -56.5 56.5t-60.5 24.5l-2 3l40 29q6 4 12 4q9 0 14 -7z" />
    <glyph glyph-name="acutecomb" unicode="&#x301;" horiz-adv-x="0" 
d="M29 408l72 101q5 7 14 7q7 0 12 -4l37 -34l-2 -2q-73 -9 -124 -76z" />
    <glyph glyph-name="uni0302" unicode="&#x302;" horiz-adv-x="0" 
d="M60 507h20l97 -78l-14 -14l-93 82l-93 -82l-14 14z" />
    <glyph glyph-name="tildecomb" unicode="&#x303;" horiz-adv-x="0" 
d="M173 489l12 -6q-34 -66 -73 -66q-19 0 -52 20.5t-47 20.5q-25 0 -60 -49l-12 8q13 18 22 28.5t23 20.5t27 10q20 0 53 -21t48 -21q31 0 59 55z" />
    <glyph glyph-name="uni0304" unicode="&#x304;" horiz-adv-x="0" 
d="M-40 462h209l-2 -18h-209z" />
    <glyph glyph-name="uni0305" unicode="&#x305;" horiz-adv-x="0" 
d="M-60 462h249l-2 -18h-249z" />
    <glyph glyph-name="uni0306" unicode="&#x306;" horiz-adv-x="0" 
d="M-32 530l13 5q30 -83 82 -83q56 0 98 81l12 -6q-48 -93 -112 -93q-58 0 -93 96z" />
    <glyph glyph-name="uni0307" unicode="&#x307;" horiz-adv-x="0" 
d="M28 427l3 24q2 18 10 25.5t22 7.5h44l-5 -35q-1 -10 -10 -16t-20 -6h-44z" />
    <glyph glyph-name="uni0308" unicode="&#x308;" horiz-adv-x="0" 
d="M102 426l3 22q5 35 28 35h40l-6 -37q-1 -9 -8.5 -14.5t-18.5 -5.5h-38zM-45 426l3 22q5 35 28 35h40l-6 -37q-1 -9 -8.5 -14.5t-18.5 -5.5h-38z" />
    <glyph glyph-name="uni030A" unicode="&#x30a;" horiz-adv-x="0" 
d="M16 448q0 -18 12 -30t30 -12q23 0 39.5 17t16.5 39q0 18 -12 30t-30 12q-23 0 -39.5 -17.5t-16.5 -38.5zM74 518q24 0 39.5 -15.5t15.5 -38.5q0 -28 -22 -50t-51 -22q-24 0 -39.5 15.5t-15.5 38.5q0 28 22 50t51 22z" />
    <glyph glyph-name="uni030B" unicode="&#x30b;" horiz-adv-x="0" 
d="M-43 398l-8 10l153 103l10 -15zM97 398l-8 10l153 103l10 -15z" />
    <glyph glyph-name="uni030C" unicode="&#x30c;" horiz-adv-x="0" 
d="M50 413l-97 78l14 14l93 -82l93 82l14 -14l-97 -78h-20z" />
    <glyph glyph-name="uni030F" unicode="&#x30f;" horiz-adv-x="0" 
d="M159 398l-125 98l10 15l123 -103zM24 398l-125 98l10 15l123 -103z" />
    <glyph glyph-name="uni0311" unicode="&#x311;" horiz-adv-x="0" 
d="M168 439l-13 -5q-30 83 -82 83q-56 0 -98 -81l-12 6q48 93 112 93q58 0 93 -96z" />
    <glyph glyph-name="Wgrave" unicode="&#x1e80;" horiz-adv-x="721" 
d="M443 590l-11 -7q-29 37 -56.5 56.5t-60.5 24.5l-2 3l40 29q6 4 12 4q9 0 14 -7zM759 578l-144 -315q-39 -82 -71.5 -164t-33.5 -99l-65 -5q-26 51 -60 371l-45 -103q-98 -233 -100 -263l-65 -5q-19 38 -50 275q-8 62 -12.5 94t-11.5 73.5t-13.5 59.5t-12.5 18
q-16 0 -49 -19l-3 5q58 44 78 44q10 0 19 -7.5t16.5 -24t13 -33t11 -45.5t9.5 -50.5t8 -58t6.5 -57.5t6.5 -60q17 -165 30 -203q19 43 85 262l79 262l-130 3l1 7h144q23 0 44.5 10.5t32.5 28.5l2 -1l-64 -146q8 -97 33.5 -237t42.5 -189q22 49 90 262l84 262l-50 3l1 7h64
q23 0 44.5 10.5t32.5 28.5z" />
    <glyph glyph-name="wgrave" unicode="&#x1e81;" horiz-adv-x="550" 
d="M325 335l-11 -7q-29 37 -56.5 56.5t-60.5 24.5l-2 3l40 29q6 4 12 4q9 0 14 -7zM553 284l-107 -162q-70 -104 -71 -122q-40 0 -60 -4q-23 37 -48 164l-28 -38q-69 -95 -71 -122q-24 0 -60 -4q-18 30 -38 142q-5 26 -7.5 40t-6.5 31t-8.5 24.5t-9.5 7.5q-16 0 -44 -15
l-2 4q47 30 61 30q10 0 18 -6t14 -19t11 -25t9.5 -34.5t7 -35.5t6.5 -39q13 -74 22 -98q52 72 69 123l39 116l-83 2l-1 5h106q19 0 40 11t31 25l4 -1l-55 -84q6 -42 24.5 -105t32.5 -92q52 72 69 123l39 116l-43 2l-1 5h66q20 0 40.5 11t30.5 25z" />
    <glyph glyph-name="Wacute" unicode="&#x1e82;" horiz-adv-x="721" 
d="M378 593l72 101q5 7 14 7q7 0 12 -4l37 -34l-2 -2q-73 -9 -124 -76zM759 578l-144 -315q-39 -82 -71.5 -164t-33.5 -99l-65 -5q-26 51 -60 371l-45 -103q-98 -233 -100 -263l-65 -5q-19 38 -50 275q-8 62 -12.5 94t-11.5 73.5t-13.5 59.5t-12.5 18q-16 0 -49 -19l-3 5
q58 44 78 44q10 0 19 -7.5t16.5 -24t13 -33t11 -45.5t9.5 -50.5t8 -58t6.5 -57.5t6.5 -60q17 -165 30 -203q19 43 85 262l79 262l-130 3l1 7h144q23 0 44.5 10.5t32.5 28.5l2 -1l-64 -146q8 -97 33.5 -237t42.5 -189q22 49 90 262l84 262l-50 3l1 7h64q23 0 44.5 10.5
t32.5 28.5z" />
    <glyph glyph-name="wacute" unicode="&#x1e83;" horiz-adv-x="550" 
d="M260 338l72 101q5 7 14 7q7 0 12 -4l37 -34l-2 -2q-73 -9 -124 -76zM553 284l-107 -162q-70 -104 -71 -122q-40 0 -60 -4q-23 37 -48 164l-28 -38q-69 -95 -71 -122q-24 0 -60 -4q-18 30 -38 142q-5 26 -7.5 40t-6.5 31t-8.5 24.5t-9.5 7.5q-16 0 -44 -15l-2 4
q47 30 61 30q10 0 18 -6t14 -19t11 -25t9.5 -34.5t7 -35.5t6.5 -39q13 -74 22 -98q52 72 69 123l39 116l-83 2l-1 5h106q19 0 40 11t31 25l4 -1l-55 -84q6 -42 24.5 -105t32.5 -92q52 72 69 123l39 116l-43 2l-1 5h66q20 0 40.5 11t30.5 25z" />
    <glyph glyph-name="Wdieresis" unicode="&#x1e84;" horiz-adv-x="721" 
d="M451 611l3 22q5 35 28 35h40l-6 -37q-1 -9 -8.5 -14.5t-18.5 -5.5h-38zM304 611l3 22q5 35 28 35h40l-6 -37q-1 -9 -8.5 -14.5t-18.5 -5.5h-38zM759 578l-144 -315q-39 -82 -71.5 -164t-33.5 -99l-65 -5q-26 51 -60 371l-45 -103q-98 -233 -100 -263l-65 -5
q-19 38 -50 275q-8 62 -12.5 94t-11.5 73.5t-13.5 59.5t-12.5 18q-16 0 -49 -19l-3 5q58 44 78 44q10 0 19 -7.5t16.5 -24t13 -33t11 -45.5t9.5 -50.5t8 -58t6.5 -57.5t6.5 -60q17 -165 30 -203q19 43 85 262l79 262l-130 3l1 7h144q23 0 44.5 10.5t32.5 28.5l2 -1l-64 -146
q8 -97 33.5 -237t42.5 -189q22 49 90 262l84 262l-50 3l1 7h64q23 0 44.5 10.5t32.5 28.5z" />
    <glyph glyph-name="wdieresis" unicode="&#x1e85;" horiz-adv-x="550" 
d="M333 356l3 22q5 35 28 35h40l-6 -37q-1 -9 -8.5 -14.5t-18.5 -5.5h-38zM186 356l3 22q5 35 28 35h40l-6 -37q-1 -9 -8.5 -14.5t-18.5 -5.5h-38zM553 284l-107 -162q-70 -104 -71 -122q-40 0 -60 -4q-23 37 -48 164l-28 -38q-69 -95 -71 -122q-24 0 -60 -4q-18 30 -38 142
q-5 26 -7.5 40t-6.5 31t-8.5 24.5t-9.5 7.5q-16 0 -44 -15l-2 4q47 30 61 30q10 0 18 -6t14 -19t11 -25t9.5 -34.5t7 -35.5t6.5 -39q13 -74 22 -98q52 72 69 123l39 116l-83 2l-1 5h106q19 0 40 11t31 25l4 -1l-55 -84q6 -42 24.5 -105t32.5 -92q52 72 69 123l39 116l-43 2
l-1 5h66q20 0 40.5 11t30.5 25z" />
    <glyph glyph-name="uni1E86" unicode="&#x1e86;" horiz-adv-x="721" 
d="M377 612l3 24q2 18 10 25.5t22 7.5h44l-5 -35q-1 -10 -10 -16t-20 -6h-44zM759 578l-144 -315q-39 -82 -71.5 -164t-33.5 -99l-65 -5q-26 51 -60 371l-45 -103q-98 -233 -100 -263l-65 -5q-19 38 -50 275q-8 62 -12.5 94t-11.5 73.5t-13.5 59.5t-12.5 18q-16 0 -49 -19
l-3 5q58 44 78 44q10 0 19 -7.5t16.5 -24t13 -33t11 -45.5t9.5 -50.5t8 -58t6.5 -57.5t6.5 -60q17 -165 30 -203q19 43 85 262l79 262l-130 3l1 7h144q23 0 44.5 10.5t32.5 28.5l2 -1l-64 -146q8 -97 33.5 -237t42.5 -189q22 49 90 262l84 262l-50 3l1 7h64q23 0 44.5 10.5
t32.5 28.5z" />
    <glyph glyph-name="uni1E87" unicode="&#x1e87;" horiz-adv-x="550" 
d="M259 357l3 24q2 18 10 25.5t22 7.5h44l-5 -35q-1 -10 -10 -16t-20 -6h-44zM553 284l-107 -162q-70 -104 -71 -122q-40 0 -60 -4q-23 37 -48 164l-28 -38q-69 -95 -71 -122q-24 0 -60 -4q-18 30 -38 142q-5 26 -7.5 40t-6.5 31t-8.5 24.5t-9.5 7.5q-16 0 -44 -15l-2 4
q47 30 61 30q10 0 18 -6t14 -19t11 -25t9.5 -34.5t7 -35.5t6.5 -39q13 -74 22 -98q52 72 69 123l39 116l-83 2l-1 5h106q19 0 40 11t31 25l4 -1l-55 -84q6 -42 24.5 -105t32.5 -92q52 72 69 123l39 116l-43 2l-1 5h66q20 0 40.5 11t30.5 25z" />
    <glyph glyph-name="uni1E8E" unicode="&#x1e8e;" horiz-adv-x="468" 
d="M237 612l3 24q2 18 10 25.5t22 7.5h44l-5 -35q-1 -10 -10 -16t-20 -6h-44zM266 0l-65 -1q13 40 34 189q-21 36 -71 163q-16 40 -24 61t-20 48.5t-20.5 39.5t-14.5 12q-16 0 -46 -19l-4 5q20 16 48.5 31.5t40.5 15.5q10 0 20.5 -14t23 -46t21 -56.5t23.5 -70.5
q37 -116 56 -154h2q51 74 89 164l70 162l-70 3l1 7h66q22 0 45.5 11t34.5 28l3 -1l-127 -215q-51 -88 -71 -124.5t-23 -54.5q-19 -132 -22 -184z" />
    <glyph glyph-name="uni1E8F" unicode="&#x1e8f;" horiz-adv-x="369" 
d="M157 357l3 24q2 18 10 25.5t22 7.5h44l-5 -35q-1 -10 -10 -16t-20 -6h-44zM286 109q-6 -35 -14 -135q-9 -113 -17 -158q-18 -113 -113.5 -184.5t-222.5 -71.5q-109 0 -186 58t-77 140q0 67 60.5 114.5t145.5 47.5l-6 -36q-77 0 -132 -36t-55 -88q0 -76 74 -130t179 -54
q107 0 187 67.5t97 172.5q6 34 15 124q13 125 23 172q-26 -53 -62 -84.5t-73 -31.5q-26 0 -50.5 17.5t-24.5 43.5q0 35 23 94q19 51 19 68q0 9 -5.5 15t-12.5 6q-12 0 -42 -14l-3 4q42 29 57 29q17 0 29.5 -9.5t12.5 -23.5q0 -18 -11 -69q-14 -66 -14 -94q0 -46 25 -46
q45 0 86 47t61 119q6 31 11 59l-34 2v5h54q26 0 52 30l2 -1z" />
    <glyph glyph-name="uni1E9E" unicode="&#x1e9e;" horiz-adv-x="507" 
d="M110 0l-60 -2q13 76 36 264q1 8 1 18q0 15 -3 43q-4 36 -4 60q0 67 56.5 114.5t135.5 47.5q59 0 105 -27.5t67 -72.5l-172 -122v-5q0 -17 8 -32t26.5 -29t32.5 -22.5t41 -22.5t42 -23t34 -23.5t27.5 -30.5t8.5 -34q0 -44 -55 -75t-133 -31q-31 0 -81 21q-30 12 -43 12v78
h7v-6q1 -33 43 -62t76 -29q51 0 86.5 25t35.5 61q0 18 -13 35.5t-27.5 28.5t-40.5 29q-24 15 -36.5 24t-29 25t-24 32.5t-7.5 36.5v35l142 89q-12 45 -44.5 73t-77.5 28q-49 0 -85 -31t-42 -78q-3 -20 -3 -41q0 -9 1 -21v-24q0 -34 -5 -74q-21 -169 -26 -262z" />
    <glyph glyph-name="uni1EBC" unicode="&#x1ebc;" horiz-adv-x="435" 
d="M372 674l12 -6q-34 -66 -73 -66q-19 0 -52 20.5t-47 20.5q-25 0 -60 -49l-12 8q13 18 22 28.5t23 20.5t27 10q20 0 53 -21t48 -21q31 0 59 55zM20 -3l2 20q15 -3 46 -3q8 35 25 159l31 356l-69 4v7h195l191 9l-20 -120h-7l8 84l-175 13h-67v-2l20 -3l-34 -200h34l100 5
l17 75h7q-5 -53 -10 -89q-4 -34 -16 -97h-7l5 84l-78 8h-54l-23 -133q-14 -95 -18 -160h82l179 13l15 84h7l-15 -125l-13 1l-2 4l-172 9q-129 0 -184 -3z" />
    <glyph glyph-name="uni1EBD" unicode="&#x1ebd;" horiz-adv-x="311" 
d="M308 419l12 -6q-34 -66 -73 -66q-19 0 -52 20.5t-47 20.5q-25 0 -60 -49l-12 8q13 18 22 28.5t23 20.5t27 10q20 0 53 -21t48 -21q31 0 59 55zM80 100q66 1 106.5 26.5t40.5 64.5q0 22 -17 38t-40 16q-42 0 -66 -38t-24 -102v-5zM81 94q2 -34 26.5 -57t58.5 -23
q61 0 125 53l3 -3q-78 -68 -137 -68q-54 0 -93.5 31t-39.5 74q0 65 46 111.5t111 46.5q41 0 71.5 -19t30.5 -45q0 -42 -59.5 -70.5t-142.5 -30.5z" />
    <glyph glyph-name="Ygrave" unicode="&#x1ef2;" horiz-adv-x="468" 
d="M303 590l-11 -7q-29 37 -56.5 56.5t-60.5 24.5l-2 3l40 29q6 4 12 4q9 0 14 -7zM266 0l-65 -1q13 40 34 189q-21 36 -71 163q-16 40 -24 61t-20 48.5t-20.5 39.5t-14.5 12q-16 0 -46 -19l-4 5q20 16 48.5 31.5t40.5 15.5q10 0 20.5 -14t23 -46t21 -56.5t23.5 -70.5
q37 -116 56 -154h2q51 74 89 164l70 162l-70 3l1 7h66q22 0 45.5 11t34.5 28l3 -1l-127 -215q-51 -88 -71 -124.5t-23 -54.5q-19 -132 -22 -184z" />
    <glyph glyph-name="ygrave" unicode="&#x1ef3;" horiz-adv-x="369" 
d="M223 335l-11 -7q-29 37 -56.5 56.5t-60.5 24.5l-2 3l40 29q6 4 12 4q9 0 14 -7zM286 109q-6 -35 -14 -135q-9 -113 -17 -158q-18 -113 -113.5 -184.5t-222.5 -71.5q-109 0 -186 58t-77 140q0 67 60.5 114.5t145.5 47.5l-6 -36q-77 0 -132 -36t-55 -88q0 -76 74 -130
t179 -54q107 0 187 67.5t97 172.5q6 34 15 124q13 125 23 172q-26 -53 -62 -84.5t-73 -31.5q-26 0 -50.5 17.5t-24.5 43.5q0 35 23 94q19 51 19 68q0 9 -5.5 15t-12.5 6q-12 0 -42 -14l-3 4q42 29 57 29q17 0 29.5 -9.5t12.5 -23.5q0 -18 -11 -69q-14 -66 -14 -94
q0 -46 25 -46q45 0 86 47t61 119q6 31 11 59l-34 2v5h54q26 0 52 30l2 -1z" />
    </font>
</defs>
</svg>
